<?xml version="1.0" encoding="utf-8"?>
<!-- Generator: Adobe Illustrator 21.0.0, SVG Export Plug-In . SVG Version: 6.00 Build 0)  -->
<svg version="1.1" id="Layer_1" xmlns="http://www.w3.org/2000/svg" xmlns:xlink="http://www.w3.org/1999/xlink" x="0px" y="0px"
	 viewBox="0 0 28.4 28.4" style="enable-background:new 0 0 28.4 28.4;" xml:space="preserve">
<style type="text/css">
	.st0{fill:#F4D046;stroke:#2D3958;stroke-miterlimit:10;}
	.st1{fill:#FFFFFF;}
</style>
<circle class="st0" cx="14.2" cy="14.1" r="12.9"/>
<g>
	<g>
		<g>
			<path class="st1" d="M8.4,13.6v-1.8c0.2,0,0.3-0.1,0.3-0.3c0-0.2-0.1-0.3-0.3-0.3c-0.8,0-1.5,0.7-1.5,1.5v0.6
				c0,0.5,0.4,0.9,0.9,0.9h0.6c0.2,0,0.3-0.1,0.3-0.3C8.7,13.7,8.5,13.6,8.4,13.6z"/>
		</g>
	</g>
	<g>
		<g>
			<path class="st1" d="M20,11.1c-0.2,0-0.3,0.1-0.3,0.3c0,0.2,0.1,0.3,0.3,0.3v1.8c-0.2,0-0.3,0.1-0.3,0.3s0.1,0.3,0.3,0.3h0.6
				c0.5,0,0.9-0.4,0.9-0.9v-0.6C21.5,11.8,20.8,11.1,20,11.1z"/>
		</g>
	</g>
	<g>
		<g>
			<path class="st1" d="M12,19.7c-0.2,0-0.3,0.1-0.3,0.3H9.9c0-0.2-0.1-0.3-0.3-0.3c-0.2,0-0.3,0.1-0.3,0.3v0.6
				c0,0.5,0.4,0.9,0.9,0.9h1.2c0.5,0,0.9-0.4,0.9-0.9V20C12.3,19.8,12.2,19.7,12,19.7z"/>
		</g>
	</g>
	<g>
		<g>
			<path class="st1" d="M18.8,19.7c-0.2,0-0.3,0.1-0.3,0.3h-1.8c0-0.2-0.1-0.3-0.3-0.3S16,19.8,16,20v0.6c0,0.5,0.4,0.9,0.9,0.9h1.2
				c0.5,0,0.9-0.4,0.9-0.9V20C19.1,19.8,18.9,19.7,18.8,19.7z"/>
		</g>
	</g>
	<g>
		<g>
			<path class="st1" d="M18.8,6.9H9.6c-0.8,0-1.5,0.7-1.5,1.5v10.4c0,0.8,0.7,1.5,1.5,1.5h9.2c0.8,0,1.5-0.7,1.5-1.5V8.4
				C20.3,7.5,19.6,6.9,18.8,6.9z M10.8,8.1h6.7c0.5,0,0.9,0.4,0.9,0.9c0,0.5-0.4,0.9-0.9,0.9h-6.7c-0.5,0-0.9-0.4-0.9-0.9
				C9.9,8.5,10.3,8.1,10.8,8.1z M10.8,18.4c-0.5,0-0.9-0.4-0.9-0.9s0.4-0.9,0.9-0.9c0.5,0,0.9,0.4,0.9,0.9S11.3,18.4,10.8,18.4z
				 M17.5,18.4c-0.5,0-0.9-0.4-0.9-0.9s0.4-0.9,0.9-0.9s0.9,0.4,0.9,0.9S18,18.4,17.5,18.4z M19.1,14.5c0,0.5-0.4,0.9-0.9,0.9h-7.9
				c-0.5,0-0.9-0.4-0.9-0.9v-3.1c0-0.5,0.4-0.9,0.9-0.9h7.9c0.5,0,0.9,0.4,0.9,0.9L19.1,14.5L19.1,14.5z"/>
		</g>
	</g>
</g>
</svg>
