<?xml version="1.0" encoding="utf-8"?>
<!-- Generator: Adobe Illustrator 21.0.0, SVG Export Plug-In . SVG Version: 6.00 Build 0)  -->
<svg version="1.1" id="Layer_1" xmlns="http://www.w3.org/2000/svg" xmlns:xlink="http://www.w3.org/1999/xlink" x="0px" y="0px"
	 viewBox="0 0 28.4 28.4" style="enable-background:new 0 0 28.4 28.4;" xml:space="preserve">
<style type="text/css">
	.st0{fill:#4B6974;}
</style>
<g>
	<path class="st0" d="M8.4,23.8c-1.3-1-2.7-2.1-4-3.1c-1.2-1-2.5-1.9-3.8-2.9c2.6-2.1,5.3-4.1,7.9-6.2c0,0.2,0.1,0.4,0.1,0.6
		c0,0.7,0,1.4,0,2.1c0,0.1,0,0.3,0,0.4c3.3,0,6.6,0,9.8,0c0,2.1,0,4.1,0,6.1c-3.3,0-6.6,0-9.8,0c0,0.9,0,1.7,0,2.5
		C8.6,23.6,8.7,23.8,8.4,23.8z"/>
	<path class="st0" d="M20,4.5c1.3,1,2.7,2.1,4,3.1c1.2,1,2.5,1.9,3.8,2.9c-2.6,2.1-5.3,4.1-7.9,6.2c0-0.2-0.1-0.4-0.1-0.6
		c0-0.7,0-1.4,0-2.1c0-0.1,0-0.3,0-0.4c-3.3,0-6.6,0-9.8,0c0-2.1,0-4.1,0-6.1c3.3,0,6.6,0,9.8,0c0-0.9,0-1.7,0-2.5
		C19.8,4.8,19.7,4.6,20,4.5z"/>
</g>
</svg>
