<?xml version="1.0" encoding="utf-8"?>
<!-- Generator: Adobe Illustrator 21.0.0, SVG Export Plug-In . SVG Version: 6.00 Build 0)  -->
<svg version="1.1" id="Layer_1" xmlns="http://www.w3.org/2000/svg" xmlns:xlink="http://www.w3.org/1999/xlink" x="0px" y="0px"
	 viewBox="0 0 512 512" style="enable-background:new 0 0 512 512;" xml:space="preserve">
<style type="text/css">
	.st0{fill:#3474E0;stroke:#000000;stroke-miterlimit:10;}
</style>
<g>
	<g>
		<g>
			<circle class="st0" cx="256" cy="256" r="85.3"/>
			<path class="st0" d="M501.3,234.7h-54.6c-9.9-88.8-80.6-159.5-169.4-169.4V10.7c0-5.9-4.8-10.7-10.7-10.7h-21.3
				c-5.9,0-10.7,4.8-10.7,10.7v54.6c-88.8,9.9-159.5,80.6-169.4,169.4H10.7c-5.9,0-10.7,4.8-10.7,10.7v21.3
				c0,5.9,4.8,10.7,10.7,10.7h54.6c9.9,88.8,80.6,159.5,169.4,169.4v54.6c0,5.9,4.8,10.7,10.7,10.7h21.3c5.9,0,10.7-4.8,10.7-10.7
				v-54.6c88.8-9.9,159.5-80.6,169.4-169.4h54.6c5.9,0,10.7-4.8,10.7-10.7v-21.3C512,239.4,507.2,234.7,501.3,234.7z M256,405.3
				c-82.3,0-149.3-67-149.3-149.3s67-149.3,149.3-149.3s149.3,67,149.3,149.3S338.3,405.3,256,405.3z"/>
		</g>
	</g>
</g>
</svg>
