<?xml version="1.0" encoding="utf-8"?>
<!-- Generator: Adobe Illustrator 21.0.0, SVG Export Plug-In . SVG Version: 6.00 Build 0)  -->
<svg version="1.1" id="Layer_1" xmlns="http://www.w3.org/2000/svg" xmlns:xlink="http://www.w3.org/1999/xlink" x="0px" y="0px"
	 viewBox="0 0 1000 204" style="enable-background:new 0 0 1000 204;" xml:space="preserve">
<style type="text/css">
	.st0{fill:#E4E0D7;}
	.st1{fill:#6FADC1;}
	.st2{fill:#F4D046;}
	.st3{fill:#646F72;}
	.st4{fill:#E3E2DC;}
	.st5{fill:#3F4F59;}
	.st6{fill:#ECEFF0;}
	.st7{fill:#E7E1D5;}
	.st8{fill:#E7E2D8;}
	.st9{fill:#F7F7F5;}
	.st10{fill:#F7F6F5;}
	.st11{fill:#E6E0D4;}
	.st12{fill:#E7E3D9;}
	.st13{fill:#E9E2D7;}
	.st14{fill:#F7F6F4;}
	.st15{fill:#E8E3D9;}
	.st16{fill:#E9E4DB;}
	.st17{fill:#F9F8F4;}
	.st18{fill:#FDFDFC;}
	.st19{fill:#F3F1EC;}
	.st20{fill:#E2DFD6;}
	.st21{fill:#C7C7C0;}
	.st22{fill:none;}
	.st23{font-family:'Montserrat-Bold';}
	.st24{font-size:75px;}
	.st25{letter-spacing:7;}
</style>
<g>
	<ellipse class="st0" cx="187.9" cy="145.5" rx="97.1" ry="3.5"/>
	<path class="st1" d="M111.7,129.5c-5.2,0-10.3,0.1-15.5,0.1c-3.1,0-3.8-0.8-3.9-4.5c3.4,0,6.8,0,10.3,0c0.9-2.3,0.2-4.5,0.6-6.8
		c-3.7-0.9-7.3,0.1-10.9-0.6c0-2.4,0-4.7,0-7.2c0.4-0.1,1-0.3,1.6-0.3c1.7,0,2.2-0.9,2.2-2.5c0-1,0-2.1,0-3.1c0-3.4,0-3.4-3.8-4
		c0-2.7,0-5.5,0-8.3c63.3,0,126.7,0,190,0c0.5,0,1,0,1.5-0.1c0.3,2.6,0.6,5.2,0.9,7.8c-2.3,0.4-4.9-0.6-7.1,1.7
		c0.3,3.3,0.7,6.8,1.1,10.3c0.9,1.5,2,2.3,3.8,2.1c1-0.1,2.1,0,3.1-0.1c2.7,9-1.1,15-9.5,15.5c-3.8,0.2-7.7,0-11.5,0
		c0-0.2,0-0.5,0-0.7c0-1.4,0.2-2.9-0.2-4.2c-3.2-10.5-13.7-15.9-23.6-12.9c-8.3,2.6-13.3,11.3-12.6,17c-0.1,0.2-0.1,0.5,0,0.7
		c-26.7,0-53.4,0-80.1,0c0-0.2,0-0.5,0-0.7c0.5-3.9-1.4-6.9-3.3-10.2c-3.5-6-13.3-9.4-20.5-6.9c-7.6,2.6-12.8,9.5-12.6,17.1
		C111.7,129,111.7,129.2,111.7,129.5z M251.9,96.2c-2.9,0.1-5.6-0.4-8.1,0.3c-0.4,1.6,0.2,2.6,1.5,2.7c1.7,0.2,3.4,0.2,5,0
		C251.9,99.1,252.6,98.1,251.9,96.2z"/>
	<path class="st2" d="M283.9,92.2c-0.5,0-1,0.1-1.5,0.1c-63.3,0-126.7,0-190,0c0-11.9,0-23.8,0-35.7c1-1.4,2.5-1.5,4.1-1.5
		c5.7,0,11.4,0,17.1,0c50.2,0,100.4,0,150.7,0c5.3,0,9.8,1.6,13.3,5.6c2.7,3,4.3,6.5,4.4,10.7c0.1,3.8,0.9,7.6,1.3,11.4
		C283.5,85.9,283.7,89,283.9,92.2z M276.2,76c0-0.5-0.1-1-0.1-1.6c-0.2-1.2-0.4-2.4-0.5-3.7c-0.2-5.3-5.2-9.7-9.9-9.6
		c-2.2,0.1-4.3,0-6.5,0.1c-2.5,0-5.1-0.1-7.6-0.1c-2.6,0-5.2,0-7.8,0c0,1.1,0,1.7,0,2.3c0,7.1,0,14.3,0,21.6c4.3,0,8.3,0,12.4,0
		c1.5,0,3.1,0,4.6,0.1c0.8,0,1.6,0,2.4,0l0.4,0.1l0.4-0.1c0.8,0,1.6,0,2.4-0.1c1,0,2,0,3.1,0c1.3,0,2.6,0,3.9-0.1c1,0,2.1,0,3.1,0
		c0.2-0.5,0.7-0.9,0.7-1.4C276.8,81.2,276.5,78.6,276.2,76z M114.8,61.2c-1.6,0-3.1,0-4.7,0c-2.4,0-4.9-0.1-7.3-0.1
		c-1.6,0-3.3,0.2-3.7,2.4c-0.2,1.2-0.6,2.4-0.6,3.7c-0.1,5.1,0,10.3,0,15.4c0,0.8,0.2,1.7,0.2,2.4c5,0,9.8,0,14.5,0
		c0.8,0,1.5,0,2.3,0c0.5,0,1.1,0,1.6,0c1,0,2,0,3.1,0c1.8,0,3.6,0,5.5,0l0.4,0.1l0.4-0.1c0.6,0,1.4,0.5,1.5-0.7c0-7.6,0-15.1,0-22.7
		c0-0.1-0.1-0.2-0.2-0.3c-0.1-0.1-0.2-0.2-0.3-0.3c-4,0-7.9,0-11.9,0C115.3,61.2,115,61.2,114.8,61.2z M222.7,85.2
		c0.5,0,1.1,0,1.6,0c1,0,2,0,3.1,0.1c1.6,0,3.1,0,4.7,0c0.5,0,1,0,1.5,0c1-0.2,2.3,0.9,3-0.7c0-7.6,0-15.1,0-22.7
		c0-0.1-0.1-0.2-0.2-0.3c-0.1-0.1-0.2-0.2-0.2-0.3c-4.2,0-8.5,0-12.7,0c-5.4,0-10.8,0-16.3,0c0.1,1,0.1,1.6,0.1,2.3
		c0,7-0.1,14.1-0.1,21.1c0,0.1,0.1,0.2,0.2,0.3c0.1,0.1,0.2,0.2,0.2,0.2c4.5,0,9,0,13.5,0C221.7,85.2,222.2,85.2,222.7,85.2z
		 M164.3,63.5c0-0.7,0-1.4,0-2.3c-4.3,0-8.3,0-12.2,0c-5.7-0.1-11.4-0.1-17,0c0,1.1,0,1.7,0,2.3c0,7.1,0,14.3,0,21.6
		c5.1,0,9.9,0,14.7,0c0.5,0,1,0,1.5,0c0.8,0,1.6,0,2.4,0c1,0,2,0,3.1,0c1.6,0,3.1,0,4.7,0l0.4,0.1l0.4-0.1c0.7,0,1.4,0,2.2,0
		C164.3,77.8,164.3,70.6,164.3,63.5z M200.2,84.5c0-7.7,0-15.4,0-23.1c-9.8,0-19.3,0-28.8,0c0,0.9,0,1.5,0,2.2c0,7.1,0,14.3,0,21.6
		c4.9,0,9.4,0,14,0l0.4,0.1c0,0,0.4-0.1,0.4-0.1c0.8,0,1.6,0,2.4,0c1,0,2,0,3.1,0c1.3,0,2.6,0,3.9,0c0.5,0,1,0,1.5,0.1
		C198.1,85,199.5,86.1,200.2,84.5z"/>
	<path class="st3" d="M141,141.2c-2,1.5-4,3.1-6,4.6c-3.9,1.3-7.7,0.9-11.6,0c-1.8-1.3-3.5-2.5-5.3-3.8c-0.4-0.7-0.6-1.4-1.1-2
		c-2.4-3-3.2-6.4-2.8-10.2c-1-0.1-1.7-0.2-2.4-0.3c0-0.2,0-0.5,0-0.7c0.9,0,1.8,0,2.6,0c2.2-7.2,8.2-11.4,14.1-11.8
		c7.8-0.5,13.4,5.1,15.6,11.8c1.4,0,2.7,0,4.1,0c0,0.2,0,0.5,0,0.7c-1.2,0.1-2.5,0.2-4,0.3c0.4,3.9-0.4,7.4-2.9,10.4
		C141.1,140.4,141.1,140.8,141,141.2z M121.8,140.5c-0.1-0.2-0.2-0.4-0.3-0.6c-0.1,0.1-0.2,0.2-0.3,0.3
		C121.4,140.3,121.6,140.4,121.8,140.5c1.7,3.1,4.4,3.5,7.6,2.7C126.8,142.4,124.6,140.5,121.8,140.5z M129.1,126.4
		c-3.5,0-5.9,2.3-5.8,5.6c0.1,2.8,2.9,5.4,5.9,5.4c3.1,0,5.8-2.8,5.7-5.9C134.9,128.4,132.6,126.4,129.1,126.4z"/>
	<path class="st3" d="M241.4,145.9c-2.6-1.1-4.8-2.9-6.9-4.7c-0.8-1.8-1.8-3.5-2.4-5.4c-0.6-2-0.8-4.1-1.2-6.1
		c-1-0.1-1.8-0.1-2.7-0.2c0-0.2,0-0.5,0-0.7c1.1,0,2.3,0,3.4,0c1.2-5.4,7.3-11.3,11.7-11.6c9.9-0.8,14.8,3.1,18,11.7
		c1.1,0,2.2,0,3.4,0c0,0.2,0,0.5,0,0.7c-1,0.1-2,0.2-3.1,0.2c0,4.4-0.8,8.3-3.9,11.5c-2.1,1.6-4.1,3.1-6.2,4.7
		c-0.8,0.1-1.5,0.1-2.2,0.3C246.6,147.2,244,146.5,241.4,145.9z M235.2,138.9c0.1,0.2,0.2,0.4,0.3,0.6c0.1-0.1,0.2-0.2,0.3-0.3
		C235.5,139.1,235.3,139,235.2,138.9c-0.3-3-0.6-6.1-0.9-9.7C231.9,133.2,232.7,136.1,235.2,138.9z M240.8,133.8
		c1.8,2.4,4,4.3,7.4,3.2c2.4-0.8,4.3-3.3,4-5.5c-0.5-3.6-3-5.3-6.4-5.8C241.2,127.6,240.5,128.7,240.8,133.8z"/>
	<path class="st4" d="M285.7,114c-1,0-2.1-0.1-3.1,0.1c-1.8,0.2-2.9-0.6-3.8-2.1c-0.4-3.5-0.7-7-1.1-10.3c2.2-2.3,4.8-1.3,7.1-1.7
		C285.1,104.7,285.4,109.3,285.7,114z"/>
	<path class="st5" d="M148.1,128.8c-1.4,0-2.8,0-4.1,0c-2.2-6.7-7.8-12.3-15.6-11.8c-5.8,0.4-11.9,4.6-14.1,11.8c-0.8,0-1.7,0-2.6,0
		c-0.1-7.6,5-14.4,12.6-17.1c7.1-2.5,16.9,0.9,20.5,6.9C146.7,121.9,148.6,124.9,148.1,128.8z"/>
	<path class="st5" d="M264.7,128.8c-1.1,0-2.3,0-3.4,0c-3.1-8.6-8.1-12.5-18-11.7c-4.4,0.4-10.5,6.3-11.7,11.6c-1.1,0-2.2,0-3.4,0
		c-0.7-5.7,4.4-14.5,12.6-17c9.9-3.1,20.4,2.4,23.6,12.9C264.9,125.9,264.6,127.4,264.7,128.8z"/>
	<path class="st6" d="M251.9,96.2c0.6,1.9,0,2.9-1.5,3c-1.7,0.2-3.4,0.2-5,0c-1.3-0.2-1.9-1.2-1.5-2.7
		C246.4,95.8,249.1,96.3,251.9,96.2z"/>
	<path class="st7" d="M113.3,85.1c-4.7,0-9.5,0-14.5,0c-0.1-0.8-0.2-1.6-0.2-2.4c0-5.1-0.1-10.3,0-15.4c0-1.2,0.4-2.5,0.6-3.7
		c1.5,0,3,0,4.5,0c0.4,0.6,0.8,1,1,1.4c2.7,5.6,5.3,11.2,7.9,16.9C113,82.9,113,84.1,113.3,85.1z"/>
	<path class="st8" d="M149.8,85.2c-4.8,0-9.7,0-14.7,0c0-7.3,0-14.5,0-21.6c1.7,0,3.3,0,5,0c3.2,6.6,6.3,13,9.3,19.4
		C149.6,83.6,149.6,84.4,149.8,85.2z"/>
	<path class="st9" d="M186.2,85.2l-0.4,0.1l-0.4-0.1c-0.5-0.8-1.1-1.6-1.5-2.5c-3-6.4-5.9-12.8-8.9-19.1c-1.3,0-2.5,0-3.6,0
		c0-0.6,0-1.3,0-2.2c9.5,0,19,0,28.8,0c0,7.7,0,15.4,0,23.1c-1.4-0.4-0.7-1.5-0.7-2.2c0-6.1,0-12.3,0-18.6c-4,0-7.6,0-11.6,0
		c0.7,1.7,1.4,3.2,2.1,4.8c2.3,4.9,4.6,9.7,6.8,14.5c0.3,0.7,0.3,1.5,0.4,2.2c-0.5,0-1,0-1.5-0.1c-0.1-0.6,0-1.3-0.2-1.9
		c-1.8-4-3.7-7.9-5.6-11.8c-0.8-1.7-1.8-3.3-2.5-5c-1.4-3.2-1.4-3.2-5-2.3c0.2,0.6,0.2,1.2,0.5,1.8c2.7,5.6,5.4,11.2,8.1,16.9
		c0.4,0.8,0.5,1.6,0.8,2.5c-1,0-2,0-3.1,0c-0.1-0.5-0.2-1-0.4-1.4c-1.5-3.4-3.1-6.8-4.7-10.1c-1.4-2.9-2.8-5.8-4.3-8.7
		c-0.4-0.8-1-2-2.4-0.8c1.8,3.8,3.7,7.6,5.4,11.5C183.6,78.8,185.7,81.7,186.2,85.2z"/>
	<path class="st10" d="M243.8,63.5c0-0.6,0-1.3,0-2.3c2.6,0,5.2,0,7.8,0c2.5,0,5.1,0,7.6,0.1c0.3,0.8,0.5,1.5,0.8,2.3
		c1.2,2.9,2.5,5.9,3.7,8.8c1.8,4.3,4.7,8.1,5.6,12.8c-1,0-2,0-3.1,0c-0.3-1-0.4-2-0.8-2.9c-2.8-6.1-5.7-12.2-8.6-18.3
		c-0.1-0.2-0.4-0.3-0.7-0.5c-0.4,0.1-0.9,0.1-1.1,0.2c-0.1,0.9-0.1,1.5-0.1,2.3c-1.6-0.4-1.2-3.2-3.5-1.9c0.1,0.4,0.2,0.8,0.4,1.1
		c2.8,5.9,5.6,11.7,8.3,17.6c0.4,0.8,0.4,1.7,0.6,2.5c-1.5,0-3.1,0-4.6-0.1c-0.1-0.6,0-1.3-0.2-1.9c-2.5-5.6-5.1-11.2-7.6-16.9
		C247.5,64.3,246.2,63.1,243.8,63.5z"/>
	<path class="st11" d="M221.2,85.2c-4.5,0-9,0-13.5,0c-0.1-0.1-0.1-0.1-0.2-0.2c-0.1-0.1-0.2-0.2-0.2-0.3c0-7,0.1-14.1,0.1-21.1
		c1.4,0,2.8,0,3.9,0c1.9,4.2,3.4,8.2,6,11.7c0.3,0.8,0.5,1.5,0.8,2.3c0.2,0.6,0.3,1.2,0.5,1.7C219.4,81.2,220.3,83.2,221.2,85.2z"/>
	<path class="st8" d="M171.5,63.6c1.1,0,2.3,0,3.6,0c2.9,6.4,5.9,12.8,8.9,19.1c0.4,0.9,1,1.7,1.5,2.5c-4.6,0-9.2,0-14,0
		C171.5,77.8,171.5,70.7,171.5,63.6z"/>
	<path class="st8" d="M243.8,63.5c2.4-0.4,3.7,0.7,4.6,2.9c2.4,5.7,5.1,11.2,7.6,16.9c0.2,0.5,0.2,1.2,0.2,1.9c-4.1,0-8.1,0-12.4,0
		C243.8,77.8,243.8,70.7,243.8,63.5z"/>
	<path class="st10" d="M149.8,85.2c-0.1-0.7-0.1-1.5-0.5-2.2c-3.1-6.4-6.2-12.8-9.3-19.4c-1.6,0-3.3,0-5,0c0-0.6,0-1.3,0-2.3
		c5.7-0.1,11.3-0.1,17,0c0.3,0.8,0.5,1.5,0.8,2.3c1.1,2.5,2.1,5,3.3,7.4c1.9,4,3.8,8,5.7,12.1c0.3,0.6,0.2,1.5,0.4,2.2l-0.4,0.1
		l-0.4-0.1c-2.1-4.4-4.1-8.8-6.2-13.1c-0.9-1.9-2-3.7-2.9-5.7c-1.4-3.2-1.4-3.2-5-2.2c0.3,0.7,0.5,1.4,0.8,2.1
		c2.8,5.9,5.5,11.7,8.3,17.5c0.2,0.4,0.3,0.9,0.4,1.4c-1,0-2,0-3.1,0c-0.1-0.5-0.2-1-0.4-1.4c-1.5-3.4-3.1-6.8-4.7-10.1
		c-1.4-2.9-2.8-5.8-4.3-8.7c-0.4-0.8-1-2-2.4-0.8c2.1,4.4,4.2,8.8,6.2,13.1c1.2,2.6,2.7,5,3.1,7.9C150.8,85.2,150.3,85.2,149.8,85.2
		z"/>
	<path class="st10" d="M217.3,75.2c-2.6-3.5-4.1-7.5-6-11.7c-1.1,0-2.5,0-3.9,0c0-0.6-0.1-1.3-0.1-2.3c5.5,0,10.9,0,16.3,0
		c0.3,0.8,0.5,1.5,0.8,2.3c0,0.4-0.1,0.8,0.1,1.1c2.7,5.7,5.5,11.3,8.2,17c0.5,1.1,0.7,2.3,1,3.5c-0.5,0-1,0-1.5,0
		c-0.1-0.6,0-1.3-0.2-1.9c-3.2-6.6-6.4-13.2-9.5-19.6c-1.5,0-2.7,0-4.3,0c0.9,2.1,1.7,4,2.5,5.9c2.1,4.5,4.3,9,6.4,13.5
		c0.3,0.6,0.3,1.5,0.4,2.2c-1,0-2,0-3.1-0.1c-0.6-1.9-0.9-3.9-1.8-5.7c-2.2-4.8-4.6-9.4-6.8-14.2c-0.6-1.4-1.4-2-3.1-1.5
		c1.7,3.4,3.4,6.8,5.1,10.1C218.2,74.6,218.1,75,217.3,75.2z"/>
	<path class="st12" d="M233.6,85.2c-0.3-1.2-0.5-2.4-1-3.5c-2.7-5.7-5.5-11.3-8.2-17c-0.2-0.3-0.1-0.8-0.1-1.1c3.8,0,7.6,0,11.7,0
		c0,1.3,0,2.3,0,3.3c0,5.2,0,10.5,0,15.7c0,0.6,0.4,1.3,0.7,1.9C235.9,86.1,234.6,85,233.6,85.2z"/>
	<path class="st12" d="M197.1,85.2c-0.1-0.7-0.1-1.5-0.4-2.2c-2.2-4.9-4.5-9.7-6.8-14.5c-0.7-1.5-1.3-3.1-2.1-4.8
		c3.9,0,7.6,0,11.6,0c0,6.3,0,12.4,0,18.6c0,0.8-0.6,1.9,0.7,2.2C199.5,86.1,198.1,85,197.1,85.2z"/>
	<path class="st13" d="M162.1,85.2c-0.1-0.7-0.1-1.5-0.4-2.2c-1.9-4-3.8-8-5.7-12.1c-1.1-2.5-2.2-5-3.3-7.4c3.8,0,7.6,0,11.5,0
		c0,7.1,0,14.2,0,21.7C163.6,85.2,162.9,85.2,162.1,85.2z"/>
	<path class="st14" d="M113.3,85.1c-0.2-1.1-0.3-2.3-0.7-3.3c-2.6-5.7-5.2-11.3-7.9-16.9c-0.2-0.4-0.6-0.8-1-1.4c-1.4,0-3,0-4.5,0
		c0.3-2.2,2-2.3,3.7-2.4c2.4-0.1,4.9,0,7.3,0.1c0.3,0.8,0.5,1.5,0.8,2.3c0,0.4-0.1,0.8,0.1,1.1c2.7,5.7,5.5,11.3,8.2,17
		c0.5,1.1,0.7,2.3,1,3.5c-1,0-2,0-3.1,0c0-0.5,0.1-1.1-0.1-1.5c-3.1-6.4-6.2-12.8-9.3-19.2c-0.6-1.2-1.3-0.9-2.2-0.5
		c2,4.3,4,8.6,6,12.8c1.3,2.8,2.6,5.7,3.9,8.5C114.8,85.2,114,85.2,113.3,85.1z"/>
	<path class="st12" d="M127.9,84.5c-0.1,1.2-0.9,0.7-1.5,0.7c-0.2-0.2-0.5-0.4-0.7-0.7l0,0c-0.2-2.8-1.6-5.2-2.7-7.7
		c-2-4.4-4.5-8.6-5.8-13.3c3.3,0,6.6,0,10.1,0c0,1.3,0,2.3,0,3.3c0,5.2,0,10.5,0,15.7C127.2,83.2,127.7,83.9,127.9,84.5z"/>
	<path class="st15" d="M227.4,85.2c-0.1-0.7-0.1-1.5-0.4-2.2c-2.1-4.5-4.3-9-6.4-13.5c-0.9-1.9-1.6-3.8-2.5-5.9c1.5,0,2.8,0,4.3,0
		c3.1,6.4,6.3,13,9.5,19.6c0.3,0.5,0.2,1.2,0.2,1.9C230.5,85.2,229,85.2,227.4,85.2z"/>
	<path class="st15" d="M120.2,85.2c-0.3-1.2-0.5-2.4-1-3.5c-2.7-5.7-5.5-11.3-8.2-17c-0.2-0.3-0.1-0.8-0.1-1.1c1.3,0,2.6,0,3.9,0
		c0.8,1.5,1.6,3,2.3,4.5c1.8,3.7,3.4,7.5,5.3,11.2c1,1.8,1.1,4.2,3.3,5.3l0,0c0,0.2,0,0.5,0,0.7C123.8,85.2,122,85.2,120.2,85.2z"/>
	<path class="st16" d="M260.8,85.2c-0.2-0.8-0.2-1.7-0.6-2.5c-2.7-5.9-5.5-11.7-8.3-17.6c-0.2-0.3-0.3-0.7-0.4-1.1
		c2.2-1.2,1.9,1.5,3.5,1.9c0-0.8,0.1-1.4,0.1-2.3c0.2,0,0.7-0.1,1.1-0.2c0.3,0.2,0.6,0.3,0.7,0.5c2.9,6.1,5.8,12.2,8.6,18.3
		c0.4,0.9,0.5,1.9,0.8,2.9c-0.8,0-1.6,0-2.4,0.1c0-0.5,0.1-1,0-1.4c-0.1-0.3-0.6-0.5-1-0.7c-0.1,0.4-0.3,0.8-0.3,1.2
		c0,0.3,0.3,0.6,0.5,0.9C262.3,85.2,261.6,85.2,260.8,85.2z M256.8,69.3c-0.3,2.6,2.4,8.2,5,10C260.3,75.6,258.9,72.5,256.8,69.3z"
		/>
	<path class="st15" d="M156.7,85.2c-0.1-0.5-0.2-1-0.4-1.4c-2.8-5.9-5.5-11.7-8.3-17.5c-0.3-0.7-0.5-1.4-0.8-2.1c3.7-1,3.6-1,5,2.2
		c0.9,1.9,2,3.8,2.9,5.7c2.1,4.4,4.2,8.8,6.2,13.1C159.8,85.2,158.3,85.2,156.7,85.2z"/>
	<path class="st15" d="M191.7,85.2c-0.3-0.8-0.4-1.7-0.8-2.5c-2.7-5.6-5.4-11.2-8.1-16.9c-0.3-0.5-0.3-1.2-0.5-1.8
		c3.6-0.9,3.6-0.8,5,2.3c0.8,1.7,1.7,3.3,2.5,5c1.9,3.9,3.7,7.9,5.6,11.8c0.2,0.5,0.2,1.2,0.2,1.9C194.3,85.2,193,85.2,191.7,85.2z"
		/>
	<path class="st15" d="M269.3,85.2c-0.9-4.7-3.8-8.5-5.6-12.8c-1.2-2.9-2.5-5.9-3.7-8.8c1.6,0,3.1,0,4.7,0c0.2,0.8,0.2,1.7,0.6,2.5
		c2.3,4.9,4.6,9.9,7,14.8c0.7,1.4,1.2,2.7,1,4.3C271.9,85.2,270.6,85.2,269.3,85.2z"/>
	<path class="st17" d="M264.7,63.6c-1.6,0-3.1,0-4.7,0c-0.3-0.8-0.5-1.5-0.8-2.3c2.2,0,4.3,0,6.5-0.1c4.7-0.2,9.7,4.3,9.9,9.6
		c0,1.2,0.3,2.4,0.5,3.7c-0.4,0-0.9,0-1.3,0c0.1-4.9-3-9.5-8.5-10.9C265.7,63.6,265.2,63.6,264.7,63.6z"/>
	<path class="st16" d="M217.3,75.2c0.8-0.2,0.9-0.7,0.5-1.4c-1.7-3.3-3.4-6.6-5.1-10.1c1.7-0.5,2.4,0.1,3.1,1.5
		c2.2,4.8,4.6,9.4,6.8,14.2c0.8,1.8,1.2,3.8,1.8,5.7c-0.5,0-1.1,0-1.6,0c-1.1-2.4-2.1-4.9-3.3-7.3c-0.1-0.3-0.9-0.3-1.3-0.4
		C217.8,76.8,217.6,76,217.3,75.2z"/>
	<path class="st18" d="M236.6,84.5c-0.2-0.6-0.7-1.3-0.7-1.9c-0.1-5.2,0-10.5,0-15.7c0-1,0-2,0-3.3c-4,0-7.8,0-11.7,0
		c-0.3-0.8-0.5-1.5-0.8-2.3c4.2,0,8.5,0,12.7,0c0.1,0.1,0.2,0.2,0.2,0.3c0.1,0.1,0.2,0.2,0.2,0.3C236.7,69.4,236.7,76.9,236.6,84.5z
		"/>
	<path class="st16" d="M186.2,85.2c-0.6-3.5-2.6-6.4-4-9.6c-1.7-3.9-3.6-7.6-5.4-11.5c1.4-1.2,2,0,2.4,0.8c1.5,2.9,2.9,5.8,4.3,8.7
		c1.6,3.4,3.1,6.7,4.7,10.1c0.2,0.4,0.3,0.9,0.4,1.4C187.8,85.2,187,85.2,186.2,85.2z"/>
	<path class="st16" d="M151.3,85.2c-0.4-2.9-2-5.3-3.1-7.9c-2-4.4-4.1-8.7-6.2-13.1c1.4-1.2,2,0,2.4,0.8c1.5,2.9,2.9,5.8,4.3,8.7
		c1.6,3.4,3.1,6.7,4.7,10.1c0.2,0.4,0.3,0.9,0.4,1.4C152.8,85.2,152.1,85.2,151.3,85.2z"/>
	<path class="st16" d="M115.5,85.2c-1.3-2.8-2.6-5.7-3.9-8.5c-2-4.3-4-8.6-6-12.8c0.9-0.4,1.6-0.7,2.2,0.5
		c3.1,6.4,6.2,12.8,9.3,19.2c0.2,0.4,0.1,1,0.1,1.5C116.6,85.2,116.1,85.2,115.5,85.2z"/>
	<path class="st18" d="M127.9,84.5c-0.2-0.6-0.7-1.3-0.7-1.9c-0.1-5.2,0-10.5,0-15.7c0-1,0-2,0-3.3c-3.5,0-6.8,0-10.1,0
		c-0.5-0.8-1-1.5-1.6-2.3c4,0,7.9,0,11.9,0c0.1,0.1,0.2,0.2,0.3,0.3c0.1,0.1,0.2,0.2,0.2,0.3C127.9,69.4,127.9,76.9,127.9,84.5z"/>
	<path class="st19" d="M264.7,63.6c0.5,0,1,0,1.6,0c0.7,1.9,1.3,3.8,2.1,5.6c1.7,3.9,3.5,7.7,5.3,11.5c0.5,1,1,1.9,1.8,3.4
		c0.1-1.1,0.1-1.5,0.1-1.9c1.6,0.6,0.4,2,0.8,3c-1,0-2.1,0-3.1,0c0.2-1.6-0.4-2.9-1-4.3c-2.4-4.9-4.7-9.8-7-14.8
		C264.9,65.3,264.9,64.4,264.7,63.6z"/>
	<path class="st14" d="M115.6,61.2c0.5,0.8,1,1.5,1.6,2.3c1.3,4.7,3.8,8.9,5.8,13.3c1.1,2.5,2.5,4.9,2.7,7.7
		c-2.2-1.1-2.4-3.5-3.3-5.3c-1.9-3.7-3.5-7.5-5.3-11.2c-0.7-1.5-1.5-3-2.3-4.5c0-0.8,0-1.6,0-2.3C115,61.2,115.3,61.2,115.6,61.2z"
		/>
	<path class="st18" d="M164.3,63.5c-3.8,0-7.6,0-11.5,0c-0.3-0.8-0.5-1.5-0.8-2.3c4,0,8,0,12.2,0C164.3,62.1,164.3,62.8,164.3,63.5z
		"/>
	<path class="st10" d="M218.1,77.5c0.5,0.1,1.2,0.1,1.3,0.4c1.2,2.4,2.2,4.8,3.3,7.3c-0.5,0-1,0-1.5,0c-0.9-2-1.8-4-2.6-5.9
		C218.4,78.7,218.2,78.1,218.1,77.5z"/>
	<path class="st18" d="M114.8,61.2c0,0.8,0,1.6,0,2.3c-1.3,0-2.6,0-3.9,0c-0.3-0.8-0.5-1.5-0.8-2.3
		C111.7,61.2,113.2,61.2,114.8,61.2z"/>
	<path class="st17" d="M276.3,85.2c-0.4-0.9,0.8-2.3-0.8-3c0-2.1,0-4.1,0-6.2c0.2,0,0.4,0,0.6,0c0.3,2.6,0.6,5.2,0.9,7.8
		C277.1,84.2,276.6,84.7,276.3,85.2z"/>
	<path class="st10" d="M263.1,85.2c-0.2-0.3-0.5-0.6-0.5-0.9c0-0.4,0.2-0.8,0.3-1.2c0.3,0.2,0.9,0.4,1,0.7c0.2,0.4,0,1,0,1.4
		l-0.4,0.1L263.1,85.2z"/>
	<path class="st19" d="M276.2,76c-0.2,0-0.4,0-0.6,0c-0.3-0.5-0.5-1-0.8-1.6c0.4,0,0.9,0,1.3,0C276.1,74.9,276.2,75.5,276.2,76z"/>
	<path class="st14" d="M125.7,85.2c0-0.2,0-0.5,0-0.7c0.2,0.2,0.5,0.4,0.7,0.7l-0.4,0.1L125.7,85.2z"/>
	<path class="st20" d="M129.1,126.4c3.5,0,5.8,2,5.8,5.1c0,3.1-2.6,5.9-5.7,5.9c-3,0-5.8-2.6-5.9-5.4
		C123.2,128.7,125.6,126.4,129.1,126.4z"/>
	<path class="st21" d="M121.8,140.5c2.8,0,5,2,7.6,2.7C126.2,143.9,123.5,143.5,121.8,140.5L121.8,140.5z"/>
	<path class="st21" d="M121.8,140.4c-0.2-0.1-0.4-0.2-0.6-0.3c0.1-0.1,0.2-0.2,0.3-0.3C121.6,140.1,121.7,140.3,121.8,140.4
		L121.8,140.4z"/>
	<path class="st20" d="M240.8,133.8c-0.3-5.1,0.4-6.2,5-8c3.5,0.5,5.9,2.1,6.4,5.8c0.3,2.1-1.6,4.7-4,5.5
		C244.8,138.2,242.6,136.3,240.8,133.8z"/>
	<path class="st21" d="M235.2,138.9c-2.5-2.7-3.3-5.7-0.9-9.7C234.6,132.8,234.9,135.9,235.2,138.9L235.2,138.9z"/>
	<path class="st21" d="M235.2,138.9c0.2,0.1,0.4,0.2,0.6,0.2c-0.1,0.1-0.2,0.2-0.3,0.3C235.4,139.3,235.3,139.1,235.2,138.9
		L235.2,138.9z"/>
	<path class="st10" d="M256.8,69.3c2.1,3.2,3.6,6.2,5,10C259.2,77.5,256.4,71.9,256.8,69.3z"/>
	<path class="st16" d="M274.8,74.4c0.3,0.5,0.5,1,0.8,1.6c0,2.1,0,4.1,0,6.2c0,0.4,0,0.8-0.1,1.9c-0.8-1.5-1.3-2.4-1.8-3.4
		c-1.8-3.8-3.6-7.7-5.3-11.5c-0.8-1.8-1.4-3.7-2.1-5.6C271.8,64.9,274.9,69.5,274.8,74.4z"/>
</g>
<rect x="351" y="70.3" class="st22" width="589" height="59.4"/>
<text transform="matrix(1 0 0 1 350.9992 125.925)" class="st5 st23 st24 st25">Busta Times</text>
</svg>
