<?xml version="1.0" encoding="utf-8"?>
<!-- Generator: Adobe Illustrator 21.0.0, SVG Export Plug-In . SVG Version: 6.00 Build 0)  -->
<svg version="1.1" id="Layer_1" xmlns="http://www.w3.org/2000/svg" xmlns:xlink="http://www.w3.org/1999/xlink" x="0px" y="0px"
	 viewBox="0 0 28.4 28.4" style="enable-background:new 0 0 28.4 28.4;" xml:space="preserve">
<style type="text/css">
	.st0{fill:#325C67;}
</style>
<g>
	<path class="st0" d="M14.2,25.2c-3.1,0-6.1,0-9.2,0c-1.7,0-1.8-0.3-2-2c-0.2-2.1,0.8-3.5,2.6-4.4c5.6-2.9,11.3-2.9,16.9-0.1
		c1.9,0.9,2.9,2.4,2.7,4.7c-0.2,1.5-0.4,1.8-1.8,1.8C20.4,25.2,17.3,25.2,14.2,25.2z"/>
	<path class="st0" d="M9.3,7.9c0-2.7,2.3-4.9,5.1-4.8c2.6,0.1,4.8,2.3,4.8,5c0,2.7-2.4,4.9-5.1,4.8C11.4,12.9,9.2,10.6,9.3,7.9z"/>
</g>
</svg>
