<?xml version="1.0" encoding="utf-8"?>
<!-- Generator: Adobe Illustrator 21.0.0, SVG Export Plug-In . SVG Version: 6.00 Build 0)  -->
<svg version="1.1" id="Layer_1" xmlns="http://www.w3.org/2000/svg" xmlns:xlink="http://www.w3.org/1999/xlink" x="0px" y="0px"
	 viewBox="0 0 96.4 130.4" style="enable-background:new 0 0 96.4 130.4;" xml:space="preserve">
<style type="text/css">
	.st0{fill:#325C67;}
	.st1{fill:#FFFFFF;}
</style>
<g>
	<path class="st0" d="M48.2,1.7C22.5,1.7,1.7,22.5,1.7,48.2c0,27.5,46.5,80.5,46.5,80.5s46.5-51,46.5-80.5
		C94.7,22.5,73.9,1.7,48.2,1.7z M48.2,74.9c-15.8,0-28.6-12.8-28.6-28.6c0-15.8,12.8-28.6,28.6-28.6c15.8,0,28.6,12.8,28.6,28.6
		C76.8,62.1,64,74.9,48.2,74.9z"/>
	<circle class="st0" cx="46.9" cy="46.2" r="31.9"/>
</g>
<g>
	<path class="st1" d="M79.5,62.5c-1.3,2.2-2.6,4.4-4.4,7.3c-1.5-2.9-2.9-5.1-3.8-7.4c-0.4-0.9-0.3-2.6,0.3-3.3
		c1.7-1.8,1.4-3.9,1.4-6c0-4.8,0-9.5,0-14.8c-2.6,0.8-5,1.4-7.3,2.1c-5.5,1.7-10.9,3.4-16.4,5c-1.3,0.4-2.8,0.4-4.1,0
		c-8.2-2.4-16.4-4.9-24.6-7.5c-0.8-0.2-1.6-0.5-2.3-0.9c-1.5-1-1.5-2.6,0-3.5c0.8-0.5,1.7-0.7,2.7-1c8-2.5,15.9-5,23.9-7.3
		c1.5-0.4,3.3-0.4,4.8,0c8.1,2.3,16.2,4.9,24.3,7.3c2.4,0.7,3.5,1.9,3.4,4.5c-0.2,5.6,0,11.2-0.1,16.8c-0.1,2.3,0.5,4.2,2.2,5.7
		C79.5,60.6,79.5,61.6,79.5,62.5z"/>
	<path class="st1" d="M30.4,45.4c4.5,1.4,8.7,2.5,12.7,3.9c3,1.1,5.7,1,8.7,0c4-1.4,8.2-2.5,12.5-3.9c0,4.5,0,8.8,0,12.5
		c-5.8,2.2-11.4,4.4-16.9,6.5c-5.3-2-10.9-4.2-16.9-6.5C30.4,54.5,30.4,50.1,30.4,45.4z"/>
</g>
</svg>
