<?xml version="1.0" encoding="utf-8"?>
<!-- Generator: Adobe Illustrator 21.0.0, SVG Export Plug-In . SVG Version: 6.00 Build 0)  -->
<svg version="1.1" id="Layer_1" xmlns="http://www.w3.org/2000/svg" xmlns:xlink="http://www.w3.org/1999/xlink" x="0px" y="0px"
	 viewBox="0 0 28.4 28.4" style="enable-background:new 0 0 28.4 28.4;" xml:space="preserve">
<style type="text/css">
	.st0{fill:#8292A2;}
	.st1{fill:#CA5151;}
	.st2{fill:#BCCBD3;}
	.st3{fill:#FDFDFD;}
</style>
<g>
	<path class="st0" d="M20.4,22.7c-0.3,0.3-0.7,0.6-1.2,1c0.5,0.5,1,1,1.5,1.6c-0.8,0.7-1.6,0.5-2.4,0.1c0.1-0.4,0.1-0.9,0.2-1.3
		c-1,0.2-1.9,0.4-2.8,0.5c0-0.3,0-0.6,0-1c0.7-0.1,1.4-0.3,2.3-0.4c-1.1-2.3-2-4.3-3-6.3c-0.4-0.1-0.8-0.2-1.2-0.3
		c-0.2,0.2-0.5,0.3-0.6,0.5c-0.7,1.4-1.4,2.8-2.1,4.2c-0.3,0.6-0.5,1.2-0.8,1.9c0.9,0.2,1.6,0.3,2.2,0.4c0,0.3,0,0.6,0,1
		c-0.8-0.2-1.7-0.3-2.7-0.5c0,0.4,0,0.9,0.1,1.3c-0.8,0.4-1.5,0.5-2.3-0.1c0.5-0.5,1-1.1,1.5-1.6c-0.5-0.4-0.8-0.7-1.2-1
		c0.2-0.1,0.4-0.3,0.6-0.4c0.3,0.1,0.6,0.2,1.1,0.3c0.7-1.7,1.4-3.2,2.1-4.8c0,0,0,0,0,0c0.1-0.2,0.2-0.4,0.3-0.6
		c0.2-0.4,1-0.8,0.1-1.2c-0.1-0.4-0.3-0.8-0.4-1.2c0-0.3,0-0.6,0-1c0.1-0.4,0.2-0.8,0.4-1.2c0.1-0.2,0.2-0.3,0.3-0.5
		c0.4-0.1,0.8-0.3,1.2-0.4c0.3,0,0.6,0,1,0c0.4,0.1,0.8,0.2,1.2,0.4c0.2,0.1,0.3,0.2,0.5,0.3c0.1,0.4,0.3,0.8,0.4,1.2
		c0,0.3,0,0.6,0,0.9c-0.1,0.4-0.2,0.8-0.4,1.2c-0.3,0.2-0.9,0.4-0.4,0.9c0.1,0.1,0.3,0.2,0.4,0.3l0,0c0.4,2.1,1.7,3.9,2.5,5.8
		c0.4-0.1,0.7-0.2,1-0.3C20,22.5,20.2,22.6,20.4,22.7z M14,12.6c-0.9,0-1.4,0.6-1.4,1.5c0,1,0.7,1.7,1.6,1.6
		c0.8-0.1,1.4-0.7,1.4-1.5C15.7,13.2,15,12.5,14,12.6z"/>
	<path class="st1" d="M5.6,7.9c0-2,0.4-2.4,2.4-2.4c0.2,0.1,0.4,0.3,0.6,0.4C8.8,6.6,9,7.4,8.5,8.2C8.2,8.4,7.9,8.6,7.6,8.8
		C7.1,8.7,6.5,8.6,5.9,8.5C5.8,8.3,5.7,8.1,5.6,7.9z"/>
	<path class="st1" d="M20.4,5.5c2,0,2.4,0.4,2.4,2.4c-0.1,0.2-0.3,0.4-0.4,0.6c-0.8,0.2-1.5,0.4-2.3-0.1c-0.2-0.3-0.4-0.6-0.6-0.9
		c0.1-0.6,0.2-1.1,0.3-1.7C20,5.7,20.2,5.6,20.4,5.5z"/>
	<path class="st1" d="M8.6,22.3c-0.2,0.1-0.4,0.3-0.6,0.4c-2,0-2.4-0.4-2.4-2.4c0.1-0.2,0.3-0.4,0.4-0.6c0.8-0.2,1.5-0.4,2.3,0.1
		c0.2,0.3,0.4,0.6,0.6,0.9C8.8,21.2,8.7,21.8,8.6,22.3z"/>
	<path class="st1" d="M20.4,22.7c-0.2-0.1-0.4-0.3-0.6-0.4c-0.1-0.8-0.5-1.5,0.1-2.3c0.3-0.2,0.6-0.4,0.9-0.6c0.5,0.1,1,0.2,1.5,0.3
		c0.2,0.2,0.4,0.4,0.6,0.6C22.8,22.3,22.3,22.7,20.4,22.7z"/>
	<path class="st1" d="M12.6,3.6c1.3-1.3,1.9-1.3,3.2,0c0,0.3,0,0.6,0,1c-0.2,0.9-0.8,1.2-1.6,1.4c-0.2,0-0.5-0.1-0.7-0.1
		c-0.3-0.4-0.6-0.9-1-1.3C12.6,4.2,12.6,3.9,12.6,3.6z"/>
	<path class="st1" d="M12.6,24.6c0-0.3,0-0.6,0-1c0.2-0.9,0.8-1.2,1.6-1.4c0.2,0,0.5,0.1,0.7,0.1c0.3,0.4,0.6,0.9,1,1.3
		c0,0.3,0,0.6,0,1C14.5,26,13.9,26,12.6,24.6z"/>
	<path class="st1" d="M24.7,12.5c1.3,1.3,1.3,1.9,0,3.2c-0.3,0-0.6,0-1,0c-0.9-0.2-1.2-0.8-1.4-1.6c0-0.2,0.1-0.5,0.1-0.7
		c0.4-0.3,0.9-0.6,1.3-1C24.1,12.5,24.4,12.5,24.7,12.5z"/>
	<path class="st1" d="M3.6,15.7c-1.3-1.3-1.3-1.9,0-3.2c0.3,0,0.6,0,1,0c0.9,0.2,1.2,0.8,1.4,1.6c0,0.2-0.1,0.5-0.1,0.7
		c-0.4,0.3-0.9,0.6-1.3,1C4.3,15.7,4,15.7,3.6,15.7z"/>
	<path class="st0" d="M23.8,15.7c0.3,0,0.6,0,1,0c-0.2,1.7-0.7,3.3-1.9,4.6c-0.2-0.2-0.4-0.4-0.6-0.6C23,18.5,23.8,17.3,23.8,15.7z"
		/>
	<path class="st0" d="M12.6,3.6c0,0.3,0,0.6,0,1c-1.3,0.4-2.7,0.9-4,1.3C8.4,5.7,8.2,5.6,8,5.5C9.3,4.3,10.9,3.7,12.6,3.6z"/>
	<path class="st0" d="M15.8,4.5c0-0.3,0-0.6,0-1c1.8,0.2,3.3,0.7,4.6,1.9c-0.2,0.1-0.4,0.3-0.6,0.4C18.4,5.4,17.1,5,15.8,4.5z"/>
	<path class="st0" d="M4.6,12.5c-0.3,0-0.6,0-1,0c0.2-1.7,0.7-3.3,1.9-4.6c0.1,0.2,0.3,0.4,0.4,0.6C5.5,9.8,5,11.2,4.6,12.5z"/>
	<path class="st0" d="M24.7,12.5c-0.3,0-0.6,0-1,0c-0.4-1.3-0.9-2.7-1.3-4c0.1-0.2,0.3-0.4,0.4-0.6C24,9.2,24.5,10.8,24.7,12.5z"/>
	<path class="st0" d="M3.6,15.7c0.3,0,0.6,0,1,0c0.4,1.3,0.9,2.7,1.3,4c-0.1,0.2-0.3,0.4-0.4,0.6C4.4,19,3.8,17.4,3.6,15.7z"/>
	<path class="st2" d="M14,12.6c1,0,1.7,0.7,1.7,1.6c0,0.8-0.7,1.5-1.4,1.5c-0.9,0.1-1.6-0.7-1.6-1.6C12.6,13.1,13.2,12.6,14,12.6z"
		/>
	<path class="st2" d="M22.4,14.2c-1.9,0.1-3.8,0.2-5.7,0.3c0-0.3,0-0.6,0-0.9c1.9,0,3.9,0,5.8,0C22.4,13.7,22.4,13.9,22.4,14.2z"/>
	<path class="st2" d="M11.7,17.8c-0.3,0.1-0.7,0.2-0.9,0.4c-0.7,0.8-1.3,1.6-2,2.4c-0.2-0.3-0.4-0.6-0.6-0.9
		c0.8-0.8,1.5-1.6,2.3-2.4c0.5-0.5,1-0.9,1.6-1.4c1,0.5,0.1,0.8-0.1,1.2C11.9,17.4,11.8,17.6,11.7,17.8L11.7,17.8z"/>
	<path class="st2" d="M14.2,5.9c0.1,1.9,0.2,3.8,0.3,5.7c-0.3,0-0.6,0-1,0c0-1.9,0-3.9,0-5.8C13.8,5.9,14,5.9,14.2,5.9z"/>
	<path class="st2" d="M6,14.1c1.9-0.1,3.8-0.2,5.7-0.3c0,0.3,0,0.6,0,1c-1.9,0-3.9,0-5.8,0C5.9,14.5,6,14.3,6,14.1z"/>
	<path class="st2" d="M19.8,20c-1.2-1.1-2.3-2.1-3.5-3.2l0,0c-0.1-0.1-0.3-0.2-0.4-0.3c-0.5-0.6,0.1-0.7,0.4-0.9
		c1.5,1.3,2.9,2.5,4.4,3.8C20.4,19.6,20.1,19.8,19.8,20z"/>
	<path class="st2" d="M15.7,12c1.3-1.5,2.5-2.9,3.8-4.4c0.2,0.3,0.4,0.6,0.6,0.9c-0.8,0.8-1.5,1.6-2.3,2.4c-0.5,0.5-1,0.9-1.6,1.4
		C16.1,12.2,15.9,12.1,15.7,12z"/>
	<path class="st2" d="M15.1,16.9c-0.1,0.3-0.3,0.6-0.3,0.9c0,1.5,0,3,0,4.5c-0.2,0-0.5-0.1-0.7-0.1c-0.1-1.9-0.2-3.8-0.3-5.7
		C14.2,16.7,14.7,16.8,15.1,16.9z"/>
	<path class="st2" d="M12,12.6c-1.5-1.3-2.9-2.5-4.4-3.8c0.3-0.2,0.6-0.4,0.9-0.6c0.8,0.8,1.6,1.5,2.4,2.3c0.5,0.5,0.9,1,1.4,1.6
		C12.2,12.2,12.1,12.4,12,12.6z"/>
	<path class="st3" d="M11.7,17.8c0.1-0.2,0.2-0.4,0.3-0.6C11.9,17.4,11.8,17.6,11.7,17.8z"/>
	<path class="st3" d="M15.9,16.6c0.1,0.1,0.3,0.2,0.4,0.3C16.2,16.8,16.1,16.7,15.9,16.6z"/>
</g>
</svg>
