<?xml version="1.0" encoding="utf-8"?>
<!-- Generator: Adobe Illustrator 21.0.0, SVG Export Plug-In . SVG Version: 6.00 Build 0)  -->
<svg version="1.1" id="Layer_1" xmlns="http://www.w3.org/2000/svg" xmlns:xlink="http://www.w3.org/1999/xlink" x="0px" y="0px"
	 viewBox="0 0 96.4 130.4" style="enable-background:new 0 0 96.4 130.4;" xml:space="preserve">
<style type="text/css">
	.st0{fill:#325C67;}
	.st1{fill:#FFFFFF;}
	.st2{fill:#B5D5DC;}
</style>
<g>
	<path class="st0" d="M48.2,1.7C22.5,1.7,1.7,22.5,1.7,48.2c0,27.5,46.5,80.5,46.5,80.5s46.5-51,46.5-80.5
		C94.7,22.5,73.9,1.7,48.2,1.7z M48.2,74.9c-15.8,0-28.6-12.8-28.6-28.6c0-15.8,12.8-28.6,28.6-28.6c15.8,0,28.6,12.8,28.6,28.6
		C76.8,62.1,64,74.9,48.2,74.9z"/>
	<circle class="st0" cx="46.9" cy="46.2" r="31.9"/>
</g>
<path class="st1" d="M33.6,23.7c0.5,0,1,0,1.4,0c0.3,1.9,0.5,3.9,0.9,6.1c1.5,0.3,2,1.5,1.9,3.3c-0.1,2,0,4,0,5.6
	c6.1,7.7,16.5,7.2,21.7-0.1c0-1.7,0.1-3.6,0-5.4c-0.1-1.8,0.4-3,1.9-3.3c0.3-2.2,0.6-4.2,0.9-6.1c0.5,0,1,0,1.4,0
	c0.3,1.9,0.5,3.8,0.9,6.1c1.6,0.4,2,1.7,1.9,3.6c-0.1,1.9,0,3.7,0,5.7c1.6,1.3,3.1,2.6,4.6,3.9c-0.2,0.5-0.3,1-0.6,2
	c-1.5-1-2.7-1.8-4.2-2.8c0,5.6,0,11,0,16.4c1.6,0.1,3.1,0.2,4.7,0.3c-0.1,0.8-0.1,1.3-0.2,1.9c-0.7,0.1-1.4,0.1-2,0.2
	c-0.3,2.1-0.3,2.1-1.5,3.3c-2.1-0.3-0.6-2.5-1.6-3.3c-2,0-3.7,0-5.6,0c-0.2,1.3,0.2,2.9-1.9,3.3c-0.4-1.1-0.8-2.2-1.1-3.3
	c-5.7,0-11.2,0-16.8,0c-0.5,1.2,0.2,2.9-2.1,3.2c-0.4-1.1-0.8-2.2-1.2-3.3c-1.8,0-3.5,0-5.3,0c-0.5,1.2,0.2,2.9-2.1,3.3
	c-0.4-1.1-0.8-2.2-1.2-3.4c-0.6,0-1.1-0.1-1.7-0.1c0-0.6,0-1.3,0-1.9c1.8-0.1,3.2-0.2,4.6-0.3c0-5.6,0-10.8,0-16.1
	c-1.8,0.2-2.4,2.6-4.6,1.9c-0.1-0.4-0.1-0.8-0.2-1.2c3.4-2,5.4-4.7,4.6-8.9c0-0.2,0-0.5,0-0.7c-0.3-1.8,0.2-3.2,1.9-3.6
	C33.1,27.5,33.4,25.6,33.6,23.7z M56.6,44.5c0,3.6,0,7.1,0,10.5c0,0.5-0.5,1-0.8,1.6c-0.2,0-0.5-0.1-0.7-0.1
	c-0.1-3.5-0.2-7-0.2-10.9c-1.9,0.4-3.6,0.8-5.4,1.1c0,1.9,0.2,3.5,0,5.2c-0.2,1.5,1,3.4-1.2,4.8c-0.8-3.4-0.1-6.6-0.6-10
	c-1.6-0.3-3.3-0.7-5.3-1.1c0,2.2,0.1,3.9,0,5.7c-0.1,1.7,0.5,3.6-0.6,5.4c-0.5-0.3-0.8-0.5-0.8-0.6c0-3.8,0-7.6,0-11.5
	c-0.8-0.7-1.5-1.3-2.3-1.9c-0.3-0.2-0.6-0.2-1-0.3c-0.5,3.9-0.4,13.8,0.1,16.2c7.3,0,14.7,0,22,0c0-5.5,0-10.8,0-16.7
	C58.5,42.9,57.5,43.7,56.6,44.5z M33.2,32.3c0,8.9,0,17.5,0,26.3c0.9-0.1,1.7-0.1,2.4-0.2c0-8.8,0-17.4,0-26.1
	C34.7,32.3,34,32.3,33.2,32.3z M61.6,58.7c1.1-0.1,1.8-0.2,2.4-0.3c0-8.8,0-17.4,0-26.2c-1,0.1-1.7,0.2-2.4,0.3
	C61.6,41.2,61.6,49.7,61.6,58.7z"/>
<path class="st2" d="M67.1,68.7c-1.1,0-2.2,0-3.2,0c-2.7-0.7-2.7-0.7-5.5,0c-1.1,0-2.2,0-3.3,0c-1.6-0.6-3.2-0.6-4.7,0
	c-1.1,0-2.2,0-3.2,0c-1.6-0.3-3.2-1.4-4.8,0c-1.9-0.1-3.7,0.2-5.6-0.6c-0.8-0.3-2.1,0.4-3.2,0.6c-1.1,0-2.2,0-3.2,0
	c-3.2-1.2-3.2-1.2-2.7-3.7c2.7,1.7,5.4,2.7,8,0.2c1.5,0.5,3,1.3,4.4,1.3c1.4,0,2.9-0.8,4.5-1.2c3.9,1.9,3.9,1.9,8.1-0.2
	c2.7,2.1,5.5,2.2,8.3-0.2c2.9,2.1,5.9,2.5,8.8,0C70.3,67.5,70.3,67.5,67.1,68.7z"/>
</svg>
