<?xml version="1.0" encoding="utf-8"?>
<!-- Generator: Adobe Illustrator 21.0.0, SVG Export Plug-In . SVG Version: 6.00 Build 0)  -->
<svg version="1.1" id="Layer_1" xmlns="http://www.w3.org/2000/svg" xmlns:xlink="http://www.w3.org/1999/xlink" x="0px" y="0px"
	 viewBox="0 0 96.4 130.4" style="enable-background:new 0 0 96.4 130.4;" xml:space="preserve">
<style type="text/css">
	.st0{fill:#939AA0;stroke:#FFFFFF;stroke-miterlimit:10;}
	.st1{fill:#939AA0;}
	.st2{fill:#FFFFFF;}
</style>
<g>
	<path class="st0" d="M48.2,1.7C22.5,1.7,1.7,22.5,1.7,48.2c0,27.5,46.5,80.5,46.5,80.5s46.5-51,46.5-80.5
		C94.7,22.5,73.9,1.7,48.2,1.7z M48.2,74.9c-15.8,0-28.6-12.8-28.6-28.6s12.8-28.6,28.6-28.6s28.6,12.8,28.6,28.6S64,74.9,48.2,74.9
		z"/>
	<circle class="st1" cx="46.9" cy="46.2" r="31.9"/>
</g>
<g>
	<path class="st2" d="M41.6,72.2c-6.5,0-12.6,0-19,0c0-5.7,0-11.5,0-17.1c-4.7-2.9-1.9-7-2.8-10.6c2.7,0,5,0,7.4,0
		c0.2,0.8,0.5,1.6,0.7,2.4c0.2,0,0.3,0,0.5,0c0.2-0.7,0.4-1.5,0.6-2.4c2.3,0,4.6,0,7,0c0.2,0.7,0.5,1.5,0.7,2.4
		c0.4-0.2,0.7-0.3,0.7-0.4c0.1-1.6,0.2-3.2,0.2-4.7c0-0.4-0.3-1.1-0.6-1.2c-1.8-0.8-1.9-2.4-1.9-4c0-1.9,0-3.8,0-5.6
		c0.3-0.2,0.5-0.5,0.6-0.5c3.6,0.6,5.6-1.2,7.3-4.2c1.2-2.1,2.8-4,4.2-6c0.1-0.2,0.3-0.3,0.8-0.8c2.6,3.6,5.1,7.2,7.7,10.8
		c1.5,0,3,0,4.9,0c0,2.7,0.2,5.3-0.1,7.9c-0.1,0.9-1.2,1.8-2.2,3.2c0,1.3,0,3.3,0,5.4c0.2,0,0.4,0.1,0.5,0.1
		c0.3-0.8,0.6-1.6,0.9-2.4c2.3,0,4.6,0,7,0c0.2,0.8,0.4,1.6,0.8,3.1c0.5-1.5,0.8-2.2,1.2-3.1c2.3,0,4.6,0,7.2,0
		c0,2.6,0.2,5.1-0.1,7.6c-0.1,1-1.2,2-2.4,2.7c0,5.7,0,11.4,0,17.4c-6.4,0-12.5,0-19.2,0c0-1.6,0-3.3,0-4.9c0-1.1,0.1-2.1-0.1-3.2
		c-0.4-3.3-3-5.6-6.2-5.7c-3.3,0-6.1,2.4-6.4,5.8C41.4,66.8,41.6,69.4,41.6,72.2z M37.9,37.7c6.9,0,13.5,0,20.1,0c0-1.7,0-3.1,0-4.7
		c-0.8,0-1.5,0-2.2,0c-0.2,0.8-0.3,1.5-0.5,2.3c-2,0-3.9,0-5.8,0c-0.2-0.9-0.4-1.6-0.6-2.3c-0.8,0-1.4,0-2.1,0
		c-0.2,0.8-0.3,1.5-0.4,2.3c-2,0-3.9,0-5.9,0c-0.2-0.8-0.4-1.6-0.6-2.3c-0.8,0-1.4,0-2.1,0C37.9,34.5,37.9,36,37.9,37.7z M33.7,47
		c-0.9,0-1.5,0-2,0c-0.3,0.9-0.5,1.6-0.7,2.3c-2,0-3.8,0-5.7,0c-0.2-0.8-0.4-1.6-0.6-2.3c-0.8,0-1.4,0-2.1,0c0,1.7,0,3.2,0,4.7
		c6.8,0,13.4,0,20.1,0c0-1.7,0-3.1,0-4.5c-2.5-1.3-2.4,0.6-2.5,2.1c-2.1,0-4,0-6,0C34,48.5,33.9,47.8,33.7,47z M62.2,47.1
		c-0.2,0.8-0.3,1.5-0.5,2.2c-2.1,0-3.9,0-6,0c0-1.7-0.3-3.2-2.4-2.1c0,1.6,0,3.1,0,4.7c6.8,0,13.3,0,20,0c0-1.7,0-3.2,0-4.7
		c-2.5-1.1-2.3,1-2.6,2.1c-2.1,0-4,0-6,0C64.5,47.7,64.5,46.1,62.2,47.1z M32.5,63.3c0-1.5,0.1-2.8-0.1-4c0-0.3-0.7-0.8-1.1-0.8
		s-1.1,0.5-1.1,0.8c-0.1,1.3-0.1,2.6-0.1,4C31.1,63.3,31.6,63.3,32.5,63.3z M64.5,63.3c0-1.1,0.2-2.1,0-3c-0.2-0.7-0.7-1.3-1.1-1.9
		c-0.4,0.6-1.1,1.1-1.3,1.7c-0.2,1-0.1,2-0.1,3.1C62.9,63.3,63.5,63.3,64.5,63.3z"/>
</g>
</svg>
