<?xml version="1.0" encoding="utf-8"?>
<!-- Generator: Adobe Illustrator 21.0.0, SVG Export Plug-In . SVG Version: 6.00 Build 0)  -->
<svg version="1.1" id="Layer_1" xmlns="http://www.w3.org/2000/svg" xmlns:xlink="http://www.w3.org/1999/xlink" x="0px" y="0px"
	 viewBox="0 0 96.4 130.4" style="enable-background:new 0 0 96.4 130.4;" xml:space="preserve">
<style type="text/css">
	.st0{fill:#83B6C9;stroke:#FFFFFF;stroke-miterlimit:10;}
	.st1{fill:#83B6C9;}
	.st2{fill:#FFFFFF;}
</style>
<g>
	<path class="st0" d="M48.2,1.7C22.5,1.7,1.7,22.5,1.7,48.2c0,27.5,46.5,80.5,46.5,80.5s46.5-51,46.5-80.5
		C94.7,22.5,73.9,1.7,48.2,1.7z M48.2,74.9c-15.8,0-28.6-12.8-28.6-28.6s12.8-28.6,28.6-28.6s28.6,12.8,28.6,28.6S64,74.9,48.2,74.9
		z"/>
	<circle class="st1" cx="46.9" cy="46.2" r="31.9"/>
</g>
<g>
	<path class="st2" d="M68.7,71.1c-4.6,0-9.2,0-13.7,0c0-1,0.1-2.1-0.1-3.1c-0.4-3.5-3.3-6-6.8-6s-6.4,2.5-6.8,6
		c-0.1,1-0.1,2.1-0.1,3.1c-4.6,0-9.2,0-13.7,0c0-3.9,0-7.8,0-11.7c-2.1-0.6-2.4-2.4-3.3-4.1c4.2-2.4,8.4-4.7,12.5-6.9
		c0-1.8,0.1-3.3,0-4.8s0.4-2.7,1.5-3.7c2.2-2,4.3-4,6.4-6.1c0.5-0.5,1.1-1.2,1.2-1.8c0.1-2.1,0.1-4.3,0.1-6.5
		c-1.7-0.1-3.1-0.2-4.4-0.3c0-1.6,0-2.9,0-4.3c1.5-0.1,2.9-0.2,4.4-0.3c0-1.6,0-3,0-4.4c1.5,0,3.1,0,4.6,0c0,1.5,0,3,0,4.7
		c1.8,0,3.1,0,4.4,0c0,1.6,0,2.9,0,4.3c-1.5,0.1-2.9,0.2-4.4,0.3c0,1.8,0.1,3.4,0,5c-0.1,1.4,0.3,2.5,1.4,3.5
		c1.9,1.7,3.6,3.7,5.6,5.3c1.7,1.4,2.6,3,2.1,5.2c-0.4,2.3,0.7,3.4,2.5,4.5c3.4,2,6.7,4.3,10.1,6.5c-1,1.6-1.5,3.4-3.4,4
		C68.7,63.3,68.7,67.2,68.7,71.1z M48,43.5c-2.7,0-4.6,2-4.6,4.7s2,4.7,4.7,4.7c2.8,0,4.8-2.1,4.7-4.9C52.7,45.3,50.8,43.4,48,43.5z
		"/>
</g>
</svg>
