<?xml version="1.0" encoding="utf-8"?>
<!-- Generator: Adobe Illustrator 21.0.0, SVG Export Plug-In . SVG Version: 6.00 Build 0)  -->
<svg version="1.1" id="Layer_1" xmlns="http://www.w3.org/2000/svg" xmlns:xlink="http://www.w3.org/1999/xlink" x="0px" y="0px"
	 viewBox="0 0 96.4 130.4" style="enable-background:new 0 0 96.4 130.4;" xml:space="preserve">
<style type="text/css">
	.st0{fill:#FFFFFF;}
	.st1{fill:#93824D;stroke:#93824D;stroke-width:1.134;stroke-miterlimit:2.613;}
	.st2{fill:#93824D;}
</style>
<path d="M48.2,2C22.5,2,1.7,22.8,1.7,48.5C1.7,76,48.2,129,48.2,129s46.5-51,46.5-80.5C94.7,22.8,73.9,2,48.2,2z M48.2,75.2
	c-15.8,0-28.6-12.8-28.6-28.6C19.6,30.8,32.4,18,48.2,18C64,18,76.8,30.8,76.8,46.6C76.8,62.4,64,75.2,48.2,75.2z"/>
<path d="M19.6,17.7h58.3V75H19.6V17.7z"/>
<path class="st0" d="M33.3,61.6h0.8c0.7,0,1.1,0.3,1.1,1c0,0.7-0.4,1-1.1,1h-0.8V61.6z M34,61.2h-1.5v0.1c0.1,0,0.1,0.1,0.1,0.2v2.5
	c0,0.1,0,0.1-0.1,0.2v0.1H34c0.6,0,1,0,1.4-0.3c0.3-0.3,0.5-0.7,0.5-1.2c0-0.5-0.2-0.9-0.5-1.2C35,61.2,34.6,61.2,34,61.2L34,61.2z
	 M38.8,61.7c0.6,0,0.8,0.1,0.8,0.4c0,0.3-0.3,0.4-0.8,0.4h-1v-0.8H38.8L38.8,61.7z M37,64.2h1v-0.1c-0.1,0-0.1-0.1-0.1-0.2v-1h0.8
	l0.7,0.9c0,0.1,0.1,0.1,0.1,0.1c0,0.1,0,0.1-0.1,0.1v0.1h1.2v-0.1c-0.2-0.1-0.3-0.1-0.4-0.3l-0.6-0.9c0.6-0.1,0.8-0.4,0.8-0.9
	c0-0.5-0.4-0.9-1.3-0.9h-2v0.1c0.1,0,0.1,0.1,0.1,0.2v2.5C37.2,64,37.1,64.1,37,64.2L37,64.2L37,64.2z M42.8,61.9l0.5,1.1h-1
	L42.8,61.9z M41,64.2h1v-0.1c-0.1,0-0.1-0.1-0.1-0.1c0,0,0-0.1,0-0.1l0.2-0.5h1.4l0.2,0.5c0,0,0,0.1,0,0.1c0,0.1,0,0.1-0.1,0.1v0.1
	h1.1v-0.1c-0.1,0-0.2-0.1-0.3-0.3l-1.2-2.3c0,0,0-0.1,0-0.1c0-0.1,0-0.1,0.1-0.1v-0.1h-1.1v0.1c0.1,0,0.2,0.1,0.2,0.1
	c0,0,0,0.1,0,0.1l-1.2,2.3C41.2,63.9,41.2,64,41,64.2L41,64.2L41,64.2L41,64.2z M47.3,63.7c0.7,0,0.9-0.3,0.9-0.8l0-1.5
	c0-0.1,0-0.1-0.1-0.2v-0.1h1v0.1c-0.1,0-0.1,0.1-0.1,0.2V63c0,0.9-0.4,1.2-1.6,1.2c-1.1,0-1.6-0.3-1.6-1.2v-1.6c0-0.1,0-0.1-0.1-0.2
	v-0.1h1v0.1c-0.1,0-0.1,0.1-0.1,0.2V63C46.4,63.5,46.6,63.7,47.3,63.7L47.3,63.7z M53.8,63.7L53.8,63.7c-0.6,0.4-1.3,0.6-1.8,0.6
	c-1.1,0-1.8-0.7-1.8-1.6c0-0.9,0.7-1.6,1.9-1.6c0.7,0,1.1,0.2,1.3,0.2c0,0,0.1,0,0.2,0l0.1,0l-0.4,0.7l-0.1,0c0,0,0,0,0,0
	c0-0.1-0.5-0.4-1.1-0.4c-0.7,0-1.2,0.4-1.2,1.1c0,0.5,0.5,1,1.3,1c0.3,0,0.6-0.1,0.9-0.2v-0.4h-0.8c-0.1,0-0.1,0-0.2,0.1H52v-0.7
	h0.1c0,0.1,0.1,0.1,0.2,0.1h1.5v0.1c-0.1,0-0.1,0.1-0.1,0.2v0.6C53.6,63.6,53.6,63.6,53.8,63.7L53.8,63.7z M55.9,64.1L55.9,64.1
	l-1,0.1v-0.1c0.1,0,0.1-0.1,0.1-0.2v-2.5c0-0.1,0-0.1-0.1-0.2v-0.1h1v0.1c-0.1,0-0.1,0.1-0.1,0.2v0.9h1.8v-0.9c0-0.1,0-0.1-0.1-0.2
	v-0.1h1v0.1c-0.1,0-0.1,0.1-0.1,0.2v2.5c0,0.1,0,0.1,0.1,0.2v0.1h-1v-0.1c0.1,0,0.1-0.1,0.1-0.2v-1h-1.8v1
	C55.7,64,55.8,64.1,55.9,64.1z M59.5,61.8L59.5,61.8L59.5,61h0.1c0,0.1,0.1,0.1,0.2,0.1h2.6c0.1,0,0.1,0,0.2-0.1h0.1v0.8h-0.1
	c0-0.1-0.1-0.1-0.2-0.1h-1v2.2c0,0.1,0,0.1,0.1,0.2v0.1h-1v-0.1c0.1,0,0.1-0.1,0.1-0.2v-2.2h-1C59.6,61.7,59.6,61.7,59.5,61.8
	L59.5,61.8z"/>
<path class="st1" d="M29.3,63.3l-13.6-0.7l13.6,0L29.3,63.3z M65.3,62.6l13.3,0l-13.3,0.6L65.3,62.6z M41.1,39.7l-25.4,0l25.2-0.7
	L41.1,39.7L41.1,39.7z M55,39.1l23.6,0.6l-23.9,0L55,39.1L55,39.1z"/>
<path class="st2" d="M38.3,34.4c-0.1,0-0.2,0.1-0.2,0.1c0,0-0.1,0-0.1,0c0-0.1,0.1-0.1,0.4-0.2c0.3-0.1,0.3-0.3,0.4-0.3
	c0,0,0,0,0,0.1c0,0.1,0,0.2,0,0.5v1.7c0,0.2,0,0.3,0.1,0.4c0.1,0.1,0.3,0,0.3,0.1c0,0,0,0.1-0.1,0.1c0,0-0.2,0-0.5,0
	c-0.2,0-0.3,0-0.4,0c-0.1,0-0.1,0-0.1,0c0-0.1,0.1-0.1,0.2-0.1c0.2,0,0.2-0.2,0.2-0.4v-1.5C38.4,34.5,38.4,34.4,38.3,34.4L38.3,34.4
	z M40.3,34c0.3,0,0.4,0,0.4,0c0.1,0,0.1,0,0.1,0.1c0,0.2-0.1,0.4-0.2,0.8c-0.2,0.6-0.4,1.1-0.4,1.5c0,0.3,0.1,0.4,0.1,0.5
	c0,0-0.1,0.1-0.3,0.1c-0.1,0-0.2-0.1-0.2-0.3c0-0.4,0.2-0.8,0.4-1.2c0.3-0.6,0.5-0.9,0.5-1c0-0.1,0-0.1-0.1-0.1h-0.7
	c-0.2,0-0.3,0-0.3,0.1c-0.1,0.1,0,0.2-0.1,0.2c0,0-0.1,0-0.1-0.1c0-0.1,0-0.3,0.1-0.5c0-0.1,0.1-0.1,0.1-0.1c0,0,0.2,0,0.5,0H40.3z
	 M54.4,34.2c0-0.1,0-0.1,0.2-0.1h0.6c0.1,0,0.2,0,0.2,0c0.1,0,0.1-0.1,0.1-0.1c0,0,0,0,0,0c0,0,0,0.1,0,0.1l-0.1,0.3
	c0,0.1-0.1,0.1-0.2,0.1h-0.6c-0.1,0-0.1,0-0.2,0.2l-0.1,0.4c0,0,0,0,0,0.1c0,0,0,0,0,0c0,0,0.1,0,0.3,0c0.5,0,0.8,0.3,0.8,0.8
	c0,0.3-0.1,0.5-0.3,0.7c-0.2,0.2-0.5,0.3-0.8,0.3c-0.3,0-0.5-0.1-0.5-0.2c0,0,0-0.1,0.1-0.1c0.1,0,0.2,0.1,0.4,0.1
	c0.4,0,0.7-0.3,0.7-0.8c0-0.3-0.2-0.6-0.6-0.6c-0.1,0-0.3,0-0.3,0c-0.1,0-0.1,0-0.1-0.1c0,0,0-0.1,0-0.1L54.4,34.2L54.4,34.2z
	 M56.7,34.1c0.3,0,0.6,0.3,0.6,0.8c0,0.4-0.2,0.6-0.5,0.6c-0.3,0-0.6-0.3-0.6-0.8C56.2,34.3,56.4,34.1,56.7,34.1L56.7,34.1z
	 M57.2,35.5c-0.1,0.4-0.3,0.8-0.7,1c-0.3,0.2-0.5,0.2-0.5,0.3c0,0,0,0,0.1,0c0.2,0,0.5-0.1,0.8-0.3c0.5-0.4,0.7-0.9,0.7-1.4
	c0-0.6-0.4-1.1-0.9-1.1c-0.5,0-0.9,0.4-0.9,1c0,0.5,0.3,0.8,0.7,0.8C56.8,35.7,57,35.7,57.2,35.5L57.2,35.5z M42.8,29
	c0,0.2-0.2,0.4-0.4,0.4c-0.2,0-0.4-0.2-0.4-0.4c0,0,0,0,0,0c0-0.2,0.2-0.4,0.4-0.4C42.6,28.6,42.8,28.8,42.8,29z"/>
<path class="st2" d="M52.4,28.8L52.4,28.8c0.1,0,0.3-0.2,0.3-0.2c0.4-0.2,0.2-0.4,0.2-0.4s-0.3-1.2-0.4-1.6
	c-0.1-0.3-0.2-0.2-0.4-0.1c-0.6,0.5-1.7,1.1-3.4,0.9v0c-1.8-0.1-2.7-1-4.1-1.2c-1.2-0.2-3.1,0.3-3.1,1.1c0,0.1,0.2,0.7,0.2,0.9
	c-0.1,0.1-0.5,0.3-0.5,0.9c0,0.8,0.7,1,0.7,1l3.9,11.6c0.1,0.1,0.4,0.3,0.6,0.2c0.2-0.1,0.3-0.2,0.5-0.3c3-2.1,4.9-5.8,4.9-9.6
	c0-1.5-0.3-2.4-0.3-2.4c0.1-0.1,0.3-0.2,0.4-0.2c0,0,0.5,1.4,0.3,3.9c-0.4,3.5-2.2,6.6-5,8.4c0,0,0,0.2,0.5-0.1
	c3.1-1.9,4.9-5,5.2-8.5c0-0.5,0.1-1.1,0-1.6C52.8,30.4,52.5,29.1,52.4,28.8L52.4,28.8z M43.6,27.6c0.3-0.3,1.1,0.1,1.1,0.1L44,29.2
	C44,29.2,43.3,27.9,43.6,27.6L43.6,27.6z M46.7,34.7L46.3,34l2-4.5c0.2,0.1,0.4,0.1,0.6,0.2L46.7,34.7z M49.6,29.7
	c0.1,0,0.2,0,0.4,0c0.1,0,0.2,0,0.3,0L47.4,36L47,35.2L49.6,29.7z M46,33.4l-0.4-0.8l1.6-3.5c0.2,0.1,0.4,0.2,0.6,0.3L46,33.4
	L46,33.4z M45.4,32L45,31.2l1.2-2.7c0.2,0.1,0.4,0.2,0.6,0.3L45.4,32L45.4,32z M44.6,30.6l-0.4-0.8l0.9-1.8c0.2,0,0.4,0.2,0.6,0.3
	L44.6,30.6L44.6,30.6z M46.9,40.2c0,0-3.9-10.7-4-10.7s-0.2,0.3-0.7,0.3c-0.4,0-0.7-0.3-0.7-0.7s0.4-0.8,0.8-0.8
	c0.2,0,0.6,0,0.9,0.5c0.1,0.2,3.9,10.4,3.9,10.4s0.8-0.7,1.2-1.2l-0.6-1.1l3.1-7.1C50.9,29.7,52.1,35.9,46.9,40.2z M49.5,28.8
	c-1.6,0-3-0.7-3.9-1.3c-0.5-0.3-0.8-0.5-1-0.5c0,0-0.1,0-0.1,0c0,0,0,0,0,0c0,0,0,0,0,0c0.1-0.1,0.2-0.1,0.3-0.1
	c0.3,0,0.6,0.2,1.1,0.5c0.9,0.5,2.2,1,3.6,1.1c1.4,0,2.7-0.8,2.7-0.8l0,0l0,0c0,0,0.1,0.2,0.1,0.3C52.3,28.1,50.7,28.8,49.5,28.8z"
	/>
<path class="st0" d="M81.1,58.4c0.2,0,0.4,0.1,0.5,0.2c0.1,0.1,0.2,0.3,0.2,0.5c0,0.2-0.1,0.4-0.2,0.5c-0.1,0.1-0.3,0.2-0.5,0.2
	c-0.2,0-0.4-0.1-0.5-0.2c-0.1-0.1-0.2-0.3-0.2-0.5c0-0.2,0.1-0.4,0.2-0.5C80.7,58.5,80.9,58.4,81.1,58.4L81.1,58.4z M81.1,58.3
	c-0.3,0-0.6,0.1-0.7,0.4c-0.2,0.3-0.1,0.7,0.1,1c0.2,0.2,0.4,0.3,0.6,0.3c0.2,0,0.4-0.1,0.6-0.2c0.2-0.2,0.2-0.4,0.2-0.6
	C81.9,58.6,81.6,58.3,81.1,58.3C81.1,58.3,81.1,58.3,81.1,58.3L81.1,58.3z M80.8,58.6v0.9H81v-0.4h0.1l0.2,0.4h0.2l-0.2-0.4
	c0.1,0,0.2-0.1,0.2-0.2c0-0.2-0.1-0.3-0.4-0.3L80.8,58.6L80.8,58.6L80.8,58.6z M81,58.8L81,58.8c0.2,0,0.3,0,0.3,0.1
	c0,0.1-0.1,0.1-0.2,0.1H81V58.8L81,58.8z"/>
<path class="st2" d="M52,38.8c0.2,0,0.4,0.1,0.5,0.2c0.1,0.1,0.2,0.3,0.2,0.5c0,0.2-0.1,0.4-0.2,0.5c-0.1,0.1-0.3,0.2-0.5,0.2
	c-0.2,0-0.4-0.1-0.5-0.2c-0.1-0.1-0.2-0.3-0.2-0.5c0-0.2,0.1-0.4,0.2-0.5C51.7,38.8,51.8,38.8,52,38.8L52,38.8z M52,38.6
	c-0.3,0-0.6,0.1-0.7,0.4c-0.1,0.1-0.1,0.3-0.1,0.4c0,0.2,0.1,0.4,0.2,0.6c0.2,0.2,0.4,0.3,0.6,0.3c0.2,0,0.4-0.1,0.6-0.2
	c0.2-0.2,0.2-0.4,0.2-0.6C52.8,39,52.5,38.6,52,38.6C52,38.6,52,38.6,52,38.6z M51.7,39v0.9h0.2v-0.4H52l0.2,0.4h0.2l-0.2-0.4
	c0.1,0,0.2-0.1,0.2-0.2c0-0.2-0.1-0.3-0.4-0.3L51.7,39L51.7,39z M51.9,39.1L51.9,39.1c0.2,0,0.3,0,0.3,0.1c0,0.1-0.1,0.1-0.2,0.1
	h-0.1V39.1L51.9,39.1z"/>
<path class="st0" d="M36.2,56c0,0.6,0.2,1,0.9,1.1c0,0,0,0,0,0c0,0,0,0,0,0l0,0.3l-3.9,0l0-0.3l0,0C33.9,57,34,56.6,34,56l0-9.4
	c0-0.6-0.2-1-0.8-1.1c0,0-0.1,0-0.1,0v-0.3l3.9,0v0.3l0,0c-0.6,0.1-0.8,0.5-0.8,1.1L36.2,56L36.2,56z M18.1,50.2v0.6
	c1.7,0.1,2,0.4,2,2.7c0,2.6-0.8,3.5-2.2,3.5c-1.7,0-3.1-1.5-3.2-6.2c0-0.6,0-1.1,0-1.7c0-0.2,0-0.4,0-0.6c0-0.2,0-0.4,0-0.6
	c0.3-3.8,1.7-4.8,3.1-4.9l0,0c0.1,0,0.1,0,0.2,0c0.8,0,1.5,0.3,2,1c0.5,0.6,0.9,1.4,1,2.4c0,0.2,0.1,0.4,0.1,0.5h0.8v-4.5h-0.5
	c-0.2,0.5-0.3,0.7-0.5,0.7c-0.2,0-0.4-0.2-0.8-0.5c-0.6-0.4-1.4-0.6-2.2-0.6c-2.5,0-4.7,2.4-5.4,5.7c-0.1,0.4-0.1,0.8-0.2,1.1
	c0,0.3,0,0.6,0,0.9c0,0.1,0,0.1,0,0.2c0,0.2,0,0.4,0,0.6c0.3,4.6,2.9,7,5.5,7c0.7,0,1.4-0.2,1.9-0.5c0.8-0.4,0.9-0.7,1.1-0.7
	c0.2,0,0.4,0.3,0.7,0.8h0.7v-5.2c0-1,0.2-1.3,1.2-1.4v-0.6L18.1,50.2L18.1,50.2L18.1,50.2z M65.4,54c0,3.1-0.6,2.8-2.9,2.8
	c-0.6,0-0.8-0.2-0.8-0.8l0-4.8h0.9c1,0.1,1.2,0.4,1.2,1.8l0.4,0l0-4.1h-0.5c0,1.4-0.2,1.5-1.1,1.5h-0.9l0-4c0-0.7,0.1-0.9,0.8-0.9
	h0.6c1.2,0,2-0.1,2.3,1.9h0.4l0-2.4l-7.4,0l0,0.3h0.1c0,0,0.5,0.1,0.6,0.2c0.2,0.2,0.3,0.4,0.3,0.7l0,9.7c0,0.6-0.2,1-0.8,1.1h-0.2
	l0,0.3h7.4l0-3.4H65.4L65.4,54z M80.5,51.8c-0.1-0.2-0.3-0.3-0.4-0.5c-0.7-0.7-1.5-1.2-2.2-1.8c-0.1-0.1-0.1-0.1-0.2-0.2
	c-1.4-1-1.5-1.9-1.4-2.6c0.1-0.7,0.7-1.2,1.5-1.2c1.2,0,2,0.4,2.6,2.7l0.3,0v-2.6c0,0-0.3,0.3-0.3,0.3c-0.9-0.7-1.5-1-2.4-1l0,0
	c-0.9,0-1.7,0.4-2.3,1c-0.5,0.5-0.8,1.2-0.8,2c0,0.1,0,0.8,0.1,0.9c0.1,0.5,0.3,1,0.6,1.5c0.3,0.5,0.9,1,1.5,1.5
	c1.2,0.9,2.4,1.7,2.7,2.9c0.1,0.3,0.2,0.5,0.2,0.8c0,0.8-0.7,1.5-1.6,1.5c-1.3,0-2.6-0.5-3.4-3.1h-0.3v3.3c0,0,0.6-0.3,0.6-0.3
	c0.6,0.3,2,0.8,3,0.8c1.7,0,3.1-1.4,3.2-3.3C81.5,53.5,81.2,52.6,80.5,51.8L80.5,51.8z M72.9,51.8c-0.1-0.2-0.3-0.3-0.4-0.5
	c-0.7-0.7-1.5-1.2-2.2-1.8c-0.1-0.1-0.1-0.1-0.2-0.2c-1.4-1-1.5-1.9-1.4-2.6c0.1-0.7,0.7-1.2,1.5-1.2c1.2,0,2,0.4,2.6,2.7l0.3,0
	v-2.6c0,0-0.3,0.3-0.3,0.3c-0.9-0.7-1.5-1-2.4-1l0,0c-0.9,0-1.7,0.4-2.3,1c-0.5,0.5-0.8,1.2-0.8,2c0,0.1,0,0.8,0.1,0.9
	c0.1,0.5,0.3,1,0.6,1.5c0.3,0.5,0.9,1,1.5,1.5c1.2,0.9,2.4,1.7,2.7,2.9c0.1,0.3,0.2,0.5,0.2,0.8c0,0.8-0.7,1.5-1.6,1.5
	c-1.3,0-2.6-0.5-3.4-3.1H67v3.3c0,0,0.6-0.3,0.6-0.3c0.6,0.3,2,0.8,3,0.8c1.7,0,3.1-1.4,3.2-3.3C73.9,53.5,73.6,52.6,72.9,51.8
	L72.9,51.8z M29,45.2l0,0.3l0.2,0c0.9,0.1,1.1,0.8,1.1,1.7l0,7c0,1.8-0.6,2.7-2,2.7c-1.5,0-1.8-0.9-1.8-2.6l0-7.7
	c0-0.6,0.2-1.1,0.9-1.1c0,0,0.2,0,0.2,0s0-0.3,0-0.3v0l-4.5,0l0,0.3l0.2,0c0.3,0,0.5,0.1,0.6,0.2c0.2,0.2,0.3,0.6,0.3,0.9l0,7.8
	c0,2.3,0.8,3.3,3.4,3.3c2.7,0,3.6-1.1,3.6-3.6l0-6.9c0-0.9,0.1-1.6,1.1-1.7c0,0,0,0,0,0l0-0.3L29,45.2L29,45.2z M57.9,45.2l-3.1,0
	v0.3H55c0.8,0.2,0.9,0.9,0.9,1.7l0,6.4l-4.8-8.4l-3,0v0.3c0,0,0.1,0,0.1,0c0.3,0,0.4,0.2,0.7,0.5l6.6,11.4h1.3l0-10.2
	c0-0.9,0.1-1.5,0.9-1.7h0.2V45.2z M50.2,55.4l0-5.7l-0.9-1.6l0,7.3c0,0.9-0.1,1.5-0.9,1.7h-0.2l0,0.3l3.1,0v-0.3h-0.2
	C50.3,56.9,50.2,56.3,50.2,55.4z M47.6,45.2l-3.1,0l0,0.3h0.2c0.8,0.2,0.9,0.9,0.9,1.7l0,6.4l-4.8-8.4l-2,0l-1.1,0l0,0.3
	c0,0,0.1,0,0.1,0c0.3,0,0.4,0.2,0.7,0.5l6.6,11.4l1.3,0l0-10.2c0-0.9,0.1-1.5,0.9-1.7h0.2V45.2L47.6,45.2z M39.8,55.4l0-5.7
	l-0.9-1.6l0,7.3c0,0.9-0.1,1.5-0.9,1.7h-0.2v0.3l3.1,0l0-0.3h-0.2C40,56.9,39.8,56.3,39.8,55.4L39.8,55.4z"/>
</svg>
