<?xml version="1.0" encoding="utf-8"?>
<!-- Generator: Adobe Illustrator 21.0.0, SVG Export Plug-In . SVG Version: 6.00 Build 0)  -->
<svg version="1.1" id="Layer_1" xmlns="http://www.w3.org/2000/svg" xmlns:xlink="http://www.w3.org/1999/xlink" x="0px" y="0px"
	 viewBox="0 0 96.4 130.4" style="enable-background:new 0 0 96.4 130.4;" xml:space="preserve">
<style type="text/css">
	.st0{fill:#224435;stroke:#FFFFFF;stroke-miterlimit:10;}
	.st1{fill:#224435;}
	.st2{fill:#FFFFFF;}
</style>
<g>
	<path class="st0" d="M48.2,1.7C22.5,1.7,1.7,22.5,1.7,48.2c0,27.5,46.5,80.5,46.5,80.5s46.5-51,46.5-80.5
		C94.7,22.5,73.9,1.7,48.2,1.7z M48.2,74.9c-15.8,0-28.6-12.8-28.6-28.6s12.8-28.6,28.6-28.6s28.6,12.8,28.6,28.6S64,74.9,48.2,74.9
		z"/>
	<ellipse class="st1" cx="47.2" cy="46" rx="34.2" ry="33.5"/>
</g>
<polygon class="st2" points="82.2,48.7 81.9,47.8 81.7,46.8 81.5,45.9 81.2,44.9 81,44 80.7,43 80.5,42.1 80.3,41.1 80,41.2 
	80.3,42.1 80.5,43.1 80.7,44 81,45 81.2,45.9 81.5,46.9 81.7,47.8 81.9,48.8 "/>
<polygon class="st2" points="76.4,51.2 76.4,51.2 76.6,50.4 76.9,49.7 77.1,49 77.4,48.2 77.6,47.5 77.9,46.8 78.1,46 78.4,45.3 
	78.1,45.2 77.9,45.9 77.6,46.7 77.4,47.4 77.1,48.2 76.9,48.9 76.7,49.6 76.4,50.3 76.2,51.1 "/>
<polygon class="st2" points="76.8,52.9 76.8,52.8 76.8,52.7 76.7,52.7 76.7,52.6 76.7,52.6 76.7,52.5 76.6,52.5 76.6,52.4 
	76.6,52.4 76.6,52.3 76.5,52.3 76.5,52.2 76.5,52.2 76.5,52.1 76.4,52.1 76.4,52 76.4,52 76.4,51.9 76.4,51.9 76.4,51.8 76.4,51.8 
	76.4,51.7 76.3,51.7 76.3,51.6 76.3,51.6 76.3,51.5 76.3,51.4 76.4,51.4 76.4,51.3 76.4,51.3 76.4,51.2 76.4,51.2 76.2,51.1 
	76.1,51.2 76.1,51.2 76.1,51.3 76.1,51.4 76.1,51.4 76.1,51.5 76.1,51.6 76.1,51.6 76.1,51.7 76.1,51.7 76.1,51.8 76.1,51.9 
	76.1,51.9 76.2,52 76.2,52 76.2,52.1 76.2,52.2 76.2,52.2 76.3,52.3 76.3,52.3 76.3,52.4 76.3,52.4 76.4,52.5 76.4,52.5 76.4,52.6 
	76.4,52.7 76.5,52.7 76.5,52.8 76.5,52.8 76.6,52.9 76.6,52.9 76.6,53 "/>
<polygon class="st2" points="85.5,44.6 85.5,44.5 85.5,44.5 85.5,44.4 85.6,44.4 85.6,44.3 85.6,44.3 85.7,44.2 85.7,44.2 
	85.7,44.2 85.8,44.1 85.8,44.1 85.8,44 85.9,44 85.9,44 86,44 86,43.9 86,43.9 86.1,43.9 86.1,43.8 86.2,43.8 86.2,43.8 86.3,43.8 
	86.3,43.8 86.4,43.7 86.4,43.7 86.5,43.7 86.5,43.7 86.6,43.7 86.6,43.6 86.7,43.6 86.7,43.6 86.8,43.6 86.7,43.3 86.6,43.4 
	86.6,43.4 86.5,43.4 86.5,43.4 86.4,43.4 86.4,43.5 86.3,43.5 86.3,43.5 86.2,43.5 86.2,43.6 86.1,43.6 86.1,43.6 86,43.6 86,43.7 
	85.9,43.7 85.9,43.7 85.8,43.7 85.8,43.8 85.7,43.8 85.7,43.9 85.6,43.9 85.6,43.9 85.5,44 85.5,44 85.5,44.1 85.4,44.1 85.4,44.2 
	85.4,44.2 85.3,44.3 85.3,44.4 85.3,44.4 85.2,44.5 "/>
<polygon class="st2" points="81.8,54.7 82.3,53.5 82.7,52.2 83.2,50.9 83.7,49.6 84.1,48.4 84.6,47.1 85,45.8 85.5,44.6 85.2,44.5 
	84.8,45.8 84.3,47 83.9,48.3 83.4,49.6 83,50.8 82.5,52.1 82,53.4 81.6,54.7 "/>
<polygon class="st2" points="34.7,48.3 34.6,47.6 34.5,46.9 34.4,46.2 34.3,45.5 34.1,44.8 34,44 33.9,43.3 33.8,42.6 33.5,42.7 
	33.7,43.4 33.8,44.1 33.9,44.8 34,45.5 34.1,46.2 34.3,46.9 34.4,47.7 34.5,48.4 "/>
<polygon class="st2" points="35.4,49.1 35.4,49.1 35.3,49.1 35.3,49.1 35.3,49 35.3,49 35.2,49 35.2,49 35.2,49 35.1,48.9 
	35.1,48.9 35.1,48.9 35.1,48.9 35,48.8 35,48.8 35,48.8 35,48.8 34.9,48.7 34.9,48.7 34.9,48.7 34.9,48.7 34.9,48.6 34.8,48.6 
	34.8,48.6 34.8,48.6 34.8,48.5 34.8,48.5 34.8,48.5 34.8,48.5 34.7,48.4 34.7,48.4 34.7,48.4 34.7,48.3 34.5,48.4 34.5,48.4 
	34.5,48.5 34.5,48.5 34.5,48.5 34.5,48.6 34.6,48.6 34.6,48.6 34.6,48.7 34.6,48.7 34.6,48.7 34.7,48.8 34.7,48.8 34.7,48.8 
	34.7,48.9 34.8,48.9 34.8,48.9 34.8,49 34.8,49 34.9,49 34.9,49 34.9,49.1 34.9,49.1 35,49.1 35,49.1 35,49.2 35.1,49.2 35.1,49.2 
	35.1,49.2 35.2,49.3 35.2,49.3 35.2,49.3 35.2,49.3 "/>
<polygon class="st2" points="37.6,48.7 37.9,47.8 38.2,46.8 38.5,45.8 38.9,44.9 39.2,43.9 39.5,42.9 39.8,41.9 40.2,41 39.9,40.9 
	39.6,41.9 39.3,42.8 38.9,43.8 38.6,44.8 38.3,45.8 38,46.7 37.6,47.7 37.3,48.7 "/>
<polygon class="st2" points="37.5,43.3 37.1,42.5 36.6,41.8 36.2,41 35.7,40.3 35.3,39.5 34.8,38.8 34.3,38 33.9,37.3 33.7,37.4 
	34.1,38.2 34.6,38.9 35,39.7 35.5,40.4 36,41.2 36.4,41.9 36.9,42.7 37.3,43.4 "/>
<polygon class="st2" points="71,38.2 71,38.2 70.9,38.2 70.8,38.2 70.8,38.2 70.8,38.2 70.7,38.2 70.7,38.1 70.6,38.1 70.6,38.1 
	70.5,38.1 70.5,38.1 70.4,38.1 70.4,38.1 70.3,38.1 70.3,38.1 70.2,38.1 70.2,38.1 70.1,38.1 70.1,38.1 70.1,38.1 70,38 70,38 
	69.9,38 69.9,38 69.8,38 69.8,38 69.7,38 69.7,38 69.7,38 69.6,38 69.6,38 69.5,38 69.5,38.3 69.6,38.3 69.6,38.3 69.7,38.3 
	69.7,38.3 69.7,38.3 69.8,38.3 69.8,38.3 69.9,38.3 69.9,38.3 70,38.3 70,38.3 70,38.3 70.1,38.3 70.1,38.3 70.2,38.3 70.2,38.3 
	70.3,38.3 70.3,38.3 70.3,38.3 70.4,38.3 70.4,38.3 70.5,38.3 70.5,38.4 70.6,38.4 70.6,38.4 70.7,38.4 70.7,38.4 70.7,38.4 
	70.8,38.4 70.8,38.4 70.9,38.4 70.9,38.5 "/>
<polygon class="st2" points="74,45.8 74,45.4 74.1,45.1 74.1,44.8 74.2,44.4 74.2,44.1 74.2,43.8 74.2,43.5 74.2,43.2 74.2,42.9 
	74.2,42.6 74.2,42.3 74.1,42 74.1,41.7 74,41.5 73.9,41.2 73.8,40.9 73.8,40.7 73.6,40.5 73.5,40.2 73.4,40 73.3,39.8 73.1,39.6 
	73,39.4 72.8,39.2 72.6,39.1 72.4,38.9 72.2,38.8 72,38.6 71.8,38.5 71.5,38.4 71.3,38.3 71,38.2 70.9,38.5 71.2,38.5 71.4,38.6 
	71.6,38.7 71.9,38.8 72.1,38.9 72.3,39.1 72.4,39.2 72.6,39.4 72.8,39.6 72.9,39.7 73.1,39.9 73.2,40.1 73.3,40.3 73.4,40.6 
	73.5,40.8 73.6,41 73.7,41.3 73.8,41.5 73.8,41.8 73.9,42 73.9,42.3 73.9,42.6 74,42.9 74,43.2 74,43.5 74,43.8 73.9,44.1 
	73.9,44.4 73.9,44.7 73.8,45.1 73.8,45.4 73.7,45.7 "/>
<polygon class="st2" points="67.3,50.9 67.5,51 67.8,51.1 68.1,51.1 68.4,51.2 68.7,51.2 68.9,51.2 69.2,51.2 69.5,51.1 69.7,51.1 
	70,51 70.3,50.9 70.5,50.8 70.8,50.7 71,50.5 71.2,50.4 71.5,50.2 71.7,50 71.9,49.8 72.1,49.6 72.3,49.4 72.5,49.2 72.7,48.9 
	72.9,48.7 73,48.4 73.2,48.1 73.3,47.8 73.5,47.5 73.6,47.2 73.7,46.8 73.8,46.5 73.9,46.1 74,45.8 73.7,45.7 73.6,46.1 73.6,46.4 
	73.5,46.8 73.3,47.1 73.2,47.4 73.1,47.7 73,48 72.8,48.3 72.6,48.5 72.5,48.8 72.3,49 72.1,49.2 71.9,49.5 71.7,49.7 71.5,49.8 
	71.3,50 71.1,50.2 70.9,50.3 70.6,50.5 70.4,50.6 70.2,50.7 69.9,50.8 69.7,50.8 69.4,50.9 69.2,50.9 68.9,50.9 68.7,50.9 
	68.4,50.9 68.1,50.9 67.9,50.9 67.6,50.8 67.4,50.7 "/>
<polygon class="st2" points="66.5,50.6 66.5,50.6 66.6,50.6 66.6,50.6 66.6,50.6 66.6,50.7 66.6,50.7 66.7,50.7 66.7,50.7 
	66.7,50.7 66.7,50.7 66.8,50.7 66.8,50.7 66.8,50.7 66.8,50.8 66.8,50.8 66.9,50.8 66.9,50.8 66.9,50.8 66.9,50.8 67,50.8 67,50.8 
	67,50.8 67,50.9 67.1,50.9 67.1,50.9 67.1,50.9 67.1,50.9 67.2,50.9 67.2,50.9 67.2,50.9 67.2,50.9 67.3,50.9 67.4,50.7 67.3,50.7 
	67.3,50.7 67.3,50.7 67.3,50.7 67.2,50.7 67.2,50.7 67.2,50.6 67.2,50.6 67.1,50.6 67.1,50.6 67.1,50.6 67.1,50.6 67,50.6 67,50.6 
	67,50.6 67,50.6 67,50.5 66.9,50.5 66.9,50.5 66.9,50.5 66.9,50.5 66.8,50.5 66.8,50.5 66.8,50.5 66.8,50.5 66.8,50.4 66.7,50.4 
	66.7,50.4 66.7,50.4 66.7,50.4 66.7,50.4 66.6,50.4 "/>
<polygon class="st2" points="68,49.1 68.1,49.2 68.1,49.2 68.1,49.2 68.2,49.2 68.2,49.2 68.2,49.2 68.3,49.2 68.3,49.2 68.3,49.2 
	68.4,49.2 68.4,49.2 68.4,49.2 68.5,49.2 68.5,49.2 68.5,49.2 68.6,49.2 68.6,49.2 68.6,49.2 68.7,49.2 68.7,49.2 68.7,49.2 
	68.8,49.2 68.8,49.2 68.8,49.2 68.8,49.2 68.9,49.2 68.9,49.2 68.9,49.2 69,49.2 69,49.2 69,49.2 69.1,49.2 69,48.9 69,48.9 
	68.9,48.9 68.9,49 68.9,49 68.9,49 68.8,49 68.8,49 68.8,49 68.8,49 68.7,49 68.7,49 68.7,49 68.7,49 68.6,49 68.6,49 68.6,49 
	68.5,49 68.5,49 68.5,49 68.5,49 68.4,49 68.4,49 68.4,49 68.4,49 68.3,49 68.3,49 68.3,49 68.2,48.9 68.2,48.9 68.2,48.9 
	68.2,48.9 68.1,48.9 "/>
<polygon class="st2" points="67.3,43.6 67.2,43.8 67.2,44 67.1,44.1 67.1,44.3 67.1,44.5 67,44.8 67,45 67,45.2 66.9,45.4 
	66.9,45.6 66.9,45.8 66.8,46 66.8,46.2 66.8,46.4 66.8,46.6 66.8,46.8 66.8,47 66.8,47.2 66.8,47.4 66.8,47.6 66.9,47.8 66.9,47.9 
	67,48.1 67,48.3 67.1,48.4 67.2,48.6 67.3,48.7 67.4,48.8 67.6,48.9 67.7,49 67.9,49.1 68,49.1 68.1,48.9 68,48.9 67.8,48.8 
	67.7,48.7 67.6,48.6 67.5,48.5 67.4,48.4 67.3,48.3 67.3,48.2 67.2,48 67.2,47.9 67.1,47.7 67.1,47.6 67.1,47.4 67.1,47.2 67,47 
	67,46.8 67,46.6 67.1,46.4 67.1,46.2 67.1,46 67.1,45.8 67.1,45.6 67.2,45.4 67.2,45.2 67.2,45 67.3,44.8 67.3,44.6 67.3,44.4 
	67.4,44.2 67.4,44 67.5,43.8 67.5,43.6 "/>
<polygon class="st2" points="70.5,39.4 70.3,39.4 70.1,39.4 69.9,39.4 69.7,39.4 69.6,39.4 69.4,39.4 69.2,39.5 69.1,39.6 69,39.7 
	68.8,39.8 68.7,39.9 68.6,40 68.5,40.1 68.4,40.3 68.3,40.4 68.2,40.6 68.1,40.7 68,40.9 67.9,41.1 67.9,41.2 67.8,41.4 67.7,41.6 
	67.7,41.8 67.6,42 67.6,42.2 67.5,42.4 67.5,42.6 67.4,42.8 67.4,43 67.3,43.2 67.3,43.4 67.3,43.6 67.5,43.6 67.5,43.4 67.6,43.2 
	67.6,43 67.7,42.8 67.7,42.6 67.7,42.5 67.8,42.3 67.9,42.1 67.9,41.9 68,41.7 68,41.5 68.1,41.3 68.2,41.2 68.2,41 68.3,40.8 
	68.4,40.7 68.5,40.5 68.6,40.4 68.7,40.3 68.8,40.2 68.9,40.1 69,40 69.1,39.9 69.2,39.8 69.3,39.7 69.5,39.7 69.6,39.6 69.8,39.6 
	69.9,39.6 70.1,39.6 70.2,39.6 70.4,39.7 "/>
<polygon class="st2" points="58.6,47.6 58.5,47.5 58.3,47.5 58.2,47.5 58,47.4 57.9,47.4 57.8,47.3 57.6,47.3 57.5,47.2 57.4,47.1 
	57.2,47.1 57.1,47 57,46.9 56.9,46.8 56.8,46.8 56.6,46.7 56.5,46.6 56.4,46.5 56.3,46.4 56.2,46.2 56.1,46.1 56,46 55.9,45.9 
	55.8,45.8 55.7,45.7 55.6,45.5 55.5,45.4 55.4,45.3 55.3,45.1 55.2,45 55.2,44.8 55.1,44.7 55,44.6 54.8,44.7 54.9,44.8 54.9,45 
	55,45.1 55.1,45.3 55.2,45.4 55.3,45.5 55.4,45.7 55.5,45.8 55.6,45.9 55.7,46.1 55.8,46.2 55.9,46.3 56,46.4 56.1,46.5 56.3,46.6 
	56.4,46.7 56.5,46.8 56.6,46.9 56.7,47 56.9,47.1 57,47.2 57.1,47.3 57.3,47.4 57.4,47.4 57.5,47.5 57.7,47.6 57.8,47.6 58,47.7 
	58.1,47.7 58.3,47.7 58.4,47.8 58.6,47.8 "/>
<polygon class="st2" points="60.2,46 60.2,46.1 60.2,46.2 60.2,46.3 60.2,46.4 60.2,46.4 60.2,46.5 60.1,46.6 60.1,46.7 60.1,46.7 
	60.1,46.8 60,46.9 60,46.9 60,47 59.9,47.1 59.9,47.1 59.8,47.2 59.8,47.2 59.7,47.3 59.7,47.3 59.6,47.4 59.5,47.4 59.5,47.4 
	59.4,47.5 59.3,47.5 59.2,47.5 59.2,47.5 59.1,47.6 59,47.6 58.9,47.6 58.8,47.6 58.7,47.6 58.6,47.6 58.6,47.8 58.7,47.8 
	58.8,47.8 58.9,47.8 59,47.8 59.1,47.8 59.2,47.8 59.3,47.8 59.4,47.7 59.5,47.7 59.6,47.7 59.7,47.6 59.7,47.6 59.8,47.5 
	59.9,47.5 59.9,47.4 60,47.3 60.1,47.3 60.1,47.2 60.2,47.1 60.2,47.1 60.3,47 60.3,46.9 60.3,46.8 60.4,46.7 60.4,46.7 60.4,46.6 
	60.4,46.5 60.4,46.4 60.4,46.3 60.4,46.2 60.4,46.1 60.4,46 "/>
<polygon class="st2" points="58,39.4 58,39.4 58,39.3 58,39.2 58,39.2 58.1,39.1 58.1,39 58.1,39 58.1,38.9 58.1,38.8 58.2,38.8 
	58.2,38.7 58.2,38.7 58.3,38.6 58.3,38.6 58.3,38.6 58.4,38.5 58.4,38.5 58.5,38.4 58.5,38.4 58.6,38.4 58.6,38.3 58.7,38.3 
	58.7,38.3 58.8,38.2 58.9,38.2 58.9,38.2 59,38.2 59.1,38.2 59.2,38.1 59.2,38.1 59.3,38.1 59.4,38.1 59.5,38.1 59.5,37.8 
	59.4,37.8 59.3,37.9 59.2,37.9 59.1,37.9 59,37.9 58.9,37.9 58.9,38 58.8,38 58.7,38 58.6,38.1 58.6,38.1 58.5,38.1 58.4,38.2 
	58.4,38.2 58.3,38.2 58.3,38.3 58.2,38.3 58.2,38.4 58.1,38.4 58.1,38.5 58,38.6 58,38.6 58,38.7 57.9,38.7 57.9,38.8 57.9,38.9 
	57.8,39 57.8,39 57.8,39.1 57.8,39.2 57.8,39.3 57.8,39.4 57.8,39.4 "/>
<polygon class="st2" points="60.8,41.9 60.8,41.9 60.7,41.8 60.6,41.7 60.4,41.7 60.3,41.6 60.2,41.5 60,41.5 59.9,41.4 59.8,41.4 
	59.7,41.3 59.5,41.2 59.4,41.2 59.3,41.1 59.2,41 59.1,40.9 59,40.9 58.9,40.8 58.8,40.7 58.7,40.6 58.6,40.6 58.6,40.5 58.5,40.4 
	58.4,40.3 58.3,40.2 58.3,40.2 58.2,40.1 58.2,40 58.1,39.9 58.1,39.8 58.1,39.7 58,39.6 58,39.5 58,39.4 57.8,39.4 57.8,39.5 
	57.8,39.6 57.8,39.7 57.9,39.9 57.9,40 58,40.1 58,40.2 58.1,40.3 58.1,40.4 58.2,40.5 58.3,40.6 58.4,40.7 58.5,40.7 58.6,40.8 
	58.6,40.9 58.7,41 58.9,41.1 59,41.1 59.1,41.2 59.2,41.3 59.3,41.4 59.4,41.4 59.5,41.5 59.7,41.6 59.8,41.6 59.9,41.7 60.1,41.8 
	60.2,41.8 60.3,41.9 60.5,41.9 60.6,42 60.7,42.1 60.7,42.1 "/>
<polygon class="st2" points="63,45.6 63,45.4 63,45.3 63,45.1 63,45 63,44.8 62.9,44.7 62.9,44.5 62.9,44.4 62.8,44.2 62.8,44.1 
	62.8,43.9 62.7,43.8 62.6,43.7 62.6,43.6 62.5,43.4 62.4,43.3 62.4,43.2 62.3,43.1 62.2,43 62.1,42.9 62,42.8 61.9,42.7 61.8,42.6 
	61.7,42.5 61.6,42.4 61.5,42.3 61.4,42.2 61.3,42.2 61.2,42.1 61.1,42 61,41.9 60.8,41.9 60.7,42.1 60.8,42.1 60.9,42.2 61.1,42.3 
	61.2,42.3 61.3,42.4 61.4,42.5 61.5,42.6 61.6,42.7 61.7,42.8 61.8,42.9 61.8,42.9 61.9,43 62,43.1 62.1,43.2 62.2,43.3 62.2,43.5 
	62.3,43.6 62.4,43.7 62.4,43.8 62.5,43.9 62.5,44 62.6,44.2 62.6,44.3 62.6,44.4 62.7,44.6 62.7,44.7 62.7,44.8 62.7,45 62.8,45.1 
	62.8,45.3 62.8,45.4 62.8,45.6 "/>
<polygon class="st2" points="59.1,49.3 59.4,49.3 59.6,49.3 59.8,49.2 60,49.2 60.2,49.1 60.4,49.1 60.5,49 60.7,48.9 60.9,48.8 
	61.1,48.8 61.2,48.7 61.4,48.6 61.5,48.5 61.7,48.4 61.8,48.3 61.9,48.1 62.1,48 62.2,47.9 62.3,47.8 62.4,47.6 62.5,47.5 
	62.6,47.3 62.6,47.2 62.7,47 62.8,46.9 62.8,46.7 62.9,46.5 62.9,46.4 63,46.2 63,46 63,45.8 63,45.6 62.8,45.6 62.8,45.8 62.8,46 
	62.7,46.1 62.7,46.3 62.7,46.5 62.6,46.6 62.6,46.8 62.5,46.9 62.4,47.1 62.4,47.2 62.3,47.4 62.2,47.5 62.1,47.6 62,47.7 
	61.9,47.9 61.8,48 61.6,48.1 61.5,48.2 61.4,48.3 61.2,48.4 61.1,48.5 60.9,48.5 60.8,48.6 60.6,48.7 60.5,48.8 60.3,48.8 
	60.1,48.9 59.9,48.9 59.7,49 59.5,49 59.3,49.1 59.1,49.1 "/>
<polygon class="st2" points="55.9,48.5 56,48.5 56.1,48.6 56.2,48.7 56.3,48.7 56.4,48.8 56.5,48.8 56.6,48.8 56.7,48.9 56.8,48.9 
	56.9,49 57,49 57.1,49.1 57.2,49.1 57.3,49.1 57.4,49.2 57.5,49.2 57.6,49.2 57.7,49.2 57.8,49.3 57.9,49.3 58,49.3 58.1,49.3 
	58.2,49.3 58.3,49.3 58.4,49.3 58.5,49.3 58.6,49.4 58.7,49.3 58.8,49.3 58.9,49.3 59,49.3 59.1,49.3 59.1,49.1 59,49.1 58.9,49.1 
	58.8,49.1 58.7,49.1 58.6,49.1 58.5,49.1 58.4,49.1 58.3,49.1 58.2,49.1 58.1,49.1 58,49.1 57.9,49 57.8,49 57.7,49 57.6,49 
	57.5,49 57.4,48.9 57.3,48.9 57.2,48.9 57.2,48.8 57.1,48.8 57,48.8 56.9,48.7 56.8,48.7 56.7,48.6 56.6,48.6 56.5,48.5 56.4,48.5 
	56.3,48.4 56.2,48.4 56.2,48.3 56.1,48.3 "/>
<polygon class="st2" points="63,40.8 63.1,40.3 63.1,39.8 63.2,39.3 63.2,38.8 63.2,38.2 63.3,37.7 63.3,37.2 63.4,36.7 63.1,36.7 
	63.1,37.2 63,37.7 63,38.2 62.9,38.7 62.9,39.2 62.9,39.8 62.8,40.3 62.8,40.8 "/>
<polygon class="st2" points="52.9,48.4 53,48 53,47.7 53.1,47.4 53.1,47.1 53.2,46.7 53.2,46.4 53.2,46.1 53.3,45.8 53,45.7 
	53,46.1 53,46.4 52.9,46.7 52.9,47 52.8,47.3 52.8,47.7 52.7,48 52.7,48.3 "/>
<polygon class="st2" points="48.5,46.6 48.5,46.1 48.5,45.6 48.5,45.2 48.5,44.7 48.5,44.2 48.5,43.7 48.5,43.3 48.5,42.8 
	48.2,42.8 48.2,43.3 48.2,43.7 48.2,44.2 48.2,44.7 48.2,45.2 48.2,45.6 48.2,46.1 48.2,46.6 "/>
<polygon class="st2" points="52.1,43.7 52.1,43.2 52.1,42.8 52.1,42.3 52.1,41.8 52.1,41.4 52.1,40.9 52.1,40.4 52.1,40 51.9,40 
	51.9,40.4 51.9,40.9 51.9,41.4 51.9,41.8 51.9,42.3 51.9,42.8 51.9,43.2 51.9,43.7 "/>
<polygon class="st2" points="48.5,41 48.5,40.6 48.5,40.2 48.5,39.8 48.5,39.4 48.5,39 48.5,38.6 48.5,38.1 48.5,37.7 48.3,37.7 
	48.3,38.1 48.3,38.6 48.3,39 48.3,39.4 48.3,39.8 48.3,40.2 48.3,40.6 48.3,41 "/>
<polygon class="st2" points="53.5,38.7 53.5,38.4 53.5,38.1 53.5,37.7 53.5,37.4 53.5,37.1 53.5,36.7 53.5,36.4 53.5,36.1 
	53.2,36.1 53.2,36.4 53.2,36.7 53.2,37.1 53.2,37.4 53.2,37.7 53.2,38.1 53.2,38.4 53.2,38.7 "/>
<polygon class="st2" points="30.7,49.1 30.7,49.1 30.7,49.1 30.7,49.1 30.8,49.2 30.8,49.2 30.8,49.2 30.8,49.2 30.8,49.3 
	30.9,49.3 30.9,49.3 30.9,49.4 30.9,49.4 31,49.4 31,49.5 31,49.5 31,49.5 31.1,49.6 31.1,49.6 31.2,49.6 31.2,49.6 31.2,49.7 
	31.3,49.7 31.3,49.7 31.3,49.8 31.4,49.8 31.4,49.8 31.5,49.8 31.5,49.9 31.6,49.9 31.6,49.9 31.7,49.9 31.7,49.9 31.8,50 
	31.9,49.7 31.8,49.7 31.8,49.7 31.7,49.7 31.7,49.7 31.6,49.6 31.6,49.6 31.6,49.6 31.5,49.6 31.5,49.5 31.4,49.5 31.4,49.5 
	31.4,49.5 31.3,49.5 31.3,49.4 31.3,49.4 31.2,49.4 31.2,49.3 31.2,49.3 31.2,49.3 31.1,49.3 31.1,49.2 31.1,49.2 31.1,49.2 
	31,49.2 31,49.1 31,49.1 31,49.1 31,49.1 31,49.1 31,49 31,49 31,49 30.9,49 "/>
<polygon class="st2" points="26,39.9 26,39.9 26.6,41.1 27.2,42.2 27.8,43.4 28.4,44.5 29,45.7 29.5,46.8 30.1,47.9 30.7,49.1 
	30.9,49 30.4,47.8 29.8,46.7 29.2,45.6 28.6,44.4 28,43.3 27.4,42.1 26.8,41 26.2,39.8 26.2,39.9 "/>
<polygon class="st2" points="26.2,38.6 26.2,38.6 26.2,38.7 26.2,38.7 26.2,38.8 26.2,38.8 26.1,38.8 26.1,38.9 26.1,38.9 26.1,39 
	26.1,39 26.1,39 26.1,39.1 26,39.1 26,39.2 26,39.2 26,39.2 26,39.3 26,39.3 26,39.4 26,39.4 26,39.4 26,39.5 26,39.5 26,39.6 
	26,39.6 26,39.7 26,39.7 26,39.7 26,39.8 26,39.8 26,39.9 26,39.9 26.2,39.9 26.2,39.8 26.2,39.8 26.2,39.8 26.2,39.7 26.2,39.7 
	26.2,39.6 26.2,39.6 26.2,39.6 26.2,39.5 26.2,39.5 26.2,39.5 26.2,39.4 26.2,39.4 26.2,39.4 26.2,39.3 26.2,39.3 26.2,39.3 
	26.3,39.2 26.3,39.2 26.3,39.2 26.3,39.1 26.3,39.1 26.3,39 26.3,39 26.4,39 26.4,38.9 26.4,38.9 26.4,38.9 26.4,38.8 26.4,38.8 
	26.5,38.7 26.5,38.7 "/>
<polygon class="st2" points="24.2,42 24.2,42.1 24.2,42.3 24.1,42.4 24.1,42.6 24.1,42.7 24.1,42.8 24.1,43 24.1,43.1 24.1,43.3 
	24.1,43.4 24.1,43.6 24.1,43.7 24,44 24,44.3 24,44.6 24,44.9 24,45 24,45.2 24,45.3 23.9,45.4 23.9,45.6 23.9,45.7 23.9,45.9 
	23.9,46 23.9,46.2 23.9,46.3 23.9,46.4 23.9,46.6 24.1,46.6 24.1,46.4 24.1,46.3 24.2,46.2 24.2,46 24.2,45.9 24.2,45.7 24.2,45.6 
	24.2,45.5 24.2,45.3 24.2,45.2 24.2,45 24.2,44.9 24.3,44.6 24.3,44.3 24.3,44 24.3,43.7 24.3,43.6 24.3,43.4 24.3,43.3 24.3,43.1 
	24.3,43 24.4,42.9 24.4,42.7 24.4,42.6 24.4,42.4 24.4,42.3 24.4,42.2 24.4,42 "/>
<polygon class="st2" points="23.6,50.8 23.6,50.9 23.6,50.9 23.6,50.9 23.6,51 23.6,51 23.6,51 23.6,51.1 23.6,51.1 23.6,51.1 
	23.7,51.2 23.7,51.2 23.7,51.2 23.7,51.3 23.7,51.3 23.7,51.3 23.8,51.4 23.8,51.4 23.8,51.4 23.9,51.4 23.9,51.5 23.9,51.5 
	23.9,51.5 24,51.5 24,51.6 24,51.6 24,51.6 24.1,51.6 24.1,51.7 24.1,51.7 24.2,51.7 24.2,51.7 24.2,51.8 24.3,51.8 24.4,51.6 
	24.4,51.5 24.3,51.5 24.3,51.5 24.3,51.5 24.3,51.5 24.2,51.4 24.2,51.4 24.2,51.4 24.2,51.4 24.1,51.4 24.1,51.3 24.1,51.3 
	24,51.3 24,51.3 24,51.2 24,51.2 24,51.2 24,51.2 23.9,51.2 23.9,51.1 23.9,51.1 23.9,51.1 23.9,51.1 23.9,51 23.9,51 23.9,51 
	23.8,51 23.8,51 23.8,50.9 23.8,50.9 23.8,50.9 23.8,50.9 23.8,50.9 "/>
<polygon class="st2" points="23.8,48.1 23.7,48.5 23.7,48.8 23.7,49.1 23.7,49.5 23.6,49.8 23.6,50.2 23.6,50.5 23.6,50.8 
	23.8,50.9 23.9,50.5 23.9,50.2 23.9,49.8 23.9,49.5 23.9,49.2 24,48.8 24,48.5 24,48.1 "/>
<polygon class="st2" points="14.9,52.3 14.9,52.4 15,52.5 15.1,52.6 15.2,52.6 15.3,52.6 15.4,52.7 15.4,52.7 15.5,52.7 15.6,52.7 
	15.7,52.8 15.8,52.8 16,52.8 16.1,52.8 16.2,52.8 16.3,52.8 16.4,52.7 16.5,52.7 16.6,52.7 16.7,52.7 16.8,52.6 16.8,52.6 
	16.9,52.5 17,52.4 17.1,52.4 17.1,52.3 17.2,52.2 17.2,52.1 17.3,52 17.3,51.9 17.3,51.7 17.3,51.6 17.3,51.5 17.2,51.3 17,51.4 
	17,51.5 17,51.6 17,51.7 17,51.8 17,51.9 17,52 17,52.1 16.9,52.1 16.9,52.2 16.8,52.3 16.8,52.3 16.7,52.4 16.6,52.4 16.6,52.4 
	16.5,52.5 16.4,52.5 16.3,52.5 16.2,52.5 16.1,52.5 16.1,52.5 16,52.5 15.9,52.5 15.8,52.5 15.7,52.5 15.6,52.5 15.5,52.5 
	15.4,52.4 15.4,52.4 15.3,52.4 15.2,52.3 15.2,52.3 15.1,52.3 15.1,52.4 14.9,52.3 14.9,52.4 14.9,52.4 "/>
<polygon class="st2" points="15,50.9 15,50.9 15,51 15,51 15,51.1 15,51.1 15,51.1 15,51.2 15.1,51.2 15.1,51.2 15.1,51.3 
	15.1,51.3 15.1,51.4 15.1,51.4 15.1,51.5 15.1,51.5 15.1,51.5 15,51.6 15,51.6 15,51.7 15,51.7 15,51.8 15,51.8 15,51.9 15,51.9 
	15,52 15,52 15,52.1 14.9,52.1 14.9,52.2 14.9,52.2 14.9,52.3 14.9,52.3 15.1,52.4 15.1,52.3 15.2,52.3 15.2,52.2 15.2,52.2 
	15.2,52.1 15.2,52.1 15.2,52 15.2,52 15.2,51.9 15.3,51.9 15.3,51.8 15.3,51.8 15.3,51.7 15.3,51.7 15.3,51.6 15.3,51.6 15.3,51.5 
	15.3,51.5 15.3,51.4 15.3,51.4 15.3,51.3 15.3,51.3 15.3,51.2 15.3,51.2 15.3,51.1 15.3,51.1 15.3,51 15.3,51 15.3,51 15.3,50.9 
	15.2,50.9 15.2,50.8 "/>
<polygon class="st2" points="12.4,52 12.4,51.9 12.4,51.7 12.4,51.6 12.4,51.4 12.4,51.3 12.4,51.2 12.5,51 12.5,50.9 12.6,50.8 
	12.7,50.7 12.8,50.6 12.9,50.5 12.9,50.4 13.1,50.3 13.2,50.3 13.3,50.2 13.4,50.1 13.5,50.1 13.7,50.1 13.8,50.1 13.9,50.1 
	14,50.1 14.1,50.1 14.3,50.1 14.4,50.2 14.5,50.2 14.6,50.3 14.7,50.4 14.8,50.5 14.9,50.6 14.9,50.8 15,50.9 15.2,50.8 15.2,50.6 
	15.1,50.5 15,50.3 14.9,50.2 14.7,50.1 14.6,50 14.5,49.9 14.3,49.9 14.2,49.8 14,49.8 13.9,49.8 13.8,49.8 13.6,49.8 13.5,49.9 
	13.3,49.9 13.2,50 13,50 12.9,50.1 12.8,50.2 12.7,50.3 12.6,50.4 12.5,50.5 12.4,50.7 12.3,50.8 12.2,50.9 12.2,51.1 12.1,51.3 
	12.1,51.4 12.1,51.6 12.1,51.8 12.2,51.9 12.2,52.1 "/>
<polygon class="st2" points="15.5,54.1 15.3,54.1 15.1,54.1 14.9,54.1 14.8,54.1 14.6,54.1 14.5,54.1 14.3,54 14.2,54 14.1,53.9 
	14,53.9 13.8,53.8 13.7,53.8 13.6,53.7 13.5,53.7 13.4,53.6 13.3,53.5 13.3,53.5 13.2,53.4 13.1,53.3 13,53.2 13,53.1 12.9,53 
	12.9,52.9 12.8,52.9 12.7,52.8 12.7,52.7 12.6,52.6 12.6,52.5 12.6,52.4 12.5,52.2 12.5,52.1 12.4,52 12.2,52.1 12.3,52.2 
	12.3,52.3 12.3,52.4 12.4,52.6 12.4,52.7 12.5,52.8 12.5,52.9 12.6,53 12.6,53.1 12.7,53.2 12.8,53.3 12.8,53.4 12.9,53.5 13,53.5 
	13.1,53.6 13.2,53.7 13.3,53.8 13.4,53.9 13.5,53.9 13.6,54 13.7,54.1 13.8,54.1 14,54.2 14.1,54.2 14.3,54.3 14.4,54.3 14.6,54.3 
	14.7,54.4 14.9,54.4 15.1,54.4 15.3,54.4 15.5,54.4 "/>
<polygon class="st2" points="19.2,51.5 19.2,51.5 19.2,51.6 19.1,51.7 19.1,51.9 19,52 19,52.2 18.9,52.3 18.8,52.4 18.8,52.5 
	18.7,52.6 18.6,52.8 18.5,52.9 18.4,53 18.3,53.1 18.2,53.2 18.1,53.3 18,53.4 17.9,53.5 17.8,53.5 17.6,53.6 17.5,53.7 17.4,53.8 
	17.2,53.8 17.1,53.9 16.9,53.9 16.8,54 16.6,54 16.4,54.1 16.3,54.1 16.1,54.1 15.9,54.1 15.7,54.1 15.5,54.1 15.5,54.4 15.7,54.4 
	15.9,54.4 16.1,54.4 16.3,54.3 16.5,54.3 16.7,54.3 16.8,54.2 17,54.2 17.2,54.1 17.3,54 17.5,54 17.6,53.9 17.8,53.8 17.9,53.7 
	18,53.7 18.2,53.6 18.3,53.5 18.4,53.4 18.5,53.3 18.6,53.1 18.7,53 18.8,52.9 18.9,52.8 19,52.7 19,52.5 19.1,52.4 19.2,52.3 
	19.2,52.1 19.3,52 19.4,51.8 19.4,51.7 19.4,51.5 19.5,51.5 "/>
<polygon class="st2" points="20,50.4 20,50.2 19.9,50.2 19.9,50.2 19.9,50.3 19.8,50.3 19.8,50.3 19.8,50.4 19.7,50.4 19.7,50.4 
	19.7,50.5 19.7,50.5 19.6,50.5 19.6,50.6 19.6,50.6 19.5,50.7 19.5,50.7 19.5,50.7 19.5,50.8 19.4,50.8 19.4,50.9 19.4,50.9 
	19.4,50.9 19.4,51 19.3,51 19.3,51.1 19.3,51.1 19.3,51.2 19.3,51.2 19.2,51.3 19.2,51.3 19.2,51.4 19.2,51.4 19.2,51.5 19.5,51.5 
	19.5,51.5 19.5,51.4 19.5,51.4 19.5,51.3 19.5,51.3 19.5,51.3 19.5,51.2 19.5,51.2 19.6,51.1 19.6,51.1 19.6,51.1 19.6,51 19.6,51 
	19.7,50.9 19.7,50.9 19.7,50.9 19.7,50.8 19.8,50.8 19.8,50.8 19.8,50.7 19.8,50.7 19.9,50.7 19.9,50.6 19.9,50.6 19.9,50.6 
	20,50.5 20,50.5 20,50.5 20.1,50.4 20.1,50.4 20.1,50.4 20.1,50.3 20.1,50.1 20.1,50.3 20.3,50.2 20.1,50.1 "/>
<polygon class="st2" points="19.2,49.6 19.2,49.6 19.2,49.6 19.2,49.6 19.2,49.7 19.2,49.7 19.2,49.8 19.2,49.8 19.3,49.8 
	19.3,49.9 19.3,49.9 19.3,49.9 19.3,50 19.4,50 19.4,50 19.4,50.1 19.4,50.1 19.5,50.1 19.5,50.1 19.5,50.2 19.6,50.2 19.6,50.2 
	19.6,50.2 19.7,50.2 19.7,50.3 19.7,50.3 19.8,50.3 19.8,50.3 19.8,50.3 19.9,50.3 19.9,50.3 20,50.4 20,50.4 20,50.4 20.1,50.1 
	20,50.1 20,50.1 20,50.1 19.9,50.1 19.9,50.1 19.9,50.1 19.9,50.1 19.8,50.1 19.8,50.1 19.8,50 19.7,50 19.7,50 19.7,50 19.7,50 
	19.7,50 19.6,49.9 19.6,49.9 19.6,49.9 19.6,49.9 19.6,49.9 19.5,49.8 19.5,49.8 19.5,49.8 19.5,49.8 19.5,49.7 19.5,49.7 
	19.5,49.7 19.4,49.6 19.4,49.6 19.4,49.6 19.4,49.5 19.4,49.5 "/>
<polygon class="st2" points="17.2,42.3 17.4,43.2 17.7,44.1 17.9,45 18.2,45.9 18.4,46.8 18.7,47.7 18.9,48.7 19.2,49.6 19.4,49.5 
	19.2,48.6 18.9,47.7 18.7,46.8 18.4,45.9 18.2,45 17.9,44 17.7,43.1 17.4,42.2 "/>
<polygon class="st2" points="17.8,40.7 17.8,40.7 17.7,40.8 17.7,40.8 17.7,40.9 17.6,40.9 17.6,40.9 17.6,41 17.5,41 17.5,41.1 
	17.5,41.1 17.4,41.2 17.4,41.2 17.4,41.2 17.3,41.3 17.3,41.3 17.3,41.4 17.3,41.4 17.2,41.5 17.2,41.5 17.2,41.6 17.2,41.6 
	17.2,41.7 17.2,41.7 17.2,41.8 17.2,41.9 17.1,41.9 17.1,42 17.2,42 17.2,42.1 17.2,42.2 17.2,42.2 17.2,42.3 17.4,42.2 17.4,42.2 
	17.4,42.1 17.4,42.1 17.4,42 17.4,42 17.4,41.9 17.4,41.9 17.4,41.8 17.4,41.8 17.4,41.7 17.4,41.7 17.4,41.7 17.5,41.6 17.5,41.6 
	17.5,41.5 17.5,41.5 17.5,41.4 17.6,41.4 17.6,41.4 17.6,41.3 17.6,41.3 17.7,41.2 17.7,41.2 17.7,41.2 17.8,41.1 17.8,41.1 
	17.8,41 17.8,41 17.9,41 17.9,40.9 18,40.9 18,40.8 "/>
<polygon class="st2" points="42.6,37.6 42.6,37.5 42.6,37.5 42.6,37.4 42.6,37.4 42.6,37.4 42.6,37.3 42.6,37.3 42.6,37.2 
	42.6,37.2 42.6,37.1 42.6,37.1 42.6,37.1 42.6,37 42.7,37 42.7,36.9 42.7,36.9 42.7,36.8 42.8,36.8 42.8,36.8 42.8,36.7 42.8,36.7 
	42.9,36.6 42.9,36.6 42.9,36.5 42.9,36.5 43,36.4 43,36.4 43.1,36.4 43.1,36.3 43.1,36.3 43.2,36.2 43.2,36.2 43,36 43,36.1 
	42.9,36.1 42.9,36.2 42.8,36.2 42.8,36.3 42.8,36.3 42.7,36.3 42.7,36.4 42.7,36.4 42.6,36.5 42.6,36.5 42.6,36.6 42.6,36.6 
	42.5,36.7 42.5,36.7 42.5,36.8 42.5,36.8 42.4,36.9 42.4,36.9 42.4,37 42.4,37 42.4,37.1 42.4,37.1 42.3,37.2 42.3,37.2 42.3,37.3 
	42.3,37.3 42.3,37.4 42.3,37.4 42.3,37.5 42.3,37.5 42.3,37.6 42.3,37.6 "/>
<polygon class="st2" points="43.2,47.3 43.1,46.1 43,44.9 42.9,43.6 42.9,42.4 42.8,41.2 42.7,40 42.6,38.8 42.6,37.6 42.3,37.6 
	42.4,38.8 42.5,40 42.5,41.2 42.6,42.4 42.7,43.7 42.8,44.9 42.8,46.1 42.9,47.3 42.9,47.3 "/>
<polygon class="st2" points="44.1,48.3 44.1,48.3 44,48.3 44,48.2 43.9,48.2 43.9,48.2 43.8,48.1 43.8,48.1 43.7,48.1 43.7,48.1 
	43.7,48 43.6,48 43.6,48 43.6,47.9 43.5,47.9 43.5,47.9 43.4,47.9 43.4,47.8 43.4,47.8 43.4,47.8 43.3,47.7 43.3,47.7 43.3,47.7 
	43.3,47.6 43.3,47.6 43.2,47.6 43.2,47.5 43.2,47.5 43.2,47.4 43.2,47.4 43.2,47.4 43.2,47.3 43.2,47.3 42.9,47.3 42.9,47.4 
	42.9,47.4 42.9,47.5 42.9,47.5 43,47.6 43,47.6 43,47.7 43,47.7 43.1,47.7 43.1,47.8 43.1,47.8 43.1,47.9 43.2,47.9 43.2,47.9 
	43.2,48 43.3,48 43.3,48.1 43.3,48.1 43.4,48.1 43.4,48.2 43.5,48.2 43.5,48.2 43.6,48.3 43.6,48.3 43.6,48.3 43.7,48.4 43.7,48.4 
	43.8,48.4 43.8,48.4 43.9,48.5 43.9,48.5 44,48.5 "/>
<path class="st2" d="M76.3,40c1,0.3,2.1,0.6,3.1,1c0.6,2.5,1.3,5,1.9,7.6c0.6-1.6,1.2-3.1,1.7-4.7c0.2-0.6-0.2-1.2-0.4-1.7
	c1.2,0.4,2.3,0.8,3.5,1.2c-0.6,0.2-1.1,0.4-1.4,1.1c-1.2,3.4-2.4,6.8-3.6,10.2c-0.4-0.1-0.9-0.3-1.3-0.4c-0.7-3-1.4-6-2.1-9.1
	c-0.7,2-1.3,3.9-2,5.9c-0.2,0.7,0.1,1.2,0.5,1.8c-1-0.3-2-0.6-3-0.9v-0.3c0.4-0.2,0.8-0.5,1-1.1c0.9-2.9,1.8-5.9,2.7-8.9
	C77,40.9,76.6,40.4,76.3,40L76.3,40z M73.2,46.1c0-0.2,0.1-0.3,0.1-0.5c0.4-1.8,0.3-3.4-0.1-4.8V46.1L73.2,46.1z M73.2,51.8
	c-0.1,0-0.2-0.1-0.4-0.1c0.1,0,0.2-0.1,0.4-0.2V51.8L73.2,51.8z M73.2,40.9v5.3c-0.7,2.7-2.4,4.5-4.5,4.8v-1.9
	c1-0.6,1.7-2.3,2.1-4.1c0.5-2.3,0.7-4.9-0.9-5.3c-0.4-0.1-0.8-0.1-1.1,0.1v-1.7c0.5-0.1,1.1,0,1.7,0.2
	C71.8,38.6,72.7,39.6,73.2,40.9L73.2,40.9z M68.7,38.1v1.7c-1.2,0.5-1.6,2.4-2,4c-0.4,1.9-1.1,4.9,0.7,5.4c0.5,0.2,0.9,0.1,1.2-0.1
	V51c-0.6,0.1-1.3,0-2-0.2c-2.8-1-3.4-4.4-2.7-7.3C64.8,40.5,66.4,38.3,68.7,38.1L68.7,38.1z M30.4,50.2v-0.6
	c0.2,0.2,0.4,0.3,0.8,0.5C30.9,50.1,30.7,50.1,30.4,50.2L30.4,50.2z M30.4,38.4c0.2,0.2,0.4,0.4,0.5,0.7c0.5,3.2,0.9,6.5,1.4,9.7
	c0,0.3-0.1,0.7-0.4,1c0.9-0.2,1.8-0.3,2.7-0.5C34.4,49,34,48.8,34,48.4c-0.3-1.9-0.6-3.8-0.9-5.7c1.3,2,2.5,4,3.8,6.1
	c0.9-2.6,1.7-5.2,2.6-7.8c0.2,2.2,0.3,4.5,0.5,6.7c0,0.4-0.2,0.7-0.5,1.1c1.4-0.1,2.7-0.2,4.1-0.4c-0.5-0.3-1-0.6-1-1.1
	c-0.2-3.2-0.4-6.5-0.6-9.7c-0.1-0.5,0.2-1,0.6-1.5c-1.1,0.1-2.3,0.2-3.4,0.4c-0.7,2.3-1.5,4.6-2.2,6.9c-1.2-2-2.4-4-3.7-6
	c-0.9,0.2-1.8,0.3-2.7,0.5v0.5H30.4z M62.6,36.8c-0.1,1.4-0.2,2.7-0.4,4.1c-0.9-1.5-1.8-3.1-3.4-2.8c-1,0.1-1.5,0.5-1.6,1.4
	c0.1,1.3,1.5,1.9,2.9,2.6c1.3,0.7,2.2,1.9,2.1,3.7c0,2-1.5,3.3-3.8,3.6c-1.1,0.1-2.2-0.2-3.1-0.8c-0.4-0.3-0.9-0.1-1.1,0.2
	c0-1.3,0-2.7,0-4c0.9,1.6,2.1,2.8,3.7,3.1c1.2,0.2,1.8-0.7,1.7-1.7c-0.2-1.5-1.6-2-2.7-2.6c-1.4-0.9-2.4-2.1-2.3-3.8
	c0.2-2.2,1.8-3.3,4.2-3.3c0.9,0,1.9,0.4,2.8,0.8C61.9,37.4,62.3,37.2,62.6,36.8L62.6,36.8z M44.6,36.1c2.7,0,5.4,0,8.1,0
	c0,0.9,0,1.8,0,2.7c-0.4-0.6-1-1-1.5-1c-1.2,0-2.2,0-3.5,0c0,1.1,0,2.2,0,3.3c0.8,0,1.6,0,2.5,0c0.4,0,0.8-0.5,1.1-1.1
	c0,1.2,0,2.5,0,3.7c-0.3-0.4-0.7-0.8-1.1-0.8c-0.8,0-1.7,0-2.5,0c0,1.3,0,2.5,0,3.8c1.2,0,2.4,0,3.6,0.1c0.5,0,0.8-0.5,1.2-0.9
	c-0.1,0.9-0.2,1.7-0.3,2.6c-2.6,0-5.3,0-7.9,0c0.5-0.4,0.9-0.8,1-1.3c0-3.3,0-6.6,0-9.9C45.3,36.8,45,36.4,44.6,36.1L44.6,36.1z
	 M30.4,37.8v0.6c-0.2-0.2-0.5-0.3-0.8-0.5C29.9,37.9,30.2,37.9,30.4,37.8L30.4,37.8z M30.4,49.5v0.6c-1.1,0.3-2.1,0.5-3.2,0.8
	c0.2-0.4,0.5-0.7,0.3-1.2c-0.4-0.7-0.7-1.4-1.1-2.1l-2,0.4v-1.7l1.1-0.2c-0.4-0.7-0.8-1.5-1.1-2.2v-4.8c0.4-0.1,0.8-0.2,1.2-0.3
	c-0.2,0.4-0.4,0.8-0.2,1.2c1.6,3,3.1,6.1,4.7,9.1C30.2,49.3,30.3,49.4,30.4,49.5L30.4,49.5z M24.5,39.1v4.8
	c-0.3-0.6-0.6-1.1-0.9-1.7c-0.1,1.4-0.2,2.9-0.3,4.3l1.1-0.2V48l-1.3,0.3C23,49.2,23,50.1,22.9,51c0,0.3,0.3,0.6,0.6,0.8
	c-1,0.2-2,0.4-2.9,0.6c0.2-0.3,0.5-0.6,0.5-1.1c0.3-3.5,0.6-7.1,0.8-10.6c0-0.6-0.4-0.8-0.8-1.1C22.4,39.5,23.4,39.3,24.5,39.1
	L24.5,39.1z M11.6,51.8v-0.2c0.1-1.4,2.2-2.2,2.9-0.6c0.2,0.4,0.1,0.9-0.1,1.5c0.7,0.5,2.4,0.5,2.1-1c-0.6-2.8-1.5-5.6-2.2-8.5
	c-0.2-0.6-0.8-0.7-1.2-0.9c1.4-0.4,2.8-0.8,4.2-1.2c-0.4,0.5-0.8,0.8-0.6,1.5c0.6,2.4,1.3,4.9,2,7.3c0.1,0.4,0.4,0.7,0.8,0.7
	c-0.3,0.3-0.6,0.7-0.7,1.2c-0.4,1.6-1.6,2.8-3.8,2.8c-2.1,0-2.8-1-3.2-2.2C11.6,52.1,11.6,51.9,11.6,51.8L11.6,51.8z"/>
</svg>
