<?xml version="1.0" encoding="utf-8"?>
<!-- Generator: Adobe Illustrator 21.0.0, SVG Export Plug-In . SVG Version: 6.00 Build 0)  -->
<svg version="1.1" id="Layer_1" xmlns="http://www.w3.org/2000/svg" xmlns:xlink="http://www.w3.org/1999/xlink" x="0px" y="0px"
	 viewBox="0 0 96.4 130.4" style="enable-background:new 0 0 96.4 130.4;" xml:space="preserve">
<style type="text/css">
	.st0{fill:#325C67;}
	.st1{fill:#FFFFFF;}
</style>
<g>
	<path class="st0" d="M48.2,1.7C22.5,1.7,1.7,22.5,1.7,48.2c0,27.5,46.5,80.5,46.5,80.5s46.5-51,46.5-80.5
		C94.7,22.5,73.9,1.7,48.2,1.7z M48.2,74.9c-15.8,0-28.6-12.8-28.6-28.6c0-15.8,12.8-28.6,28.6-28.6c15.8,0,28.6,12.8,28.6,28.6
		C76.8,62.1,64,74.9,48.2,74.9z"/>
	<circle class="st0" cx="46.9" cy="46.2" r="31.9"/>
</g>
<g>
	<g>
		<path class="st1" d="M66.1,24.1c0,12,0,23.7,0,35.6c-3.8,0-7.5,0-11.2,0c-6.2,0-12.4,0-18.6,0c-0.9,0-2.1,0-2.8,0.5
			c-0.9,0.6-1.9,1.7-2,2.7c-0.1,1,0.8,2.3,1.6,2.9c0.9,0.6,2.3,0.7,3.4,0.7c9.7,0,19.5,0,29.3,0c0.5,1.3,0.4,2-1.2,1.9
			c-9.8,0-19.6,0-29.5,0c-3.6,0-5.8-2.4-5.8-6c0-10.7,0-21.4,0-32.1c0-3.9,2.3-6.3,6.1-6.3c9.8-0.1,19.6,0,29.5,0
			C65.4,24,65.7,24,66.1,24.1z M59.4,31.9c-7.5,0-14.8,0-22,0c0,1.9,0,3.7,0,5.4c7.4,0,14.7,0,22,0C59.4,35.4,59.4,33.7,59.4,31.9z"
			/>
	</g>
	<rect x="35.1" y="31.8" class="st1" width="27.3" height="7"/>
	<path class="st0" d="M54.3,23.9c2.4,0,4.7,0,7.2,0c0,6.8,0,13.8,0,21c-1.2-1.2-2.3-2.4-3.6-3.7c-1.1,1.2-2.3,2.4-3.6,3.8
		C54.3,37.8,54.3,30.9,54.3,23.9z"/>
</g>
</svg>
