<?xml version="1.0" encoding="utf-8"?>
<!-- Generator: Adobe Illustrator 21.0.0, SVG Export Plug-In . SVG Version: 6.00 Build 0)  -->
<svg version="1.1" id="Layer_1" xmlns="http://www.w3.org/2000/svg" xmlns:xlink="http://www.w3.org/1999/xlink" x="0px" y="0px"
	 viewBox="0 0 96.4 130.4" style="enable-background:new 0 0 96.4 130.4;" xml:space="preserve">
<style type="text/css">
	.st0{fill:#D82A2A;stroke:#FFFFFF;stroke-miterlimit:10;}
	.st1{fill:#D82A2A;}
	.st2{fill:#FFFFFF;}
</style>
<g>
	<path class="st0" d="M48.2,1.7C22.5,1.7,1.7,22.5,1.7,48.2c0,27.5,46.5,80.5,46.5,80.5s46.5-51,46.5-80.5
		C94.7,22.5,73.9,1.7,48.2,1.7z M48.2,74.9c-15.8,0-28.6-12.8-28.6-28.6s12.8-28.6,28.6-28.6s28.6,12.8,28.6,28.6S64,74.9,48.2,74.9
		z"/>
	<circle class="st1" cx="46.9" cy="46.2" r="31.9"/>
</g>
<g>
	<path class="st2" d="M47.9,22.4c0.3,0,0.6,0,0.9,0c2.5,2.4,6.5,2.9,7.9,6.7c3.9-1.2,7.7-2.4,11.6-3.6c0.7-0.2,1.5,0,2.3,0
		c0,0.3,0,0.6,0,0.9C65.3,28.2,60,30,54.2,31.9c0.6,0.5,1,1.1,1.5,1.2c5,1.7,9.9,3.3,14.9,4.9c0,0.3,0,0.6,0,0.9
		c-0.8,0-1.6,0.2-2.3,0c-3.9-1.1-7.8-2.4-11.7-3.6c-0.3,0.8-0.4,1.8-1,2.2c-1.3,0.9-1.1,1.8-0.8,3.1c1.9,8,3.7,16,5.5,24
		c0.2,0.7,0,1.5-0.1,2.3c-8,0-16,0-24.1,0c0-0.8-0.2-1.6-0.1-2.3c1.8-8.2,3.7-16.3,5.6-24.5c0.1-0.6,0.1-1.4-0.2-2
		c-0.4-0.9-1.1-1.8-1.8-2.8c-3.7,1.1-7.6,2.4-11.5,3.5c-0.7,0.2-1.5,0-2.3,0c0-0.3,0-0.6,0-0.9c5-1.6,9.9-3.2,14.9-4.9
		c0.5-0.2,0.9-0.7,1.5-1.2C36.6,30,31.3,28.2,26,26.5c0-0.3,0-0.6,0-0.9c0.8,0,1.7-0.2,2.5,0c3.9,1.1,7.7,2.4,11,3.4
		c1.1-1.2,1.9-2.2,2.8-2.9C44.1,24.8,46,23.7,47.9,22.4z M55,48.9c-0.4-1.4-0.7-2.5-1-3.8c-3.5,1.7-6.7,3.6-10.1,4.9
		c-2.9,1.1-3.6,3.2-3.8,6.2C45.2,53.7,50,51.3,55,48.9z M39.4,64.8c7.1,2,12.3-1.9,18.1-4.7c-0.3-1.3-0.6-2.5-0.9-3.8
		C50.8,59.2,45.1,62,39.4,64.8z M43.7,32.4c0.2,0.2,0.4,0.4,0.5,0.6c2.8,0,5.6,0,8.4,0c0.1-0.2,0.2-0.4,0.3-0.6c-0.5-0.4-1-1-1.5-1
		c-2.1-0.1-4.2-0.1-6.2,0C44.7,31.4,44.2,32.1,43.7,32.4z M44,38.6c-0.2,1.2-0.5,2.2-0.7,3.6c2.5-1.2,4.6-2.3,6.7-3.3
		c0-0.1-0.1-0.2-0.1-0.3C48,38.6,46.1,38.6,44,38.6z"/>
</g>
</svg>
