<?xml version="1.0" encoding="utf-8"?>
<!-- Generator: Adobe Illustrator 21.0.0, SVG Export Plug-In . SVG Version: 6.00 Build 0)  -->
<svg version="1.1" id="Layer_1" xmlns="http://www.w3.org/2000/svg" xmlns:xlink="http://www.w3.org/1999/xlink" x="0px" y="0px"
	 viewBox="0 0 96.4 130.4" style="enable-background:new 0 0 96.4 130.4;" xml:space="preserve">
<style type="text/css">
	.st0{fill:#325C67;}
	.st1{fill:#FFFFFF;}
</style>
<g>
	<path class="st0" d="M48.2,1.7C22.5,1.7,1.7,22.5,1.7,48.2c0,27.5,46.5,80.5,46.5,80.5s46.5-51,46.5-80.5
		C94.7,22.5,73.9,1.7,48.2,1.7z M48.2,74.9c-15.8,0-28.6-12.8-28.6-28.6c0-15.8,12.8-28.6,28.6-28.6c15.8,0,28.6,12.8,28.6,28.6
		C76.8,62.1,64,74.9,48.2,74.9z"/>
	<circle class="st0" cx="46.9" cy="46.2" r="31.9"/>
</g>
<g>
	<path class="st1" d="M74.1,35.9c-1.6,0.3-3.2,0.9-4.8,1C55.1,37,41,37,26.8,36.9c-1.6,0-3.2-0.6-4.8-1c0-1.3,0-2.7,0-4
		c4.6-2.3,9.2-4.5,13.8-6.9c3.8-2,7.5-4.1,11.2-6.1c0.7,0,1.3,0,2,0c1.2,0.8,2.4,1.6,3.7,2.3c7.1,3.6,14.2,7.1,21.3,10.7
		C74.1,33.3,74.1,34.6,74.1,35.9z"/>
	<path class="st1" d="M22.1,63.9c1.6-0.3,3.2-0.9,4.8-1c14.2-0.1,28.3-0.1,42.5,0c1.6,0,3.2,0.6,4.8,1c0,2.3,0,4.7,0,7
		c-17.3,0-34.7,0-52,0C22.1,68.6,22.1,66.3,22.1,63.9z"/>
	<path class="st1" d="M37.8,39.3c0.1,0.3,0.2,0.5,0.1,0.7c-2.9,5.5-1.6,11.5-1.9,17.3c0,1,0,2,0,3.3c-2.6,0-4.9,0-8,0
		c0-3.5-0.2-7.1,0.1-10.6c0.3-3.7-0.5-7-2.6-10.6C30.1,39.3,34,39.3,37.8,39.3z"/>
	<path class="st1" d="M44.3,60.7c-1.1-7.2,1.3-14.5-2.5-21.5c4.3,0,8.1,0,11.8,0c0.2,0.5,0.5,0.9,0.4,1.1c-2.4,3.8-1.9,8.1-1.9,12.3
		c0,2.6,0,5.2,0,8.1C49.4,60.7,47.1,60.7,44.3,60.7z"/>
	<path class="st1" d="M68.1,60.7c-3,0-5.2,0-7.6,0c-1.5-7.2,1.7-14.6-3.1-21.5c4.8,0,8.5,0,12.2,0c0.2,0.4,0.5,0.8,0.4,1
		c-2.6,4.2-1.8,8.8-1.9,13.3C68,55.8,68.1,58.1,68.1,60.7z"/>
</g>
</svg>
