<?xml version="1.0" encoding="utf-8"?>
<!-- Generator: Adobe Illustrator 21.0.0, SVG Export Plug-In . SVG Version: 6.00 Build 0)  -->
<svg version="1.1" id="Layer_1" xmlns="http://www.w3.org/2000/svg" xmlns:xlink="http://www.w3.org/1999/xlink" x="0px" y="0px"
	 viewBox="0 0 96.4 130.4" style="enable-background:new 0 0 96.4 130.4;" xml:space="preserve">
<style type="text/css">
	.st0{fill:#325C67;}
	.st1{fill:#FFFFFF;}
</style>
<g>
	<path class="st0" d="M48.2,1.7C22.5,1.7,1.7,22.5,1.7,48.2c0,27.5,46.5,80.5,46.5,80.5s46.5-51,46.5-80.5
		C94.7,22.5,73.9,1.7,48.2,1.7z M48.2,74.9c-15.8,0-28.6-12.8-28.6-28.6c0-15.8,12.8-28.6,28.6-28.6c15.8,0,28.6,12.8,28.6,28.6
		C76.8,62.1,64,74.9,48.2,74.9z"/>
	<circle class="st0" cx="46.9" cy="46.2" r="31.9"/>
</g>
<g>
	<path class="st1" d="M57.2,27.1c2.2-0.4,4.3-0.7,6,0.9c0.7,0.6,1.2,1.6,1.4,2.4c0.1,1,0.5,2.1-0.3,3.1c0.8,0.6,1.7,1.2,2.5,1.8
		c0.3,0.2,0.6,0.6,0.6,0.9c0,0.8,0.5,1,1.2,1.4c2.6,1.2,3.7,3.9,2.6,6.9c-0.3,0.7-1.6,1.9-2.7,2.6c2.1,2.3,1.9,5.8,0,7.4
		C66.5,56,63,57,60.3,53.5c-1.4,0.4-2.6,1.3-4.1,0.6c-0.1-0.1-0.4,0-0.5,0.1c-0.7,0.9-1.9,1-2.9,1.4c-0.5,0.2-1.4-0.1-2-0.5
		c-0.8-0.5-1.4-0.5-2.1,0c-0.2,0.1-0.4,0.2-0.6,0.2c-1.4,0-2.8,0.2-4.2,0.4c-1.7,0.2-3.1,0.4-4.6,1.4c-2.4,1.6-5.3,0-6.2-1.6
		c-0.7-1.2-1.4-1.6-2.6-1.6c-0.6,0-1.3-0.5-1.7-0.9c-0.8-0.8-1.6-1.8-1.8-2.9c-0.2-1.2-0.3-2.6,0.7-3.6c0.5-0.5,0.7-1.5,1.6-1.6
		c1-0.2,1.5-0.9,1.5-1.9c0-0.2,0.3-0.5,0.6-0.8c-2.3-0.5-3.5-1.9-4.2-4c-0.5-1.6-0.1-2.9,0.9-4.1c0.2-0.3,0.5-0.6,0.8-0.8
		c1-1,1.4-1.7,1.8-3.2c0.4-1.4,2.5-3.1,4-3.1c0.9,0,1.9,0,2.8,0c0.8-2.5,2.6-3.7,5.1-3.7c0.6,0,1-0.2,1.4-0.5c1-0.7,2-1.4,3.4-1.4
		c2.3,0,4,0.9,5.2,2.9c0.2,0.3,0.6,0.9,0.9,0.8c1.7-0.1,2.6,1,3.6,2C57.1,27,57.3,27.2,57.2,27.1z"/>
	<path class="st1" d="M53.9,56.9c0,1.4,0,2.4,0,3.4c0,1.6,1.1,2.8,2.7,2.9c0.7,0,1.4,0,2.1,0c0.5,0.6,1.5,1,1.2,2
		c-0.3,1-1.3,0.8-2.2,0.8c-5.8,0-11.6,0-17.4,0c-1.3,0-1.7-0.3-1.8-1.1c-0.1-1,0.6-1.9,1.6-2.1c0.9-0.2,1.9-0.3,2.8-0.5
		c0.8-0.1,1.5-0.6,2.1-1.1c0.6-0.5,0.5-1.1,0.5-1.7c0-0.7,0-1.4,0-2.3c1,0,2,0.2,2.9-0.1c1.2-0.3,2.2-0.2,3.2,0.3
		C52.3,57.8,53.1,57.8,53.9,56.9z"/>
</g>
</svg>
