<?xml version="1.0" encoding="utf-8"?>
<!-- Generator: Adobe Illustrator 21.0.0, SVG Export Plug-In . SVG Version: 6.00 Build 0)  -->
<svg version="1.1" id="Layer_1" xmlns="http://www.w3.org/2000/svg" xmlns:xlink="http://www.w3.org/1999/xlink" x="0px" y="0px"
	 viewBox="0 0 96.4 130.4" style="enable-background:new 0 0 96.4 130.4;" xml:space="preserve">
<style type="text/css">
	.st0{fill:#325C67;}
	.st1{fill:#FFFFFF;}
</style>
<g>
	<path class="st0" d="M48.2,1.7C22.5,1.7,1.7,22.5,1.7,48.2c0,27.5,46.5,80.5,46.5,80.5s46.5-51,46.5-80.5
		C94.7,22.5,73.9,1.7,48.2,1.7z M48.2,74.9c-15.8,0-28.6-12.8-28.6-28.6c0-15.8,12.8-28.6,28.6-28.6c15.8,0,28.6,12.8,28.6,28.6
		C76.8,62.1,64,74.9,48.2,74.9z"/>
	<circle class="st0" cx="46.9" cy="46.2" r="31.9"/>
</g>
<path class="st1" d="M50.5,25.7c6.2-4.7,6.2-4.6,11.6,0.6c1.5,1.4,3.7,2.1,5.3,3.4c1.2,0.9,2.7,2.3,2.9,3.6
	c1.3,9.8,2.3,19.6,3.2,29.4c0.3,3-1.3,4.7-4.3,4.7c-13.1,0.1-26.2,0.1-39.2,0c-2.9,0-4.5-1.8-4.2-4.7c1-9.8,2-19.6,3.2-29.4
	c0.1-1,0.7-2.1,1.5-2.8c3.4-3.1,7.1-5.8,10.4-9c2.2-2.2,3.8-2.2,5.7,0.1C47.8,23,49.1,24.3,50.5,25.7z M49.6,53.5
	c5.3,0.1,9.6-4,10.1-9.5c0.1-1.2,0.9-2.3,1.1-3.5c0.2-1.2,0.5-2.6,0-3.6c-0.3-0.7-2.1-1.4-2.7-1.1c-1,0.5-2.1,1.7-2.3,2.7
	c-0.4,1.6-0.1,3.3-0.2,5c-0.2,3.5-2.6,6-5.9,6c-3.3,0.1-5.9-2.5-6.1-6.1c-0.1-1.7,0.3-3.4-0.2-5c-0.3-1.1-1.4-2.2-2.4-2.6
	c-0.7-0.3-2.3,0.5-2.7,1.2c-0.5,0.9-0.2,2.2,0,3.3c0.3,1.3,1.1,2.5,1.3,3.8C40.3,49.3,44.4,53.4,49.6,53.5z M39.5,29.3
	c2.8,0,5.7,0,8.6,0c-1.6-1.6-3-3-4.4-4.4C42.3,26.3,40.9,27.8,39.5,29.3z M56.3,26.2c-1,1-1.7,1.8-2.9,3c2.3,0,3.8,0,5.7,0
	C58.1,28.2,57.4,27.4,56.3,26.2z"/>
</svg>
