<?xml version="1.0" encoding="utf-8"?>
<!-- Generator: Adobe Illustrator 21.0.0, SVG Export Plug-In . SVG Version: 6.00 Build 0)  -->
<svg version="1.1" id="Layer_1" xmlns="http://www.w3.org/2000/svg" xmlns:xlink="http://www.w3.org/1999/xlink" x="0px" y="0px"
	 viewBox="0 0 96.4 130.4" style="enable-background:new 0 0 96.4 130.4;" xml:space="preserve">
<style type="text/css">
	.st0{fill:#325C67;}
	.st1{fill:#FFFFFF;}
</style>
<g>
	<path class="st0" d="M48.2,1.7C22.5,1.7,1.7,22.5,1.7,48.2c0,27.5,46.5,80.5,46.5,80.5s46.5-51,46.5-80.5
		C94.7,22.5,73.9,1.7,48.2,1.7z M48.2,74.9c-15.8,0-28.6-12.8-28.6-28.6c0-15.8,12.8-28.6,28.6-28.6c15.8,0,28.6,12.8,28.6,28.6
		C76.8,62.1,64,74.9,48.2,74.9z"/>
	<circle class="st0" cx="46.9" cy="46.2" r="31.9"/>
</g>
<g>
	<path class="st1" d="M43,72.4c0.9-0.7,1.6-1.2,2.3-1.7c6.7-4.8,11.3-11.2,13.1-19.3c0.5-2.3,1.5-2.5,3.4-2.2
		c4.6,0.6,4.7,0.7,3.5,5.2c-1.6,5.9-4.7,10.8-8.8,15.3C52.6,73.8,48.3,73.9,43,72.4z"/>
	<path class="st1" d="M31.6,32.6c0.7,9.7,4.3,17.7,11.3,24.3c0.4,0.4,0.5,1.6,0.2,2.1c-2.8,4.9-3.7,5-7.5,1
		c-4.4-4.7-7.1-10.2-8.6-16.5C25.9,38.6,28.8,35.7,31.6,32.6z"/>
	<path class="st1" d="M72,42.5c-6.6-3.3-13.4-4.9-20.6-3.9c-1.7,0.2-3.4,0.7-5.1,1c-0.9,0.1-2.5,0.4-2.7,0c-0.9-1.7-1.4-3.7-2-5.6
		c0-0.2,0.9-0.7,1.4-0.9c8-2.7,16-2.7,23.8,0.7C70.3,35.3,70.8,39.1,72,42.5z"/>
	<path class="st1" d="M72.9,50.4c-5.4-2.6-11-3.8-17-3.5c-0.7,0-1.4,0-2.1,0.1c-5.5,0.6-5.8,0.4-8.7-4.8c3.3-1.6,6.8-1.9,10.4-1.9
		c5,0,9.8,1.3,14.3,3.7C73.3,45.9,73.4,46,72.9,50.4z"/>
	<path class="st1" d="M35.7,69.2c6.8-4.6,11.2-10.7,13.8-18.3c0.2-0.6,1.4-1.2,2.2-1.4c1.5-0.4,3.1-0.4,5-0.7
		c-0.8,5.6-3,10.3-6.5,14.3c-2,2.3-4.4,4.3-6.8,6.1C39.9,72,39.8,71.8,35.7,69.2z"/>
	<path class="st1" d="M45.1,55.9c-7.7-6.8-11.2-15-10.8-24.9c0-1.3,2-2.4,3.1-3.6c0.2,0.1,0.5,0.2,0.7,0.3c0.2,1.3,0.3,2.7,0.6,4
		c1.1,5.6,3.2,10.8,7,15c1.9,2.1,2.1,3.9,0.8,6.3C46,53.8,45.6,54.7,45.1,55.9z"/>
	<path class="st1" d="M68.1,51.1c4.6,0.8,5.2,1.6,3.8,5.6c-2.4,6.9-7,11.8-13.8,14.5C63.5,65.5,66.8,58.7,68.1,51.1z"/>
	<path class="st1" d="M37.8,64.8c-4.1,3.5-4.2,3.5-7.2-0.1c-4.5-5.3-6.3-11.4-5.4-18.4C27.6,53.7,31.7,59.8,37.8,64.8z"/>
	<path class="st1" d="M63.2,30c-7.5-1.8-14.9-1.2-22.1,1.4c-1.5-4.5-1.1-5.2,3.1-6C51.3,24,58.3,25.7,63.2,30z"/>
</g>
</svg>
