<?xml version="1.0" encoding="utf-8"?>
<!-- Generator: Adobe Illustrator 21.0.0, SVG Export Plug-In . SVG Version: 6.00 Build 0)  -->
<svg version="1.1" id="Layer_1" xmlns="http://www.w3.org/2000/svg" xmlns:xlink="http://www.w3.org/1999/xlink" x="0px" y="0px"
	 viewBox="0 0 96.4 130.4" style="enable-background:new 0 0 96.4 130.4;" xml:space="preserve">
<style type="text/css">
	.st0{fill:#325C67;}
	.st1{fill:#FFFFFF;}
</style>
<g>
	<path class="st0" d="M48.2,1.7C22.5,1.7,1.7,22.5,1.7,48.2c0,27.5,46.5,80.5,46.5,80.5s46.5-51,46.5-80.5
		C94.7,22.5,73.9,1.7,48.2,1.7z M48.2,74.9c-15.8,0-28.6-12.8-28.6-28.6c0-15.8,12.8-28.6,28.6-28.6c15.8,0,28.6,12.8,28.6,28.6
		C76.8,62.1,64,74.9,48.2,74.9z"/>
	<circle class="st0" cx="46.9" cy="46.2" r="31.9"/>
</g>
<g>
	<path class="st1" d="M50.9,22.1c0.5,2,1.4,4,0.2,6.2c-0.3,0.5,0.5,1.7,1,2.4c1,1.2,2.5,2.1,3.3,3.5c2,3.5,2,3.7-0.9,6.8
		c-1.2,1.2-1.4,2.5-1.5,4c-0.4,4.3-0.8,8.6-1.3,12.8c-0.1,1.3-0.5,2.6-0.7,4c-0.7,0.1-1.3,0.2-2,0.3c-2.1,0.3-2.9-0.6-3-2.7
		c-0.3-5-0.8-9.9-1.4-14.8c-0.1-1.2-0.8-2.4-1.4-3.5c-0.6-1.3-2.2-2.6-2-3.6c0.4-2,1.7-3.9,2.8-5.7c0.3-0.5,1.1-0.8,1.7-1.1
		c1.3-0.6,1.7-1.7,1-2.8c-1.3-2-0.1-3.8,0.2-5.7C48.2,22.1,49.5,22.1,50.9,22.1z"/>
	<path class="st1" d="M36.9,74.1c0.2-2.8,1.9-4,4.6-4c4.9,0,9.9,0,14.8,0c2.7,0,4.4,1.2,4.6,4C52.9,74.1,44.9,74.1,36.9,74.1z"/>
	<path class="st1" d="M48.4,68.1c-1.8,0-3.6,0.1-5.5,0c-0.7-0.1-1.7-0.5-1.9-1c-0.4-1.2,0.1-2.3,1.4-2.7c0.5-0.2,1-0.2,1.5-0.2
		c3.3,0,6.6,0,9.9,0c0.5,0,1.2-0.1,1.4,0.2c0.6,0.7,1.3,1.4,1.5,2.3c0.3,1.4-0.9,1.5-1.9,1.5C52.7,68.1,50.5,68.1,48.4,68.1z"/>
</g>
</svg>
