<?xml version="1.0" encoding="utf-8"?>
<!-- Generator: Adobe Illustrator 21.0.0, SVG Export Plug-In . SVG Version: 6.00 Build 0)  -->
<svg version="1.1" id="Layer_1" xmlns="http://www.w3.org/2000/svg" xmlns:xlink="http://www.w3.org/1999/xlink" x="0px" y="0px"
	 viewBox="0 0 96.4 130.4" style="enable-background:new 0 0 96.4 130.4;" xml:space="preserve">
<style type="text/css">
	.st0{fill:#F0ECE0;}
	.st1{fill:#100F0F;}
</style>
<g>
	<path class="st0" d="M48.2,1.7C22.5,1.7,1.7,22.5,1.7,48.2c0,27.5,46.5,80.5,46.5,80.5s46.5-51,46.5-80.5
		C94.7,22.5,73.9,1.7,48.2,1.7z M48.2,74.9c-15.8,0-28.6-12.8-28.6-28.6c0-15.8,12.8-28.6,28.6-28.6c15.8,0,28.6,12.8,28.6,28.6
		C76.8,62.1,64,74.9,48.2,74.9z"/>
	<circle class="st0" cx="46.9" cy="46.2" r="31.9"/>
</g>
<g>
	<g>
		<g>
			<path class="st1" d="M62.3,44.6c0.1,0,0.2,0.4,0.1,0.6c-0.1,0.5-0.3,0.7-0.5,1c-1.4,1.5-3.1,2.8-5.4,3.3c0.5,0,1.1-0.1,1.6-0.2
				c1.4-0.3,2.7-0.8,3.8-1.6c0.1,0,0.2-0.2,0.3-0.2c0.1,0,0,0.2,0,0.2c0,0.5-0.3,0.8-0.6,1.1c-0.1,0.1-0.2,0.2-0.3,0.2
				c-0.2,0.2-0.5,0.3-0.7,0.5c-1.5,0.9-3.4,1.4-5.5,1.5c2.2,0.2,4.5-0.2,6-1.2c0,0.8-0.5,1.2-1,1.5c-1.3,0.9-3.1,1.3-5.1,1.2
				c-0.3,0-0.6,0-1-0.1l0,0c1.6,0.7,4.1,0.9,5.8,0.2c0,0.4-0.2,0.7-0.4,0.9c-0.8,0.5-1.9,0.8-3.1,0.7c-1.2-0.1-2.2-0.5-3-0.9
				c0.7,0.5,1.5,1,2.4,1.2c1,0.3,2,0.4,3.1,0.2c-0.1,0.4-0.4,0.7-0.7,0.8c-1,0.3-2.2,0.2-3.1-0.1c-1-0.3-1.7-0.8-2.4-1.3
				c1.1,1.2,2.5,2.3,4.4,2.5c-0.1,0.3-0.3,0.5-0.5,0.6c-0.1,0-0.3,0.1-0.5,0.1c-0.6,0-1.2-0.2-1.6-0.4c-0.5-0.2-0.9-0.5-1.2-0.8
				c-0.5-0.5-1-1-1.5-1.6c-0.1-0.1-0.1-0.2-0.2-0.3c0-0.1-0.2-0.3-0.2-0.2c-0.1,0,0,0.4,0,0.4c0,0.2,0.2,0.3,0.2,0.5
				c0.6,1.2,1.4,2.2,2.4,2.9c0.6,0.4,1.2,0.7,2,0.9c0.8,0.1,1.7-0.1,2.3-0.5c0.1-0.1,0.3-0.3,0.5-0.2c0.1,0,0.1,0.2,0.1,0.2
				c0,0.2-0.2,0.4-0.2,0.5c-0.1,0.1-0.3,0.2-0.5,0.3c-0.5,0.2-1.1,0.5-1.8,0.5c-0.9,0-1.6-0.4-2.3-0.8c-1-0.6-1.7-1.4-2.3-2.4
				c-0.2-0.2-0.3-0.5-0.5-0.7c-0.1-0.2-0.1-0.3-0.3-0.3c-0.1,0.2,0,0.5,0.1,0.6c0.4,1.4,1,2.6,1.9,3.6c0.7,0.8,1.6,1.5,3,1.6
				c0.3,0,0.6,0,0.9-0.1c0.2,0,0.6-0.1,0.6,0.2c0,0.2-0.5,0.4-0.8,0.4c-1.4,0.3-2.5-0.3-3.4-1c-0.6-0.5-1.1-1.2-1.6-1.9
				c-0.1-0.2-0.2-0.3-0.3-0.5c-0.4-0.7-0.7-1.6-1-2.6c-0.1-0.5-0.2-1-0.3-1.5c0-0.2-0.1-0.5-0.1-0.8c0-0.2,0.1-0.3,0.1-0.5
				c0.1-0.4,0.2-0.7,0.2-1.2c0.2,0,0.4,0,0.5,0c0.5-0.1,1.1-0.6,1.2-1.1c0.1-0.2,0.1-0.4,0.1-0.6c0.1-0.9-0.4-1.5-0.7-1.9
				c-0.1-0.1-0.2-0.3-0.2-0.5c0-0.2,0.4-0.2,0.6-0.3c1.6-0.5,3-1.1,4.3-1.8c1.5-0.9,2.7-2,3.6-3.5c0.4,0.7-0.1,1.4-0.4,1.8
				c-0.5,0.7-1,1.3-1.6,1.9c-0.9,0.7-1.9,1.2-2.9,1.7c0.4,0,0.7-0.1,1.1-0.2c1.7-0.5,2.9-1.7,4.1-2.8c0.2-0.2,0.5-0.5,0.7-0.7
				c0.2-0.2,0.4-0.5,0.7-0.7c0.1,0.1,0.1,0.5,0.1,0.8c-0.2,0.6-0.6,1-0.9,1.4c-0.1,0.2-0.3,0.4-0.5,0.5c-0.6,0.5-1.1,1-1.7,1.5
				c-0.8,0.6-1.8,1.1-2.9,1.4c1.5-0.1,2.7-0.7,3.8-1.4c0.7-0.4,1.3-0.9,1.9-1.4c0.1-0.1,0.2-0.2,0.4-0.3c0.2-0.2,0.3-0.3,0.5-0.5
				C62.1,44.7,62.2,44.7,62.3,44.6C62.2,44.6,62.2,44.5,62.3,44.6 M61.9,45.5L61.9,45.5c-1.2,1.1-2.4,2-3.9,2.7
				c-0.6,0.2-1.2,0.5-1.9,0.6c-0.6,0.1-1.3,0-1.8,0.3c1.5,0.2,3.1-0.2,4.2-0.8c1.2-0.6,2.3-1.4,3.2-2.4
				C61.7,45.8,61.9,45.7,61.9,45.5 M61.3,48.5C61.3,48.4,61.3,48.4,61.3,48.5c-0.2,0.1-0.4,0.2-0.6,0.3c-0.2,0.1-0.4,0.2-0.6,0.3
				c-0.8,0.3-1.7,0.7-2.6,0.9c-0.5,0.1-1,0.2-1.5,0.2c-0.2,0-0.3,0-0.5,0c-0.3,0-0.6,0.1-0.8,0.2c-0.1,0-0.2,0-0.2,0.1
				c1.5,0,3.3-0.1,4.6-0.6C60,49.5,60.8,49.1,61.3,48.5 M61,43.7c0,0.1-0.2,0.2-0.2,0.3c-0.2,0.2-0.5,0.5-0.8,0.7
				c-0.4,0.3-0.7,0.7-1.1,0.9c-0.9,0.7-1.8,1.4-2.9,1.7c-0.3,0.1-0.6,0.3-1,0.4c-0.2,0.1-0.5,0.1-0.7,0.2c0,0-0.1,0-0.2,0.1
				c0.7,0,1.2-0.2,1.8-0.3c0.3-0.1,0.6-0.2,0.9-0.4c1.1-0.5,2-1.3,2.9-2.1C60.2,44.9,60.8,44.3,61,43.7 M60.3,50.7L60.3,50.7
				c-0.8,0.4-1.8,0.7-2.9,0.8c-0.8,0.1-1.7,0.1-2.5,0c-0.6,0-1.1-0.2-1.5,0.1c0.5,0,1.1,0.2,1.7,0.2c0.6,0,1.2,0.1,1.8,0
				c1.2-0.1,2.3-0.4,3.1-0.8C60,50.9,60.2,50.8,60.3,50.7 M59.4,43C59.4,43,59.4,43,59.4,43c-0.7,0.8-1.4,1.5-2.3,2.1
				c-0.7,0.5-1.6,1-2.4,1.4c-0.1,0-0.2,0.1-0.4,0.2c-0.1,0.1-0.3,0.2-0.4,0.3c0,0-0.1,0.1-0.1,0.1c2.1-0.7,3.8-1.7,5.1-3.3
				C59.1,43.5,59.3,43.3,59.4,43 M58,53.6c0.5-0.1,1-0.2,1.2-0.5c-1.7,0.6-3.7,0.3-5.2-0.3c-0.3-0.1-0.7-0.4-1.2-0.2
				c0.8,0.4,1.7,0.8,2.7,1C56.3,53.7,57.3,53.7,58,53.6 M58.1,55.1c-1.4,0.1-2.5-0.1-3.6-0.6c-0.5-0.2-1-0.5-1.4-0.8
				c-0.2-0.2-0.5-0.4-0.9-0.4l0,0c0.3,0.2,0.6,0.5,1,0.7c0.9,0.5,1.8,1.1,3,1.2C56.9,55.3,57.7,55.4,58.1,55.1 M54.7,56.6
				c0.5,0.2,1.2,0.5,1.7,0.2c-0.9-0.2-1.6-0.5-2.3-0.9c-0.5-0.3-0.9-0.7-1.4-1.2c-0.3-0.3-0.5-0.7-1-0.9
				C52.5,54.9,53.5,55.9,54.7,56.6"/>
			<path class="st1" d="M54.7,64.6c0.2,0.7,0.2,1.3-0.1,1.9c-0.1,0.3-0.3,0.5-0.6,0.7c-0.6,0.7-1.5,1.1-2.4,1.4
				c-0.6,0.2-1.4,0.4-2.1,0.5c-0.7,0.1-1.5,0-2.3,0c-1.4,0-2.9-0.5-4-1.1c-0.5-0.3-1-0.7-1.4-1.2c-0.4-0.5-0.9-1-0.9-1.8
				c0-0.6,0.2-1.2,0.4-1.7c0.2-0.5,0.5-0.9,0.9-1.2c0.3-0.3,0.8-0.5,1.2-0.8c0.3-0.2,0.6-0.4,0.9-0.7c0.1-0.1,0.2-0.2,0.2-0.3
				c0-0.2-0.1-0.4,0-0.5c0,0,0,0,0-0.1c0.1-0.8,0.4-1.4,0.8-1.9c0.2-0.2,0.3-0.3,0.4-0.6c0.2-0.5,0.3-1.1,0.4-1.8
				c0.1-0.7,0.1-1.4,0.2-2c0,0.7,0.1,1.2,0.2,1.7c0.2,0.6,0.4,1.3,0.1,1.8c0,0.1-0.1,0.1-0.2,0.2c-0.1,0.2-0.2,0.4-0.3,0.5
				c-0.1,0.2-0.2,0.3-0.3,0.5c-0.4,0.6-1,1.6-0.7,2.7c0,0.2,0.1,0.5,0.2,0.6c0.1,0.2,0.2,0.3,0.4,0.5c-0.5-0.2-0.9-0.7-1.1-1.2
				c-0.2,0.5-0.6,0.7-1,1c0,0,0,0,0,0c-0.1,0.1-0.2,0.2-0.4,0.2c-0.4,0.3-0.7,0.7-1,1.2c-0.2,0.5-0.5,1.3-0.2,2
				c0.1,0.3,0.3,0.6,0.5,0.9c0.5,0.7,1.4,1.2,2.4,1.5c-0.1-0.3-0.4-0.5-0.6-0.7C44.2,67,44,66.6,44,66c0-0.7,0.5-1.3,0.8-1.7
				c0.2-0.2,0.4-0.4,0.7-0.6c0.2-0.2,0.5-0.4,0.6-0.7c0.2-0.4,0-0.7-0.1-1c-0.2-1,0.2-2.1,0.5-2.9c0.1-0.3,0.3-0.6,0.5-1
				c0.1-0.2,0.2-0.3,0.2-0.4c0.1-0.2,0.2-0.4,0.3-0.7c0-0.4,0-0.7-0.2-1c-0.1-0.3-0.3-0.7-0.4-1.1c-0.2-0.8-0.5-1.8,0-2.6
				c-0.1-0.3-0.2-0.8-0.2-1.3c0-0.1,0-0.2,0.1-0.3c0.1,1.3,1,1.9,1.4,2.9c0.2,0.3,0.4,0.9,0.2,1.4c-0.3-1-1-1.6-1.4-2.4
				c-0.1,1.3,0.5,2.2,0.8,3.2c0.1,0.5,0.2,1,0.1,1.4c-0.1,0.2-0.2,0.4-0.3,0.5c-0.3,0.5-0.5,1.1-0.7,1.7c-0.2,0.6-0.4,1.2-0.3,2.1
				c0,0.5,0.2,0.9,0,1.4c-0.1,0.4-0.5,0.7-0.7,1.1c-0.4,0.6-0.8,1.5-0.7,2.6c0,0.4,0.2,0.8,0.4,1.1c0.2,0.4,0.7,0.6,1.2,0.8
				c0.5,0.2,1.4,0.3,1.8,0c0.1,0,0.2-0.1,0.2-0.2c0-0.1,0-0.3,0-0.4c0-0.4-0.3-0.6-0.5-0.9c-0.4-0.3-0.8-0.7-1.1-1.3
				c-0.3-0.5-0.6-1.1-0.5-1.9c0-0.5,0.2-0.8,0.3-1.2c0.1-0.1,0.2-0.3,0.3-0.5c0.1-0.2,0.2-0.3,0.2-0.5c0.1-0.4,0.2-0.9,0.2-1.3
				c0-0.3-0.1-0.5-0.2-0.8c0.2,0.2,0.3,0.6,0.4,1c0.1,0.8-0.2,1.5-0.5,2.1c-0.1,0.1-0.1,0.3-0.2,0.5c0,0.2-0.1,0.5,0,0.7
				c0.2,0.7,0.7,1.2,1.1,1.6c0.4,0.5,1,0.9,1.1,1.6c0,0.2,0.1,0.4,0,0.6c0,0.4-0.2,0.7-0.5,1c0.5-0.1,1-0.3,1.3-0.6
				c0.4-0.3,0.8-0.9,0.8-1.6c0-0.3-0.1-0.6-0.2-0.8c-0.2-0.5-0.5-0.9-0.7-1.3c-0.4-0.7-0.8-1.9-0.3-2.9c0,0.2,0,0.5,0,0.6
				c0.1,0.6,0.3,1,0.6,1.4c0.4,0.5,1,0.9,1.2,1.4c0.1,0.1,0.1,0.3,0.2,0.5c0.2,1-0.2,1.7-0.6,2.2c-0.3,0.4-0.7,0.7-1.2,0.9
				c0.7-0.1,1.3-0.3,1.8-0.7c0.5-0.4,1.1-1,1-1.9c0-0.7-0.4-1.3-0.7-1.7c-0.2-0.2-0.4-0.4-0.6-0.6c-0.4-0.3-0.6-0.5-0.7-1.2
				c0.1,0.1,0.1,0.2,0.2,0.3c0,0.1,0.4,0.5,0.8,0.7c0.2,0.1,0.4,0.2,0.6,0.4c0.6,0.5,1.4,1.5,1.1,2.6c0.1-0.2,0.2-0.7,0.2-1.2
				c-0.1-0.9-0.6-1.5-1.1-2.1c-0.2-0.2-0.5-0.4-0.7-0.5c-0.4-0.3-0.7-0.6-0.8-1.2c-0.2,0.5-0.6,0.8-1.2,0.9c0,0,0-0.1,0.1-0.1
				c0.1-0.1,0.2-0.2,0.3-0.3c0.2-0.3,0.3-0.8,0.3-1.2c0-0.7-0.4-1.2-0.7-1.7c-0.3-0.5-0.7-1-0.8-1.7c0-0.2,0-0.4,0-0.6
				c0-0.1,0.1-0.2,0.1-0.3c0.1-0.4,0.2-0.8,0.3-1.2c0.1-0.4,0.1-0.9,0.1-1.4c0-0.1,0,0,0,0c0.2,0.7,0.2,1.4,0.2,2.2
				c0,0.2,0,0.5,0,0.7c0,0.3,0.2,0.7,0.3,1c0.3,0.6,0.7,1,1,1.7c0.2,0.4,0.3,0.9,0.2,1.3c0,0.1,0,0.2,0,0.3c0,0.2,0.3,0.6,0.5,0.7
				c0.2,0.2,0.5,0.3,0.7,0.5C53.6,62.5,54.3,63.3,54.7,64.6"/>
			<path class="st1" d="M50.7,42.3c0,0-0.2,0-0.3,0c-0.2,0-0.4,0.1-0.5,0.2c-0.2,0.2-0.4,0.6-0.7,0.7c0.2,0.1,0.4,0.2,0.6,0.1
				c0.1,0,0.2-0.2,0.4-0.1c0,0.2-0.2,0.3-0.3,0.4c-0.2,0.2-0.6,0.2-0.9,0.4c0,0.2,0,0.3-0.1,0.5c-0.1,0.5-0.4,0.8-0.9,0.9
				c0-0.1,0.1-0.1,0.1-0.2c0.1-0.2,0.2-0.4,0.2-0.7c-0.2,0.1-0.4,0.3-0.5,0.5c-0.2,0.3-0.5,0.9-0.3,1.5c0,0.1,0.1,0.1,0,0.2
				c-0.2-0.3-0.5-0.7-0.5-1.2c0-0.5,0.3-0.9,0.5-1.1c0,0,0,0,0,0l0,0l0,0c-0.5,0.3-1.2,1-1.2,1.9c0,0.3,0.1,0.6,0.2,0.9
				c0.4,0.7,1,1.2,1.5,1.8c0.5,0.6,1,1.3,1.1,2.4c0,0.2,0,0.4,0,0.6c-0.2-1.2-0.9-1.9-1.7-2.6c-0.2-0.2-0.4-0.3-0.6-0.5
				c-0.3-0.3-0.6-0.8-0.8-1.3c-0.2-0.6-0.3-1.4,0-2c0.2-0.5,0.5-1,0.9-1.3c-0.8,0.5-1.5,1.1-1.6,2.3c-0.2-0.2-0.3-0.6-0.3-0.9
				c0-0.5,0.3-0.8,0.5-1.1c-0.6,0.4-1.4,1-1.3,2.1c0,0.3,0.2,0.6,0.3,0.9c-0.4-0.2-0.7-0.7-0.7-1.3c0-0.6,0.3-1.1,0.6-1.4
				c-0.2,0.2-0.5,0.4-0.7,0.6c-0.1,0.2-0.2,0.3-0.3,0.5c-0.1,0.3-0.2,0.6-0.2,1s0.2,0.7,0.3,0.9c0,0-0.1,0-0.1-0.1
				c-0.3-0.4-0.5-1.2-0.4-1.9c0.1-0.5,0.5-1,0.9-1.3c0.4-0.3,0.9-0.6,1.4-0.7c-0.6,0.1-1.2-0.2-1.3-0.6c0.2,0.2,0.5,0.3,0.8,0.3
				c0.5,0,1-0.2,1.4-0.5c0.5-0.2,0.9-0.5,1.4-0.5c-0.2-0.1-0.5-0.2-0.8-0.2c-0.1,0-0.1,0-0.2,0c0-0.1,0.1,0,0.2-0.1
				c0.4-0.1,0.9-0.1,1.3,0.1c0.1,0,0.1,0.1,0.2,0.1c0.1,0,0.2,0,0.4,0c0.2,0,0.3-0.1,0.5-0.2C49.8,42.1,50.4,42.1,50.7,42.3
				 M49.5,42.5C49.5,42.5,49.5,42.5,49.5,42.5c-0.2,0-0.5,0.1-0.7,0.2c0,0.2,0,0.2,0,0.4C49.1,43,49.3,42.7,49.5,42.5 M48.3,43
				C48.3,43,48.3,43,48.3,43C48.3,43,48.3,43,48.3,43c-0.5,0-1,0.2-1.3,0.4c0.3,0.1,0.7,0.1,1,0C48.1,43.2,48.3,43.1,48.3,43
				C48.3,43,48.3,43,48.3,43"/>
			<path class="st1" d="M49.9,50.4c0.1,0.7-0.1,1.6-0.4,2.3c0.2-1,0-2.1-0.3-2.9c-0.4-0.8-0.9-1.4-1.5-1.9c0,0,0,0,0,0
				c0,0-0.2-0.2-0.3-0.3c-0.3-0.3-0.6-0.7-0.7-1.2c0-0.2,0-0.6,0.2-0.7c0,1,0.8,1.4,1.3,1.9c-0.2-0.3-0.5-0.7-0.4-1.3
				c0-0.3,0.2-0.5,0.3-0.7c0,0.1-0.1,0.3,0,0.5c0.1,0.7,0.6,1.1,1,1.6C49.4,48.5,49.8,49.4,49.9,50.4"/>
			<path class="st1" d="M49.5,64.9c0,0-0.3-0.2-0.4-0.2c-0.4-0.2-0.7-0.6-0.8-1.1c-0.2-0.9,0-1.9,0.3-2.6c0-0.4,0-0.9-0.1-1.2
				c-0.1-0.2-0.2-0.4-0.2-0.7c-0.1-0.4-0.1-0.9,0.1-1.3c0-0.1,0.1-0.2,0.2-0.3c0.1-0.1,0.1-0.2,0.2-0.3c-0.4,0.7-0.2,1.7,0.1,2.2
				c0,0.1,0.1,0.1,0.1,0.2c0.3,0.5,0.4,1.4,0.1,2.1c-0.2,0.5-0.4,1-0.4,1.7C48.8,64,49.5,64.9,49.5,64.9"/>
			<path class="st1" d="M49.5,62.3c0,0.1,0,0.1,0,0.2c-0.1,0-0.3,0.1-0.4,0.1c0-0.1,0-0.1,0-0.2C49.2,62.4,49.4,62.2,49.5,62.3"/>
			<path class="st1" d="M49.2,52.7c0.2,0.7,0.4,1.6,0.2,2.4c-0.2,0.7-0.5,1.4-1,1.7c0.3-0.5,0.4-1.1,0.5-1.9c0-1.1-0.4-1.9-0.8-2.6
				c-0.1-0.2-0.3-0.4-0.5-0.7c-0.4-0.6-0.8-1.5-0.5-2.5c0-0.1,0,0,0,0v0h0.1c0.2,0.7,0.6,1.3,1,1.8C48.5,51.4,48.9,52,49.2,52.7"/>
			<path class="st1" d="M48.1,62.4c0,0.1,0,0.1,0,0.2c-0.1,0-0.3,0-0.5,0c0-0.1,0.1-0.1,0.1-0.2C47.8,62.4,47.9,62.4,48.1,62.4"/>
			<path class="st1" d="M47,62.4c0,0-0.1,0.1-0.1,0.2c0,0-0.1,0-0.1,0C46.8,62.4,46.8,62.2,47,62.4"/>
			<path class="st1" d="M46.8,49.4c-0.1,0.2-0.1,0.4-0.1,0.6c-0.1,0-0.2-0.2-0.2-0.2c0-0.1-0.1-0.2-0.2-0.3
				c-0.2-0.3-0.5-0.8-0.5-1.4c0-0.3,0.1-0.5,0.2-0.7C45.9,48.2,46.4,48.9,46.8,49.4"/>
			<path class="st1" d="M46,51.7c0,0.2,0.1,0.4,0.1,0.7c0,0.3-0.2,0.6-0.2,1c-0.1,0.3-0.1,0.7-0.1,1c-0.1,0.7-0.3,1.2-0.5,1.8
				c-0.3,0.8-0.6,1.7-1,2.4c-0.1,0.2-0.2,0.5-0.4,0.7c-0.1,0.2-0.3,0.4-0.5,0.6c-0.3,0.5-0.6,0.8-1,1.1c-0.2,0.2-0.4,0.3-0.6,0.4
				c-0.1,0-0.3,0.1-0.5,0.1c-0.2,0-0.4,0-0.4-0.2c0-0.2,0.3-0.5,0.5-0.5c0.1-0.1,0.3-0.1,0.4-0.2c0.4-0.2,0.7-0.5,1-0.7
				c1-1,1.6-2.4,1.8-4.1c0-0.3,0.1-1-0.1-1c-0.2,0-0.4,0.3-0.5,0.4c-0.1,0.2-0.2,0.5-0.2,0.7c-0.6,1.6-1.4,3.1-2.6,4.1
				c-0.7,0.5-1.5,1.1-2.5,1.2c-0.5,0-1.1,0-1.5-0.2c-0.4-0.2-0.9-0.4-1.1-0.7c0-0.1-0.1-0.2-0.1-0.3c0.2-0.1,0.4,0.2,0.5,0.3
				c0.2,0.1,0.4,0.2,0.6,0.2c0.5,0.2,1,0.2,1.4,0.2c0.9-0.1,1.7-0.6,2.4-1.1c1.2-1,2.1-2.4,2.7-4.1c0.1-0.2,0.2-0.6,0.1-0.9
				c-0.1,0-0.1,0.2-0.2,0.3c-0.5,0.8-1.1,1.5-1.7,2.1c-0.4,0.3-0.8,0.6-1.3,0.8c-0.5,0.2-1.1,0.4-1.7,0.4c-1,0-2.1-0.5-2.6-1.2
				c-0.1-0.1-0.2-0.3-0.1-0.5c0.2-0.1,0.4,0.1,0.5,0.2c0.1,0.1,0.3,0.2,0.5,0.3c0.2,0.1,0.5,0.2,0.7,0.3c0.2,0.1,0.5,0.2,0.8,0.2
				c0.5,0,1-0.1,1.4-0.2c0.9-0.3,1.5-0.8,2.2-1.4c0.2-0.1,0.3-0.3,0.5-0.5c0.2-0.3,0.5-0.5,0.6-0.9c0-0.1,0.1-0.4-0.1-0.4
				c-0.2,0-0.3,0.3-0.4,0.4c-0.3,0.4-0.7,0.8-1.2,1.1C41,56,40.1,56.3,39.4,56c-0.2,0-0.3-0.1-0.4-0.2c0.1,0,0.2,0,0.3,0
				c1,0,1.8-0.6,2.4-1.2c0.1-0.1,0.2-0.2,0.3-0.4c0.2-0.2,0.4-0.6,0-0.8c-0.1,0.1-0.2,0.2-0.4,0.4c-0.3,0.4-0.7,0.7-1.2,0.9
				c-0.6,0.3-1.4,0.5-2.3,0.4c-0.3,0-0.6-0.2-0.8-0.3c-0.1,0-0.2-0.1-0.2-0.2c1,0.2,1.9-0.3,2.5-0.7c0.3-0.2,0.7-0.4,0.9-0.6
				c0.3-0.2,0.6-0.5,0.8-0.8l0,0c0,0-0.1,0-0.2,0c-0.2,0.1-0.3,0.2-0.5,0.3c-0.5,0.2-1,0.5-1.4,0.7c-0.2,0.1-0.5,0.2-0.8,0.2
				c-0.5,0.2-1.2,0.3-1.8,0.2c-0.4,0-0.8-0.2-1.1-0.5c-0.1-0.1-0.2-0.1-0.2-0.2c1,0.4,2.2-0.1,3.1-0.5c0.7-0.3,1.3-0.7,1.9-1.1
				c-0.5,0.2-1,0.4-1.5,0.6c-1.1,0.4-2.7,0.7-3.8,0.1c-0.2-0.2-0.5-0.4-0.6-0.7c0.3,0.1,0.6,0.2,1,0.2s0.7-0.1,1-0.1
				c0.6-0.1,1.2-0.3,1.8-0.5c-1,0-2.1,0.1-2.9-0.1c-0.4-0.1-0.8-0.3-1.1-0.6c-0.3-0.2-0.6-0.6-0.7-1.1c0.6,0.5,1.6,0.6,2.4,0.6
				s1.8,0,2.7,0c-1.2-0.2-2.6-0.3-3.7-0.7c-0.2-0.1-0.5-0.2-0.8-0.4c-0.2-0.1-0.5-0.3-0.7-0.5c-0.4-0.4-0.7-0.8-0.9-1.4
				c0,0,0.1,0,0.1,0.1c0.7,0.6,1.6,0.8,2.5,1c1,0.2,1.9,0.4,2.9,0.5c-1.9-0.5-4.1-0.9-5.3-2.1c-0.2-0.1-0.2-0.3-0.4-0.5
				c0-0.1-0.1-0.2-0.1-0.3c0-0.1,0-0.2,0-0.4c0.3,0.2,0.6,0.5,1,0.6c1,0.5,2.2,0.9,3.5,1.2c-0.5-0.2-1-0.5-1.5-0.7
				c-0.2-0.1-0.3-0.2-0.5-0.2c-0.5-0.3-0.9-0.5-1.3-0.9c-0.5-0.3-1-0.7-1.2-1.3c-0.1-0.2,0-0.7,0.1-0.8c0.3,0.8,1.1,1.1,1.8,1.5
				c1,0.5,2.2,0.9,3.2,1.2c-0.6-0.3-1.2-0.5-1.9-0.9s-1.2-0.7-1.7-1.1c-0.2-0.2-0.4-0.6-0.5-1c0-0.2,0-0.3,0-0.5
				c0.1,0.1,0.1,0.2,0.2,0.3c0.2,0.2,0.5,0.5,0.8,0.7c1,0.5,2,1,3.1,1.4c0.7,0.2,1.4,0.5,2.2,0.8c0.5,0.2,1,0.5,1.5,0.7
				c0.1,0,0.2,0.1,0.2,0.2c0.2,0.2,0.4,0.3,0.6,0.6c0.1,0.2,0.2,0.4,0.2,0.6c0,0.2-0.2,0.2-0.2,0.4c-0.2,0.3-0.5,0.9-0.4,1.5
				c0,0.4,0.1,0.7,0.3,1c0.3,0.3,0.7,0.6,1.2,0.8c0.7,0.3,1.5,0.3,2.4,0.2c0.1,0,0.7-0.1,0.7,0C46,51.5,46,51.6,46,51.7 M42.9,53.4
				c0-0.1,0.2-0.2,0.1-0.4c-0.3,0.1-0.5,0.5-0.6,0.8c0,0.1-0.1,0.1-0.1,0.2c0,0.1-0.1,0.2-0.1,0.3c-0.1,0.2-0.2,0.3-0.4,0.5
				c-0.1,0.1-0.2,0.2-0.3,0.3c-0.2,0.2-0.6,0.5-1,0.6c0.3-0.1,0.7-0.2,0.9-0.4c0.2-0.2,0.5-0.4,0.7-0.7
				C42.5,54.3,42.7,53.9,42.9,53.4 M42.2,52.4L42.2,52.4c-0.2,0-0.3,0-0.4,0.1c-0.8,0.9-1.8,1.7-3,2.1c0.6,0,1-0.2,1.5-0.4
				c0.2-0.1,0.5-0.3,0.7-0.5C41.4,53.3,41.8,52.9,42.2,52.4 M41.3,51.9c-0.5,0-0.7,0.2-1,0.3c-0.8,0.5-1.6,0.9-2.5,1.2
				C39.2,53.2,40.2,52.6,41.3,51.9 M40.6,50.9c-0.6,0-1,0.1-1.4,0.3c-1,0.4-2.2,0.9-3.4,0.9c0.8,0.2,1.8-0.1,2.5-0.3
				C39.1,51.6,39.9,51.3,40.6,50.9 M39.7,46.1C39.7,46.1,39.7,46.1,39.7,46.1c-0.4-0.3-0.8-0.6-1.3-0.7c-0.2,0-0.4-0.1-0.5-0.2
				c-0.1,0-0.3-0.1-0.4-0.2c-0.9-0.3-1.8-0.6-2.6-1.1c-0.3-0.2-0.7-0.3-1-0.6c0,0,0-0.1-0.1-0.1c0,0,0.1,0.1,0.1,0.2
				c0.5,0.5,1.2,0.9,1.9,1.2c0.5,0.2,1.1,0.5,1.7,0.6c0.2,0.1,0.4,0.1,0.6,0.2c0.1,0,0.3,0,0.4,0.1C38.9,45.8,39.3,46,39.7,46.1
				 M40.2,50.4c-0.3-0.1-0.7-0.1-1-0.1c-0.7,0-1.4,0.2-2.2,0.2c-0.8,0-1.8,0-2.5-0.2c0,0,0,0,0,0c0.2,0.2,0.6,0.3,1.1,0.4
				C37.1,50.9,38.8,50.7,40.2,50.4 M39.2,47.5C39.2,47.5,39.3,47.5,39.2,47.5L39.2,47.5c0-0.1-0.1-0.1-0.1-0.2
				c-0.2-0.2-0.5-0.4-0.8-0.6c-0.2-0.1-0.5-0.2-0.8-0.3c-0.5-0.2-1.1-0.4-1.7-0.6c-0.8-0.3-1.6-0.7-2.3-1c-0.2-0.1-0.4-0.3-0.7-0.5
				c0.4,0.6,1,1,1.7,1.2c0.5,0.2,1,0.5,1.5,0.7c0.2,0.1,0.5,0.2,0.8,0.3C37.7,46.8,38.5,47.1,39.2,47.5 M39.7,49.5
				c-0.5-0.4-1.4-0.3-2.2-0.4c-0.5-0.1-0.9-0.1-1.4-0.2c-0.9-0.2-1.7-0.3-2.5-0.6l0,0c0.2,0.2,0.4,0.3,0.6,0.4
				c0.2,0.1,0.4,0.2,0.7,0.2C36.4,49.2,38.1,49.4,39.7,49.5 M39.1,48.3c-0.4-0.4-1-0.5-1.7-0.6c-0.5-0.1-1-0.2-1.4-0.3
				c-1-0.3-2.1-0.6-2.9-1.1l0,0c0.2,0.3,0.5,0.5,0.9,0.6c0.5,0.2,0.9,0.4,1.4,0.5C36.5,47.8,37.8,48.1,39.1,48.3"/>
			<path class="st1" d="M44.8,61.9c0.1,0.2,0,0.5,0,0.6c-0.2,0.5-0.7,0.7-1,1s-0.6,0.8-0.6,1.5c0,0.3,0.2,0.7,0.3,0.9
				c0,0.1,0.1,0.1,0.1,0.2c-0.1,0-0.1,0-0.2-0.1c-0.2-0.2-0.5-0.6-0.6-1c-0.2-0.5,0-1.2,0.2-1.6c0.2-0.3,0.5-0.7,0.8-0.9
				c0.1,0,0.2-0.1,0.2-0.2C44.3,62.3,44.6,62.2,44.8,61.9C44.8,61.9,44.8,61.9,44.8,61.9"/>
		</g>
	</g>
	<path class="st1" d="M29,58.1h-7v-0.2h7L29,58.1L29,58.1z M71.8,58h-7v0.2h7V58z M21.7,56c0.2,0.2,0.3,0.2,0.4,0.3v0.1h-0.5
		l-0.4-0.6h-0.1V56c0,0.2,0,0.2,0.2,0.2v0.1h-0.7v-0.1c0.2,0,0.2,0,0.2-0.2v-0.7c0-0.2,0-0.2-0.2-0.2V55h0.7c0.3,0,0.5,0.2,0.5,0.4
		c0,0.2-0.2,0.4-0.4,0.4L21.7,56z M21.6,55.4c0-0.2-0.1-0.3-0.3-0.3h-0.1v0.5h0.1C21.5,55.7,21.6,55.5,21.6,55.4z M22.4,56.3
		c0.2,0,0.2,0,0.2-0.2v-0.7c0-0.2,0-0.2-0.2-0.2V55h1.2v0.3h-0.1v0c0-0.1,0-0.2-0.2-0.2h-0.3v0.5H23c0.2,0,0.2,0,0.2-0.2h0.1v0.5
		h-0.1c0-0.2,0-0.2-0.2-0.2h-0.1V56c0,0.2,0,0.2,0.2,0.2h0.2c0.2,0,0.2,0,0.2-0.2v0h0.1v0.3h-1.2C22.4,56.4,22.4,56.3,22.4,56.3z
		 M25.2,56c0,0.2-0.2,0.4-0.5,0.4h-0.8v-0.1c0.2,0,0.2,0,0.2-0.2v-0.7c0-0.2,0-0.2-0.2-0.2V55h0.7c0.2,0,0.4,0.2,0.4,0.3
		c0,0.1,0,0.2-0.2,0.3C25,55.7,25.2,55.8,25.2,56z M24.4,55.6h0.1c0.2,0,0.2-0.1,0.2-0.2c0-0.1-0.1-0.2-0.2-0.2h-0.1V55.6z M24.9,56
		c0-0.2-0.1-0.3-0.3-0.3h-0.2V56c0,0.2,0,0.2,0.2,0.2l0,0C24.8,56.2,24.9,56.1,24.9,56z M26.2,56.4c-0.4,0-0.7-0.3-0.7-0.7
		c0-0.4,0.3-0.7,0.7-0.7s0.7,0.3,0.7,0.7C27,56.1,26.6,56.4,26.2,56.4z M26.2,55.1c-0.3,0-0.5,0.3-0.5,0.6s0.1,0.6,0.5,0.6
		c0.3,0,0.5-0.3,0.5-0.6S26.5,55.1,26.2,55.1z M28.2,56c0.2,0.2,0.3,0.2,0.4,0.3v0.1h-0.5l-0.4-0.6h0V56c0,0.2,0,0.2,0.2,0.2v0.1
		h-0.7v-0.1c0.2,0,0.2,0,0.2-0.2v-0.7c0-0.2,0-0.2-0.2-0.2V55h0.7c0.3,0,0.5,0.2,0.5,0.4c0,0.2-0.2,0.4-0.4,0.4L28.2,56z M28.1,55.4
		c0-0.2-0.1-0.3-0.3-0.3h-0.1v0.5h0.1C28,55.7,28.1,55.5,28.1,55.4z M30.1,55.3c0-0.2,0-0.2-0.2-0.2V55h0.5v0.1
		c-0.2,0-0.2,0-0.2,0.2v1h0l-0.9-1.1V56c0,0.2,0,0.2,0.2,0.2v0.1h-0.5v-0.1c0.2,0,0.2,0,0.2-0.2v-0.7c0-0.2,0-0.2-0.2-0.2V55h0.4
		l0.7,0.9V55.3z M65.4,56.1H66l-0.1,0.4h0c0-0.2,0-0.2-0.3-0.2H65v0l0.5-0.4c0.1-0.1,0.2-0.2,0.2-0.3c0-0.1-0.1-0.2-0.2-0.2
		s-0.3,0.1-0.2,0.4l-0.1,0.1c-0.3-0.2-0.1-0.6,0.3-0.6c0.3,0,0.5,0.2,0.5,0.3c0,0.2-0.2,0.3-0.3,0.4L65.4,56.1z M68.1,55.8
		c0,0.3-0.2,0.6-0.6,0.6s-0.6-0.2-0.6-0.6s0.2-0.6,0.6-0.6S68.1,55.5,68.1,55.8z M67.2,55.8c0,0.2,0.2,0.4,0.4,0.4s0.4-0.2,0.4-0.4
		c0-0.2-0.2-0.4-0.4-0.4S67.2,55.6,67.2,55.8z M69,56.4L69,56.4c0.2-0.1,0.2-0.1,0.2-0.4v-0.4c0-0.2,0-0.3-0.2-0.3v-0.1h0.8v0.1
		c-0.2,0-0.2,0-0.2,0.3V56c0,0.2,0,0.3,0.2,0.3v0.1C69.8,56.4,69,56.4,69,56.4z M71,56.1h0.6l-0.1,0.4h0c0-0.2,0-0.2-0.3-0.2h-0.6v0
		l0.5-0.4c0.1-0.1,0.2-0.2,0.2-0.3c0-0.1-0.1-0.2-0.2-0.2c-0.2,0-0.3,0.1-0.2,0.4l-0.1,0.1c-0.3-0.2-0.1-0.6,0.3-0.6
		c0.3,0,0.5,0.2,0.5,0.3c0,0.2-0.2,0.3-0.3,0.4L71,56.1z"/>
	<g>
		<path class="st1" d="M42.7,81.1l0.5,0.1v0.5l-0.3,0c-0.9-0.1-1.8-0.3-2.7-0.5l0,0L39.5,81L39,80.8l0,0l-0.1,0
			c-0.9-0.2-1.8-0.5-2.7-0.8l-0.2-0.1l0,0l-0.7-0.2l0,0l-0.7-0.3c-0.9-0.4-1.8-0.7-2.6-1.2l-0.7-0.3l0.4-0.2l0.1,0
			c0.9,0.4,1.7,0.8,2.6,1.2l0.7,0.3l0,0l0.5,0.2l0.1,0.2l0.1-0.1l0.2,0.1c0.9,0.3,1.8,0.6,2.7,0.8l0.1,0l0,0l0.5,0.1l0.7,0.2l0,0
			C40.9,80.8,41.8,80.9,42.7,81.1z M28.6,38.2v-2.7l0.5-0.2c0.2-0.1,0.5-0.2,0.8-0.3c0.6-0.2,1.1-0.3,1.4-0.3c0.3,0,0.5,0.1,0.6,0.2
			l0.7,0.6V30l-0.2,0.3v4.6l-0.7-0.6c-0.1-0.1-0.3-0.2-0.6-0.2c-0.3,0-0.8,0.1-1.4,0.3c-0.2,0.1-0.5,0.2-0.8,0.3l-0.5,0.2v2.7
			C28.4,38,28.4,38.1,28.6,38.2z M28.6,30.8c0-0.8,0.6-1.4,2-1.9c1.4-0.5,2.3-0.4,3,0.5l0.8,1.1v-5.8L34.2,25v5.1l-0.8-1.1
			c-0.7-0.9-1.5-1-3-0.5c-1.4,0.5-2,1.1-2,1.9v2.1c0.1,0,0.1,0,0.2-0.1V30.8z M75.1,37.8c0-4.4,1.6-7.3,4.1-7.3
			c2.2,0,3.5,1.7,4.4,3.1l0.8,1.4v-7.5l-0.2,0.1v6.9l-0.8-1.4c-0.9-1.5-2.2-3.1-4.4-3.1c-2.5,0-4.1,2.9-4.1,7.3
			c0,1.6,0.1,3.4,0.7,4.8C75.1,40.7,75.1,39.1,75.1,37.8z M19.4,42.7V32.2c0-1.4,0.1-2.4,1.5-2.4c1.2,0,2.2,0.8,3,2.4l0.9,1.6v-5.5
			v-0.1v-1.7l-0.2,0.1v6.6l-0.9-1.6c-0.8-1.6-1.9-2.4-3-2.4c-1.4,0-1.5,1-1.5,2.4v10.5c0,1.3,0,2,0.4,2.8
			C19.4,44.3,19.4,43.7,19.4,42.7z M15.8,30.3c0-0.1,0-0.2-0.1-0.3c-0.1-0.3-0.4-0.7-1.3-0.7c-1.1,0-2.2,0.9-3,2.3l-0.6,1.1v1
			l0.9-1.5c0.8-1.4,1.9-2.3,3-2.3C15.3,29.8,15.7,30,15.8,30.3z M34.5,72.2c0.1,0,0.2,0,0.2,0.1v-0.9c0-0.8,0-1.1,0.4-1.3l0.3-0.2
			l0.5,0.7c0.1,0.1,0.2,0.2,0.2,0.4c-0.1-0.3-0.2-0.6-0.5-1l-0.5-0.6l-0.1,0l-0.3,0.2c-0.3,0.2-0.4,0.5-0.4,1.3
			C34.5,70.9,34.5,72.2,34.5,72.2z M23.1,65.9h-0.7l-0.1,0.2c-0.3,0.4-0.5,0.7-0.5,1.5l0.7,5.5l0.1-0.5l-0.6-4.5
			c0-0.8,0.2-1.1,0.5-1.5L23.1,65.9z M39.3,71.5l0.2-0.2l0.3,0.4c0.1,0.1,0.2,0.2,0.2,0.3c0-0.3-0.2-0.6-0.5-0.9l-0.3-0.4l-0.2,0.2
			c-0.4,0.3-0.4,0.6-0.4,1.4v5.4c0,0.9,0.1,1.2,0.3,1.5c0-0.2,0-0.5,0-1v-5.3C38.9,72.1,38.9,71.7,39.3,71.5z M35.1,39.5l1.1-0.2
			c2.3-0.5,4.6-0.9,6.9-1.2c0.6,0,0.9-0.1,1.1-0.1c0.3,0,0.4,0,0.5,0.1l0.7,0.4v-6.8L45,32.2V38l-0.7-0.4c-0.1,0-0.2-0.1-0.5-0.1
			c-0.2,0-0.5,0-1.1,0.1c-2.3,0.2-4.6,0.6-6.9,1.2l-0.4,0.1L35.1,39.5z M46.6,24.6c-0.1-0.4-0.2-0.6-0.5-0.8l-0.2-0.2h-0.3l0.7,0.7
			C46.4,24.4,46.5,24.5,46.6,24.6z M38.8,27.9c0-0.8,0.7-1.2,2.1-1.4c1.5-0.2,2.4,0.2,3.1,1.2l0.8,1.3v-5.8l-0.2,0.1v5.1l-0.8-1.3
			c-0.7-1-1.6-1.4-3.1-1.2c-1.4,0.2-2.1,0.7-2.1,1.4v2.2c0.1,0,0.1,0,0.2,0V27.9z M20.2,46.2h-4.9L15,46.7h5.6L20.2,46.2z
			 M36.3,75.8v-0.5c-0.6-0.2-1.2-0.4-1.7-0.7v1.5c0,1,0.1,1.3,0.3,1.7c0-0.2-0.1-0.6-0.1-1.1v-1.5C35.2,75.4,35.7,75.6,36.3,75.8z
			 M35.9,26c-0.1-0.5-0.2-0.6-0.5-0.9l-0.1-0.1L35,25.2l0.6,0.6C35.7,25.9,35.8,26,35.9,26z M38.8,35.3v-2.7c0.1,0,0.2,0,0.3,0
			c0.3,0,0.6-0.1,0.9-0.2c0.4,0,0.7-0.1,1-0.1c0.7,0,1,0.2,1.2,0.4l0.8,0.7v-5.5l-0.2,0.2v4.7L42,32.1c-0.2-0.2-0.5-0.4-1.2-0.4
			c-0.3,0-0.6,0-1,0.1c-0.3,0-0.6,0.1-0.9,0.2c-0.1,0-0.2,0-0.3,0v2.7C38.6,34.9,38.7,35.1,38.8,35.3L38.8,35.3z M49.5,77.4
			c0.1,0.3,0.1,0.7,0.1,1.1c0,1-0.3,1.8-0.9,2.3c-0.6,0.6-1.5,0.8-2.6,0.8c-0.5,0-0.8-0.2-1.2-0.3c-0.2-0.1-0.4-0.1-0.6-0.2l0,0
			c-0.2,0-0.4,0.2-0.5,0.2l-0.5,0.4v0.7l0.7-0.6c0.1-0.1,0.3-0.2,0.5-0.2l0,0c0.2,0,0.4,0.1,0.6,0.2c0.3,0.1,0.7,0.2,1.2,0.3
			c1,0,1.9-0.2,2.6-0.8c0.6-0.5,0.9-1.4,0.9-2.3C49.9,78.4,49.7,77.8,49.5,77.4z M67.4,79l-0.6,0.5H73L72.4,79H67.4z M53.2,81.2
			c-0.9,0.1-1.8,0.2-2.7,0.2h-0.3L49.7,82l1.1,0c0.9,0,1.8-0.1,2.7-0.2l1-0.1l-0.6-0.5L53.2,81.2z M66.2,70l1.9,4.4v-0.1l-2.2-4.9
			c-0.2-0.6-0.5-1.1-0.7-1.4v3.6l0.2-0.7v7.5L64.7,78c0,0,0,0,0,0c-0.1,0-0.5,0.2-0.7,0.3c-1.5,0.7-3,1.2-4.5,1.7l0,0l-0.6,0.2
			l-0.8,0.2v0c-0.8,0.2-1.7,0.4-2.5,0.6L55.1,81l-0.3,0.7l0.9-0.2c0.8-0.2,1.7-0.3,2.5-0.6v0l0.8-0.2l0.6-0.2l0,0
			c1.5-0.5,3.1-1,4.5-1.7c0.2-0.1,0.6-0.3,0.7-0.3c0,0,0,0,0,0l0.7,0.4v-7.5l-0.2,0.7v-3.6C65.7,68.9,65.9,69.4,66.2,70z M18.1,65.9
			H18l0.5,0.7c0.2,0.2,0.2,0.4,0.4,0.7c-0.2-0.5-0.3-0.8-0.6-1.2L18.1,65.9z M85.1,37.2c-0.2,0.4-0.3,0.9-0.3,2V47l-0.7-0.5
			c-0.3-0.2-0.6-0.2-0.9-0.2c-0.5,0-1,0.1-1.6,0.2c-0.8,0.2-1.7,0.5-3.2,0.5c-2.9,0-4.8-1.2-5.9-3.6c1,2.8,3,4.2,6.1,4.2
			c1.5,0,2.4-0.2,3.2-0.5c0.6-0.2,1-0.2,1.6-0.2c0.3,0,0.6,0.1,0.9,0.2l0.7,0.5v-7.8c0-1.1,0.2-1.6,0.3-2l0.2-0.6L85.1,37.2
			L85.1,37.2z M75.5,65.9c-0.5,0.6-1.2,1.3-2.1,3.4l-2.3,5.1v1.6c0,1,0.1,1.5,0.3,1.9c-0.1-0.3-0.1-0.7-0.1-1.3v-1.6l2.3-5.1
			c0.9-2.1,1.6-2.7,2.1-3.4l0.7-0.7h-0.7L75.5,65.9z M30.1,79C30.1,79,30.1,78.9,30.1,79c0-0.2,0-0.5,0-0.6l1.4-8.2
			c0.1-0.6,0.2-1,0.3-1.4l0,0c0.1,0.1,0.1,0.2,0.2,0.3c-0.1-0.3-0.2-0.5-0.4-0.9l0,0c-0.1,0.4-0.2,0.8-0.3,1.4l-1.4,8.2
			c0,0.2-0.1,0.4-0.1,0.5l0,0.1c0,0,0,0.1,0.1,0.2l0.2,0.6h-3.5l0,0l-0.1,0.5h3.8l-0.2-0.6C30.2,79.2,30.1,79.1,30.1,79z M32.4,66.1
			c-0.2,0.5-0.4,0.8-0.6,1.3l0.4,0.2c0.1-0.3,0.2-0.6,0.4-0.9l0.4-0.8h-0.5L32.4,66.1z M25.5,72.3l-0.2-0.9l-1.2,6.5
			c0,0.2-0.1,0.3-0.1,0.5c0,0,0,0.1,0,0.2c0,0,0,0.1,0,0.1l0.2,0.6h-3.6l-0.2,0.5h4.1l-0.2-0.6c0,0,0-0.1,0-0.1c0,0,0-0.1,0-0.2
			c0-0.2,0-0.3,0.1-0.5L25.5,72.3z M33.9,39.8c0.1,0,0.1,0,0.1,0l0.6,0.2v-6.8l-0.2,0.5v5.8l-0.6-0.2c0,0-0.1,0-0.1,0
			c-0.2,0-0.5,0.1-1.3,0.3c-2.2,0.7-4.4,1.5-6.5,2.5l-0.5,0.2l-0.5,0.9l1.2-0.6c2.1-1,4.3-1.8,6.5-2.5
			C33.4,39.9,33.7,39.8,33.9,39.8z M27.4,66.5l0.1-0.5h-0.3c0,0.1,0,0.1,0,0.2c0,0.1,0,0.2,0,0.3s0,0.4,0.1,0.6l1.1,6.1l0-0.4
			l-0.9-5.2c0-0.2-0.1-0.5-0.1-0.6c0-0.1,0-0.2,0-0.3C27.4,66.6,27.4,66.5,27.4,66.5z M28.9,66.9c0,0,0.1,0.1,0.1,0.1
			c0-0.3-0.2-0.5-0.3-0.7c-0.1-0.1-0.1-0.2-0.2-0.3l-0.1-0.1h-0.1l0.5,0.7C28.8,66.7,28.9,66.8,28.9,66.9z M25.8,29.5
			c-0.1-0.5-0.2-0.6-0.5-0.8l0,0l-0.3,0.2l0.6,0.5C25.6,29.4,25.7,29.4,25.8,29.5z M61.4,76.8C61.4,76.8,61.4,76.8,61.4,76.8
			c0,0.1,0.1,0.1,0.2,0.1v-1.1c0.1,0,0.2-0.1,0.3-0.1l0.3-0.1c0.4-0.2,0.7-0.2,0.9-0.2c0.1,0,0.1,0,0.3,0.2l0.2,0.2
			c0-0.1,0.1-0.2,0.2-0.2l-0.6-0.5c-0.2-0.2-0.2-0.2-0.3-0.2c-0.2,0-0.5,0.1-0.9,0.2l-0.3,0.1c-0.1,0-0.2,0.1-0.3,0.1
			C61.4,75.2,61.4,76.8,61.4,76.8z M62.8,71.5c0.2-0.1,0.3-0.1,0.5-0.2l0.4-0.6c0,0-0.1,0-0.2,0c-0.2,0-0.6,0.1-1,0.2
			c-1,0.4-1.2,0.7-1.2,1v1c0.1,0,0.1,0,0.2-0.1v-0.3C61.7,72.2,61.8,71.9,62.8,71.5z M60.9,39.1l-0.2,0l-0.4,0.4l0.7,0.2
			c1,0.2,1.9,0.5,2.8,0.8l1.1,0.3l-0.3-0.6l-1-0.3C62.7,39.6,61.8,39.3,60.9,39.1z M64.3,71.5c0.1,0.1,0.2,0.2,0.3,0.4l0.3,0.7
			l0-0.1l-0.6-1.1c-0.1-0.2-0.2-0.3-0.3-0.4V75c0.1-0.2,0.2-0.3,0.2-0.5L64.3,71.5z M64.7,67.2l0.1-0.1c-0.3-0.5-0.6-0.9-1-1.2
			l-0.2-0.2h-0.3l0.7,0.7C64.3,66.7,64.5,67,64.7,67.2z M63.8,36.9v-6.1c-0.1-0.2-0.1-0.4-0.2-0.6v6.2c0,1,0,1.8,0.4,2.6
			C63.9,38.3,63.8,37.7,63.8,36.9z M65.3,27.3c0-0.1,0-0.2,0-0.2c0-0.1,0-0.2,0-0.2l0.1-0.4l-0.3-0.1c0,0,0,0.1,0,0.2
			c0,0.2,0.1,0.4,0.2,0.6C65.3,27.2,65.3,27.3,65.3,27.3z M67.5,41.3L67.5,41.3l-0.2,0.4l0.4,0.2c0.8,0.3,1.6,0.7,2.3,1l0.9,0.4
			l-0.2-1c-0.1-0.2-0.1-0.5-0.1-1v-9.8c0-0.8,0-1.5,0.5-1.9l0.4-0.5l-0.5-0.2L70.8,29c-0.5,0.5-0.5,1.2-0.5,1.9v9.8
			c0,0.5,0,0.8,0.1,1l0.2,1l-0.9-0.4C69.1,41.9,68.3,41.6,67.5,41.3z M68.1,35.5L68.1,35.5c-0.1-0.3-0.2-0.6-0.2-0.9
			c-0.7-2.2-1.5-4.4-2.3-6.6c0-0.1-0.1-0.2-0.2-0.4l0,0c0.7,2.1,1.5,4.3,2.2,6.4C67.9,34.6,68,35.1,68.1,35.5z M70.9,65.9l-0.2-0.2
			h-0.2l0.6,0.7c0,0,0.1,0.1,0.1,0.1c0,0,0,0,0,0c0-0.3-0.1-0.4-0.2-0.6C71,66,71,66,70.9,65.9z M80.3,37.1l0.6,0.7
			c0.2,0.2,0.4,0.5,0.5,0.7c-0.2-0.6-0.5-1-0.7-1.3l-0.2-0.2L80.3,37.1L80.3,37.1z M69.1,65.7h-0.6L68.4,66
			c-0.1,0.2-0.2,0.3-0.2,0.6c0,0.2,0.1,0.7,0.3,1.2l0,0.1c-0.1-0.3-0.2-0.6-0.2-0.7c0-0.2,0.1-0.4,0.2-0.6L69.1,65.7z M67.9,28.5
			c-0.1-0.2-0.2-0.5-0.3-0.8l-0.3-0.5l-0.1,0l0.6,1.1C67.8,28.4,67.9,28.4,67.9,28.5z M56,25.3c-0.1-0.3-0.2-0.6-0.4-0.9l-0.2-0.2
			l-0.2,0l0.6,0.9C55.9,25.1,56,25.2,56,25.3z M54.7,71.6l-0.1-0.2l-0.2,0l0.3,0.3C54.7,71.7,54.7,71.7,54.7,71.6L54.7,71.6z
			 M49.6,72l0.7,0.7c0.1,0.1,0.2,0.2,0.2,0.2c0-0.3-0.1-0.5-0.4-0.8l-0.2-0.2L49.6,72z M54.3,71.5l-0.6,0.1l-0.1,0.2
			c-0.4,0.6-0.5,0.9-0.5,1.7v0.8c0.1-0.1,0.1-0.2,0.2-0.3c0-0.7,0.1-1,0.5-1.6L54.3,71.5z M46.1,77.7c0.5,0.2,0.9,0.5,1.1,0.7
			c0-0.6-0.5-0.8-1.3-1.3c-0.7-0.4-1.6-0.9-2.1-1.8C44.2,76.7,45.2,77.3,46.1,77.7z M53.9,77.3c0.4,0.7,0.7,1.4,1.1,2.1l0,0.1
			c0,0,0,0.1,0,0.1c0-0.2-0.2-0.5-0.3-0.7l0-0.1c-0.4-0.7-0.7-1.4-1.1-2.1c-0.2,0.3-0.5,0.6-0.7,0.9v1.2c0,0.7,0,1,0.2,1.4
			c0-0.2,0-0.5,0-0.8v-1.2C53.5,77.9,53.7,77.6,53.9,77.3z M43.2,72.3l0.8-0.7l-0.8-0.1L43,71.7c-0.4,0.3-0.5,0.7-0.5,1.4v5.2
			c0,0.9,0,1.2,0.2,1.6c0-0.2,0-0.5,0-1v-5.2C42.8,73,42.8,72.6,43.2,72.3z M61.1,26.2c-0.1-0.2-0.2-0.5-0.3-0.7l-0.2-0.4l-0.1,0
			l0.6,1C61,26.1,61.1,26.1,61.1,26.2z M48.6,75.6l1,1.6v-5l0-0.7v-0.2l0,0h0l-0.1,0l-0.1,0.1v0.1v5l-1-1.6
			c-0.5-0.8-0.9-1.4-1.8-1.5l0,0c-0.2,0-0.7,0.1-0.7,0.5c0,0.2,0.1,0.3,0.2,0.5c0-0.3,0.4-0.4,0.6-0.4l0,0
			C47.8,74.1,48.1,74.9,48.6,75.6z M58.6,70.7L58.6,70.7l-0.2,0h-0.1L58,71.1c-0.4,0.5-0.7,0.9-1,1.3c-0.5,0.7-1,1.4-1.5,2.1
			c0.1,0.2,0.2,0.3,0.3,0.5c0.5-0.7,1-1.4,1.5-2c0.3-0.5,0.7-0.9,1-1.3l0.5-0.6l0.2,0.2c0.1,0,0.1,0.1,0.2,0.2c0,0,0,0,0.1,0.1
			c0-0.4-0.1-0.5-0.3-0.6C58.7,70.8,58.7,70.8,58.6,70.7z M59.1,35.6v-7.9c0-0.8,0-1.7,0.5-2.2l0.5-0.6l-0.6-0.1L59.4,25
			c-0.5,0.6-0.5,1.4-0.5,2.2v7.9c0,1.3,0,1.9,0.3,2.4C59.1,37.1,59.1,36.6,59.1,35.6z M49.6,34.2v-7.4c0-1.7,0.2-2.2,0.6-2.6
			l0.6-0.7h-0.7l-0.2,0.2c-0.3,0.4-0.6,0.8-0.6,2.6v7.4c0,0.4,0.1,0.7,0.2,0.9C49.6,34.4,49.6,34.4,49.6,34.2z M55.2,31.9L55,32.4
			V37h0.2V31.9z M46.2,37.4L45.8,38l1,0c2.1-0.1,4.3,0,6.4,0.2c1,0.1,1.2,0.2,1.4,0.3l0.7,0.6v-0.6l0.9,0.1c1,0.2,2.1,0.3,3.1,0.6
			l1.2,0.2L60,38.8l-1-0.2c-1-0.2-2.1-0.4-3.1-0.6l-0.2,0l-0.5,0.5V38H55v0.5l-0.7-0.6c-0.2-0.2-0.4-0.2-1.4-0.3
			c-2.1-0.2-4.2-0.2-6.4-0.2L46.2,37.4z M55.2,37.7L55,37.9l0,0l0.2,0V37.7z M55.2,37.9l-0.2,0V38h0.2V37.9z M55.2,37H55v0.8
			l0.2-0.2V37z"/>
	</g>
	<g>
		<path class="st1" d="M32,77.3c0.4-0.3,0.6-0.4,0.6-1.7v-5.3c0-0.8,0-1.4-0.6-2.2c0.9,0.4,1.7,0.8,2.6,1.2c-0.6,0.4-0.6,1-0.6,1.7
			v1.7c0.9,0.4,1.8,0.7,2.6,1v-1.7c0-0.8,0-1.4-0.6-2.2c0.9,0.3,1.8,0.6,2.7,0.8c-0.6,0.4-0.6,1-0.6,1.8v5.3c0,1.3,0.2,1.5,0.6,2.2
			c-0.9-0.2-1.8-0.5-2.7-0.8c0.5-0.3,0.5-0.5,0.5-1.8v-2.2c-0.9-0.3-1.8-0.6-2.6-1v2.2c0,1.3,0.1,1.5,0.6,2.2
			C33.7,78.1,32.9,77.7,32,77.3"/>
		<path class="st1" d="M39.9,80.1c0.7-0.5,0.6-0.7,0.6-2v-5.2c0-0.7,0-1.3-0.6-2c0.9,0.2,1.9,0.4,2.8,0.5c-0.6,0.5-0.6,1.1-0.6,1.8
			v5.2c0,1.2,0,1.5,0.7,2.2C41.8,80.6,40.9,80.4,39.9,80.1"/>
		<path class="st1" d="M43.7,81.1v-3.7c0.5,0.8,1.3,2.3,2.6,2.4c0.7,0,1.4-0.4,1.4-1.2c0-2-3.7-1.5-3.7-4.6c0-1.4,1.2-2.3,2.7-2.2
			c0.6,0,1.2,0.2,1.7,0.2c0.2,0,0.4-0.2,0.6-0.2v3.4c-0.5-0.9-1-1.9-2.3-1.9c-0.6,0-1.1,0.3-1.1,0.9c0,1.8,3.7,1.1,3.7,4.5
			c0,1.9-1.2,2.8-2.9,2.6c-0.8,0-1.1-0.4-1.7-0.4C44.2,80.8,44,81,43.7,81.1"/>
		<path class="st1" d="M50.5,81.1c0.6-0.7,0.6-1.3,0.6-2.1v-5.4c0-0.9,0-1.2-0.6-1.8c0.9,0,1.8-0.1,2.7-0.2c-0.5,0.7-0.6,1-0.6,1.9
			v2.3c0.7-1,1.4-2.1,2.2-3.1c0.2-0.3,0.5-0.6,0.5-0.9c0-0.2-0.1-0.2-0.2-0.4c0.9-0.2,1.9-0.4,2.8-0.6c-0.4,0.5-0.8,1-1.2,1.5
			c-0.6,0.8-1.1,1.6-1.7,2.4c0.6,1.1,1.3,2.2,1.9,3.3c0.7,1.2,1.2,1.6,1.6,1.9c-1,0.2-1.9,0.5-2.9,0.7c0.1-0.2,0.2-0.4,0.2-0.8
			c0-0.4-0.2-0.7-0.4-1.1c-0.5-0.9-1-1.7-1.4-2.6c-0.4,0.5-0.8,1-1.2,1.6V79c0,0.8,0,1.4,0.6,2C52.3,81,51.4,81.1,50.5,81.1"/>
		<path class="st1" d="M59,79.7c0.5-0.7,0.6-0.8,0.6-2.4v-4.9c0-1.6,0-1.4-0.7-2c1.7-0.5,3.3-1.1,4.9-1.8c0.3-0.2,0.7-0.3,1-0.7v3.3
			c-0.4-0.7-0.9-1.2-2.4-0.6C61.6,70.9,61,71.3,61,72v1.6c0.3-0.1,0.7-0.2,1-0.4c1.1-0.4,1.3-0.9,1.7-1.5c0,1,0,2,0,2.9
			c-0.4-0.3-0.5-0.6-1.7-0.1c-0.3,0.1-0.6,0.2-0.9,0.3v1.9c0,0.6,0.5,0.7,1.4,0.3c1.9-0.7,2.2-1.9,2.6-3.3v3.8
			c-0.3-0.1-0.2-0.2-1.2,0.2C62.2,78.6,60.6,79.2,59,79.7"/>
		<path class="st1" d="M21,78.9c0-0.1,0.2-0.4,0.2-0.4c0-0.2,0-0.5-0.1-0.7l-1.3-8c-0.4-2.4-0.6-3-1.2-3.9h3.4
			c-0.4,0.5-0.6,0.9-0.6,1.8l1.1,8.5l1.6-8.9c0-0.2,0.1-0.7,0.1-0.7c0-0.2-0.1-0.4-0.1-0.6h2.7c0,0.2-0.1,0.4-0.1,0.6
			c0,0.1,0,0.5,0.1,0.7l1.6,9l1.2-8.5c0-1.1-0.3-1.2-0.6-1.7H32c-0.5,1-0.8,1.5-1.2,3.7l-1.4,8.1c0,0.2-0.1,0.5-0.1,0.7
			c0,0.2,0.1,0.3,0.1,0.4h-2.6c0-0.1,0.1-0.2,0.1-0.4c0-0.2,0-0.5-0.1-0.7l-1.6-8.9l-1.6,8.9c0,0.2-0.1,0.5-0.1,0.7
			c0,0.1,0.1,0.3,0.1,0.4L21,78.9L21,78.9z"/>
		<path class="st1" d="M67.7,78.7c0.6-0.6,0.9-1.1,0.9-2.7v-1.7l-2.2-5c-0.9-2-1.4-2.8-2.2-3.6h4c-0.2,0.3-0.4,0.5-0.4,1
			c0,0.4,0.2,1,0.4,1.4l1.6,3.8l1.7-3.8c0.2-0.4,0.3-0.9,0.3-1.3c0-0.6-0.2-0.7-0.5-1h3.9C74.6,66.2,74,67,73,69.1l-2.3,5.2V76
			c0,1.6,0.2,2.1,0.9,2.7H67.7z"/>
		<path class="st1" d="M72.1,37.2c0-6.2,2.6-9.9,7-9.9c1.2,0,1.8,0.2,2.4,0.3c0.5,0.1,0.9,0.2,1.6,0.2c0.3,0,0.6-0.1,0.8-0.2v5.1
			c-1-1.7-2.4-3.4-4.8-3.4c-2.8,0-4.6,3.1-4.6,7.8c0,1.8,0,7.3,4.2,7.3c2.2,0,3.6-1.6,3.6-4.1c0-1.8-0.5-2.7-1.1-3.4h3.6
			c-0.2,0.5-0.3,1.1-0.3,2.2v6.9c-0.3-0.2-0.7-0.3-1.1-0.3c-0.6,0-1.1,0.1-1.7,0.3c-0.8,0.2-1.7,0.4-3.1,0.4
			C74.1,46.5,72.1,43.7,72.1,37.2"/>
		<path class="st1" d="M24.1,31.4v-4.8c-0.4,0.1-0.8,0.1-1.4,0.1h-9.9h-0.2c-0.7,0-1.2,0-1.7-0.2v4.7c0.9-1.5,2.2-2.5,3.4-2.5
			c0.9,0,1.4,0.3,1.7,1c0.2,0.5,0.2,1.2,0.2,1.8v10.6c0,1.7,0,2.5-0.7,3.6h3.9c-0.8-1.1-0.8-1.9-0.8-3.6V31.6c0-1.2,0-2.9,2-2.9
			C22.2,28.8,23.4,30,24.1,31.4"/>
		<path class="st1" d="M51.1,35.4c-0.1,0-0.2,0-0.3,0c-1.2,0-1.8-0.6-1.8-1.7v-7.4c0-1.8,0.3-2.4,0.7-2.8l0.1-0.2h-0.2
			c-1.1,0-2.1,0-3.2,0h-0.2l0.1,0.2c0.5,0.6,0.6,0.9,0.6,2.8v7.4c0,1.9-0.1,2.6-0.6,3.2V37h0.2c0.5,0,1.1,0,1.7,0
			c1.6,0,3.1,0.1,4.7,0.2c1,0.1,1.3,0.2,1.7,0.4l0.2,0.1v-4.4V33C54,34.4,52.7,35.4,51.1,35.4"/>
		<path class="st1" d="M70.6,28.7L70.6,28.7l0-0.1c-0.9-0.4-1.7-0.8-2.6-1.1l-0.2-0.1l0.1,0.2c0.5,1,0.5,1.7,0.5,2.6l0,7.2l0-0.1
			c-0.8-2.3-1.7-4.6-2.5-6.9c-0.3-0.9-0.6-1.7-1-2.6c0-0.1-0.1-0.2-0.1-0.3c-0.1-0.2-0.2-0.5-0.2-0.8c0-0.1,0-0.2,0-0.3v-0.1l-0.1,0
			c-0.9-0.3-1.9-0.6-2.9-0.8L61,25.1l0.1,0.2c0.5,0.8,0.5,1.5,0.5,3v7.5c0,1.2,0,2.1-0.7,2.8l-0.1,0.1l0.2,0c1,0.2,1.9,0.5,2.8,0.8
			l0.2,0.1l-0.1-0.2c-0.6-1.1-0.6-2-0.6-3.1v-8.3l0.3,0.8c1.3,3.6,2.6,7.2,3.8,10.6l0.1,0.2c0.1,0.3,0.2,0.6,0.2,1
			c0,0.1,0,0.1,0,0.2l0,0.1l0.1,0c0.8,0.3,1.6,0.7,2.4,1l0.2,0.1l0-0.2C70,41.5,70,41.2,70,40.7v-9.8C70.1,30.1,70.1,29.3,70.6,28.7
			"/>
		<path class="st1" d="M59.2,24.8l0.1-0.1l-0.2,0c-1-0.2-2.1-0.4-3.1-0.6l-0.2,0l0.1,0.2c0.6,0.9,0.6,1.7,0.6,2.6v8
			c0,1.5,0,2.1-0.6,2.7l-0.1,0.1l0.2,0c1,0.2,2.1,0.3,3.1,0.6l0.2,0l-0.1-0.2c-0.6-0.8-0.6-1.4-0.6-3v-7.9
			C58.6,26.3,58.6,25.4,59.2,24.8"/>
		<path class="st1" d="M40.6,35.8c-0.3,0-0.6,0.1-0.9,0.1c-1,0-1.4-0.4-1.4-1.1v-3l0.1,0c0.2,0,0.3,0,0.5-0.1c0.3,0,0.6-0.1,1-0.2
			c0.4,0,0.7-0.1,1-0.1c0.8,0,1.2,0.2,1.4,0.5l0.2,0.2v-3.6l-0.2,0.2c-0.5,0.5-1,0.9-2.3,1.1c-0.5,0.1-1,0.2-1.5,0.2l-0.2,0v-2.6
			c0-1.4,1.8-1.7,2.4-1.8c1.6-0.2,2.7,0.2,3.5,1.4l0.2,0.2v-4.1l-0.1,0.1c-0.4,0.2-0.8,0.2-1.2,0.3c-2.4,0.2-4.9,0.7-7.2,1.2l-0.2,0
			l0.1,0.1c0.6,0.6,0.7,0.7,0.7,2.9v7.4c0,1.9-0.1,2.3-0.6,3.1l-0.1,0.2l0.2,0c2.3-0.5,4.6-0.9,6.9-1.2c0.6,0,0.9-0.1,1.1-0.1
			c0.3,0,0.5,0,0.6,0.1l0.1,0.1v-4.2V33C44,34.3,42.9,35.4,40.6,35.8"/>
		<path class="st1" d="M30.2,38.3c-0.6,0.2-1,0.3-1.3,0.3c-0.6,0-0.9-0.3-0.9-1v-3l0.7-0.3c0.2-0.1,0.5-0.2,0.8-0.3
			c0.7-0.2,1.2-0.4,1.6-0.4c0.3,0,0.6,0.1,0.8,0.3l0.2,0.1v-3.6l-0.2,0.2c-0.5,0.6-1,1.1-2.2,1.5c-0.5,0.2-1,0.4-1.4,0.6L28,33v-2.6
			c0-1.3,1.3-1.9,2.3-2.2c0.6-0.2,1.1-0.3,1.5-0.3c0.8,0,1.4,0.3,1.9,1l0.2,0.2v-4l-0.2,0.1c-0.4,0.3-0.7,0.4-1.2,0.5
			c-2.4,0.7-4.8,1.7-7,2.7l-0.1,0.1l0.1,0.1c0.6,0.5,0.7,0.7,0.7,2.7v7.4c0,1.9-0.1,2.4-0.5,3.1L25.5,42l0.2-0.1
			c2.2-1,4.3-1.8,6.5-2.5c0.9-0.2,1.2-0.3,1.4-0.3c0.1,0,0.2,0,0.3,0l0.1,0V35v-0.1C33.5,36.3,32.5,37.5,30.2,38.3"/>
	</g>
</g>
</svg>
