<?xml version="1.0" encoding="utf-8"?>
<!-- Generator: Adobe Illustrator 21.0.0, SVG Export Plug-In . SVG Version: 6.00 Build 0)  -->
<svg version="1.1" id="Layer_1" xmlns="http://www.w3.org/2000/svg" xmlns:xlink="http://www.w3.org/1999/xlink" x="0px" y="0px"
	 viewBox="0 0 96.4 130.4" style="enable-background:new 0 0 96.4 130.4;" xml:space="preserve">
<style type="text/css">
	.st0{fill:#325C67;}
	.st1{fill:#FFFFFF;}
</style>
<g>
	<path class="st0" d="M48.2,1.7C22.5,1.7,1.7,22.5,1.7,48.2c0,27.5,46.5,80.5,46.5,80.5s46.5-51,46.5-80.5
		C94.7,22.5,73.9,1.7,48.2,1.7z M48.2,74.9c-15.8,0-28.6-12.8-28.6-28.6c0-15.8,12.8-28.6,28.6-28.6c15.8,0,28.6,12.8,28.6,28.6
		C76.8,62.1,64,74.9,48.2,74.9z"/>
	<circle class="st0" cx="46.9" cy="46.2" r="31.9"/>
</g>
<g>
	<g>
		<path class="st1" d="M70.6,42.4c-2.3-1.1-3.8-4-6.8-3.2c-3.1,0.9-2.7,4.2-4.1,6.4c-1.1,1.8-5.2,4.9-3.1,6.9
			c3.9,3.8,4.7-0.7,10.3-2.3c5.6-1.6,8.7,1.8,10-3.4C77.7,43.8,72.7,43.3,70.6,42.4z"/>
		<path class="st1" d="M59.9,39.5c1.7-0.5,2.7-2.2,2.2-3.9c-0.5-1.7-1.7-8-5.2-6.7c-3.4,1.3-2.3,6.8-0.9,8.4
			C57.1,38.7,58.2,40,59.9,39.5z"/>
		<path class="st1" d="M57.1,46.8c1.4-1.1,1.5-3.1,0.4-4.5c-1.1-1.4-5.5-5.8-7.4-4.1c-1.9,1.8,1.4,6.7,2.5,8.1
			C53.8,47.8,55.8,48,57.1,46.8z"/>
		<path class="st1" d="M74.9,31.4c-1.6-0.1-1.6,2.6-2.3,4.5c-0.6,1.5-2.2,2-2.3,2.8c-0.1,1.7,2,3.6,3.7,3.7c1.7,0.1,3.3-1.2,3.4-2.9
			C77.6,37.7,77.8,31.6,74.9,31.4z"/>
		<path class="st1" d="M67.5,37.4c1.7-0.5,2.4-2.9,2.3-4.7c-0.2-1.9-2-6.9-5.2-6c-3.2,1-1.4,6.7-0.9,8.4
			C64.1,36.9,65.8,37.9,67.5,37.4z"/>
		<path class="st1" d="M48.7,31.9c0,0-0.8,2.8,0,5.7l1.4-0.9L48.7,31.9z"/>
		<path class="st1" d="M55.7,22.3c0,0-0.8,2.8,0,5.7l1.4-0.8L55.7,22.3z"/>
		<path class="st1" d="M73.7,24.9l1.3,4.8l1.6,0.1C75.9,26.9,73.7,24.9,73.7,24.9z"/>
		<path class="st1" d="M62.8,20.3l1.4,4.9l1.6,0C64.9,22.2,62.8,20.3,62.8,20.3z"/>
	</g>
	<path class="st1" d="M40.3,66.1c-2.3-1.2-3.7-4.2-6.8-3.4c-3,0.8-2.7,4.1-4.1,6.2c-1.2,1.9-5.3,4.9-3.1,7.1
		c3.8,3.8,4.7-0.7,10.3-2.3c5.6-1.6,8.6,1.9,10-3.4C47.3,67.7,42.2,67.1,40.3,66.1z"/>
	<path class="st1" d="M37.1,61c1.7-0.5,1.9-2.2,2.2-3.9c0.3-2.1-1.6-7.4-5.2-6.7c-3.6,0.7-1.4,6.7-0.9,8.4
		C33.7,60.5,35.4,61.5,37.1,61z"/>
	<path class="st1" d="M44.9,54.9c-2.6-0.5-4,5.6-4.3,7.3c-0.3,1.7,1,3.3,2.7,3.6c1.7,0.3,3.3-1,3.6-2.7
		C47.1,61.4,47.4,55.4,44.9,54.9z"/>
	<path class="st1" d="M26.5,70.8c1.4-1,2.3-3.7,1.3-5.1c-0.4-0.6-2.1-0.3-3.4-1.2c-1.6-1.2-3-3.6-4.3-2.6c-2.4,1.7,1,6.8,2,8.2
		C23.1,71.5,25.1,71.8,26.5,70.8z"/>
	<path class="st1" d="M29.5,63.1c1.7-0.5,2.7-2.2,2.2-3.9c-0.5-1.7-1.9-7.6-5.2-6.7c-3.3,0.9-2.2,6.1-1.4,7.8
		C25.9,61.9,27.8,63.6,29.5,63.1z"/>
	<path class="st1" d="M44,53.5l1.6,0.1c-0.8-2.9-3-4.9-3-4.9L44,53.5z"/>
	<path class="st1" d="M31.8,44.1l1.4,5l1.6-0.1C33.9,46,31.8,44.1,31.8,44.1z"/>
	<path class="st1" d="M17.7,55.7c0,0-0.8,2.8,0,5.7l1.4-0.9L17.7,55.7z"/>
	<path class="st1" d="M24.7,46c0,0-0.8,2.8,0,5.7L26,51L24.7,46z"/>
</g>
</svg>
