<?xml version="1.0" encoding="utf-8"?>
<!-- Generator: Adobe Illustrator 21.0.0, SVG Export Plug-In . SVG Version: 6.00 Build 0)  -->
<svg version="1.1" id="Layer_1" xmlns="http://www.w3.org/2000/svg" xmlns:xlink="http://www.w3.org/1999/xlink" x="0px" y="0px"
	 viewBox="0 0 28.4 28.4" style="enable-background:new 0 0 28.4 28.4;" xml:space="preserve">
<style type="text/css">
	.st0{fill:#FFFFFF;}
	.st1{fill:#B4D4D7;}
	.st2{fill:#272B30;}
</style>
<g>
	<path class="st0" d="M8.8,8.3c-1.8,1.8-1.8,4.8,0,6.6s4.8,1.8,6.6,0c1.8-1.8,1.8-4.8,0-6.6C13.6,6.5,10.6,6.5,8.8,8.3z"/>
	<path class="st1" d="M12.1,15.9c-0.2,0-0.4-0.2-0.4-0.4s0.2-0.4,0.4-0.4c0.9,0,1.8-0.4,2.5-1c0.9-0.9,1.2-2.1,0.9-3.3
		c-0.1-0.2,0.1-0.4,0.3-0.5c0.2-0.1,0.4,0.1,0.5,0.3c0.3,1.5-0.1,3-1.1,4C14.3,15.4,13.2,15.9,12.1,15.9z M14.9,9.3
		c-0.1,0-0.2,0-0.3-0.1l0,0c-0.2-0.2-0.2-0.4,0-0.6c0.2-0.2,0.4-0.2,0.6,0l0,0c0.2,0.2,0.2,0.4,0,0.6C15.1,9.2,15,9.3,14.9,9.3z"/>
	<path class="st2" d="M12.1,16.8c-1.3,0-2.6-0.5-3.6-1.5c-2-2-2-5.2,0-7.2s5.2-2,7.2,0l0,0c2,2,2,5.2,0,7.2
		C14.7,16.2,13.4,16.8,12.1,16.8z M12.1,7.3c-1.1,0-2.2,0.4-3,1.3c-1.7,1.7-1.7,4.4,0,6.1s4.4,1.7,6.1,0s1.7-4.4,0-6.1
		C14.3,7.8,13.2,7.3,12.1,7.3z M20,17.9l-1.7-1.7c-0.2-0.2-0.5-0.3-0.9-0.3c-0.2,0-0.4,0-0.5,0.1l-0.3-0.3c-0.2-0.2-0.4-0.2-0.6,0
		c-0.2,0.2-0.2,0.4,0,0.6l0.3,0.3c-0.1,0.1-0.1,0.2-0.1,0.4c0,0.3,0.1,0.6,0.3,0.9l1.7,1.7c0.2,0.2,0.6,0.3,0.9,0.3s0.6-0.1,0.9-0.3
		l0,0C20.4,19,20.4,18.2,20,17.9z M19.4,18.9c-0.2,0.2-0.4,0.2-0.6,0l-1.7-1.7C17,17.1,17,17,17,16.9c0-0.1,0-0.2,0.1-0.3
		c0.1-0.1,0.2-0.1,0.3-0.1c0.1,0,0.2,0,0.3,0.1l1.7,1.7C19.6,18.5,19.6,18.9,19.4,18.9z"/>
</g>
</svg>
