<?xml version="1.0" encoding="utf-8"?>
<!-- Generator: Adobe Illustrator 21.0.0, SVG Export Plug-In . SVG Version: 6.00 Build 0)  -->
<svg version="1.1" id="Layer_1" xmlns="http://www.w3.org/2000/svg" xmlns:xlink="http://www.w3.org/1999/xlink" x="0px" y="0px"
	 viewBox="0 0 28.4 28.4" style="enable-background:new 0 0 28.4 28.4;" xml:space="preserve">
<style type="text/css">
	.st0{fill:#FFFFFF;}
	.st1{fill:#B4D4D7;}
	.st2{fill:#272B30;}
</style>
<g>
	<path class="st0" d="M6.2,6.2c-3,3-3,7.9,0,10.8s7.9,3,10.8,0s3-7.9,0-10.8C14.1,3.3,9.2,3.3,6.2,6.2z"/>
	<path class="st1" d="M11.6,18.7c-0.3,0-0.7-0.3-0.7-0.7c0-0.3,0.3-0.7,0.7-0.7c1.5,0,3-0.7,4.1-1.6c1.5-1.5,2-3.4,1.5-5.4
		C17,10,17.4,9.7,17.7,9.5c0.3-0.2,0.7,0.2,0.8,0.5c0.5,2.5-0.2,4.9-1.8,6.6C15.2,17.9,13.4,18.7,11.6,18.7z M16.2,7.9
		c-0.2,0-0.3,0-0.5-0.2l0,0c-0.3-0.3-0.3-0.7,0-1c0.3-0.3,0.7-0.3,1,0l0,0c0.3,0.3,0.3,0.7,0,1C16.6,7.7,16.4,7.9,16.2,7.9z"/>
	<path class="st2" d="M11.6,20c-2.1,0-4.3-0.8-5.9-2.5C2.4,14.3,2.4,9,5.7,5.7s8.5-3.3,11.8,0l0,0c3.3,3.3,3.3,8.5,0,11.8
		C15.9,19.2,13.8,20,11.6,20z M11.6,4.6C9.8,4.6,8,5.2,6.7,6.7c-2.8,2.8-2.8,7.2,0,10s7.2,2.8,10,0s2.8-7.2,0-10
		C15.2,5.2,13.4,4.6,11.6,4.6z M24.6,21.8L21.8,19c-0.3-0.3-0.8-0.5-1.5-0.5c-0.3,0-0.7,0-0.8,0.2L19,18.2c-0.3-0.3-0.7-0.3-1,0
		c-0.3,0.3-0.3,0.7,0,1l0.5,0.5c-0.2,0.2-0.2,0.3-0.2,0.7c0,0.5,0.2,1,0.5,1.5l2.8,2.8c0.3,0.3,1,0.5,1.5,0.5c0.5,0,1-0.2,1.5-0.5
		l0,0C25.3,23.8,25.3,22.5,24.6,21.8z M23.6,23.6c-0.3,0.3-0.7,0.3-1,0l-2.8-2.8c-0.2-0.2-0.2-0.3-0.2-0.5c0-0.2,0-0.3,0.2-0.5
		c0.2-0.2,0.3-0.2,0.5-0.2c0.2,0,0.3,0,0.5,0.2l2.8,2.8C23.9,23,23.9,23.5,23.6,23.6z"/>
</g>
</svg>
