<?xml version="1.0" encoding="utf-8"?>
<!-- Generator: Adobe Illustrator 21.0.0, SVG Export Plug-In . SVG Version: 6.00 Build 0)  -->
<svg version="1.1" id="Layer_1" xmlns="http://www.w3.org/2000/svg" xmlns:xlink="http://www.w3.org/1999/xlink" x="0px" y="0px"
	 viewBox="0 0 28.4 28.4" style="enable-background:new 0 0 28.4 28.4;" xml:space="preserve">
<style type="text/css">
	.st0{fill:#272B30;}
	.st1{fill:#FDFDFD;}
	.st2{fill:#F4D046;}
	.st3{fill:#B5D5DC;}
</style>
<g>
	<path class="st0" d="M8.8,11.6c2.1,0.1,3.7,1,4.6,2.8c0.9,1.8,0.7,3.6-0.5,5.2c-1.1,1.5-2.2,3-3.3,4.5c0,0.1-0.1,0.1-0.1,0.2
		c-0.3,0.4-0.7,0.4-1.1,0c-0.6-0.8-1.2-1.6-1.7-2.4c-0.6-0.8-1.2-1.6-1.8-2.5c-2.1-2.8-0.5-7,2.9-7.8C8.1,11.7,8.5,11.7,8.8,11.6z
		 M9,23.1C9,23,9,23,9.1,23c1-1.3,1.9-2.6,2.9-4c0.6-0.9,0.9-1.8,0.8-2.9c-0.3-1.6-1.1-2.6-2.6-3.1c-1.5-0.5-2.9-0.1-4,1.1
		c-1.1,1.2-1.3,2.6-0.6,4.1c0.3,0.6,0.8,1.2,1.2,1.8C7.4,21,8.2,22,9,23.1z"/>
	<path class="st0" d="M18,6.6c0-1.6,1.2-2.9,2.8-3c1.6-0.1,3,1,3.2,2.5c0.1,0.8-0.1,1.6-0.6,2.3c-0.6,0.8-1.2,1.6-1.8,2.5
		c-0.4,0.5-0.8,0.5-1.1,0c-0.6-0.8-1.2-1.7-1.8-2.5C18.2,7.9,18,7.3,18,6.6z M21,9.7c0.5-0.7,1.1-1.4,1.5-2.1c0.6-1,0.2-2.2-0.8-2.6
		c-0.6-0.3-1.3-0.2-1.8,0.2c-0.6,0.4-0.8,1-0.7,1.7c0.1,0.4,0.3,0.8,0.6,1.1C20.2,8.6,20.6,9.1,21,9.7z"/>
	<path class="st0" d="M11.9,23.5c0.1,0,0.2,0,0.3,0c0.3,0,0.6,0.3,0.6,0.6c0,0.3-0.2,0.6-0.5,0.6c-0.2,0-0.5,0-0.7,0
		c-0.3,0-0.5-0.3-0.5-0.6c0-0.3,0.2-0.6,0.5-0.6C11.6,23.5,11.8,23.5,11.9,23.5C11.9,23.5,11.9,23.5,11.9,23.5z"/>
	<path class="st0" d="M14.9,24.7c-0.1,0-0.2,0-0.3,0c-0.3,0-0.5-0.3-0.5-0.6c0-0.3,0.2-0.6,0.5-0.6c0.2,0,0.5,0,0.7,0
		c0.3,0,0.5,0.3,0.5,0.6c0,0.3-0.2,0.6-0.5,0.6C15.1,24.7,15,24.7,14.9,24.7z"/>
	<path class="st0" d="M17.9,24.7c-0.1,0-0.2,0-0.3,0c-0.3,0-0.6-0.3-0.6-0.6c0-0.3,0.2-0.6,0.6-0.6c0.2,0,0.4,0,0.7,0
		c0.3,0,0.6,0.3,0.6,0.6c0,0.3-0.2,0.6-0.6,0.6C18.1,24.7,18,24.7,17.9,24.7C17.9,24.7,17.9,24.7,17.9,24.7z"/>
	<path class="st0" d="M20.9,24.7c-0.1,0-0.2,0-0.3,0c-0.3,0-0.5-0.3-0.5-0.6c0-0.3,0.2-0.6,0.6-0.6c0.2,0,0.4,0,0.7,0
		c0.3,0,0.6,0.3,0.6,0.6c0,0.3-0.2,0.6-0.6,0.6C21.1,24.7,21,24.7,20.9,24.7C20.9,24.7,20.9,24.7,20.9,24.7z"/>
	<path class="st0" d="M20.5,12.5c0,0,0,0.2-0.1,0.2c-0.1,0.2-0.3,0.4-0.4,0.6c-0.2,0.2-0.6,0.3-0.8,0.1c-0.3-0.2-0.3-0.5-0.2-0.8
		c0.1-0.2,0.3-0.4,0.4-0.6c0.2-0.2,0.4-0.3,0.7-0.2C20.3,11.9,20.5,12.2,20.5,12.5z"/>
	<path class="st0" d="M18.7,14.9c0,0.1-0.1,0.2-0.1,0.3c-0.1,0.2-0.2,0.3-0.4,0.5c-0.2,0.3-0.6,0.3-0.8,0.1
		c-0.3-0.2-0.3-0.5-0.1-0.8c0.1-0.2,0.3-0.4,0.4-0.5c0.2-0.2,0.4-0.3,0.7-0.2C18.5,14.3,18.7,14.6,18.7,14.9z"/>
	<path class="st0" d="M20.5,19.8c0,0.3-0.1,0.5-0.3,0.6c-0.2,0.1-0.4,0.1-0.6-0.1c-0.2-0.2-0.3-0.4-0.5-0.6c-0.2-0.2-0.1-0.5,0-0.7
		c0.2-0.2,0.5-0.3,0.7-0.1c0.3,0.2,0.5,0.5,0.7,0.7C20.5,19.7,20.5,19.8,20.5,19.8z"/>
	<path class="st0" d="M22,22.6c-0.5,0-1.1-0.7-1.1-1.1c0-0.2,0.1-0.4,0.4-0.5c0.2-0.1,0.4-0.1,0.6,0.1c0.2,0.2,0.4,0.4,0.5,0.6
		c0.1,0.2,0.2,0.4,0,0.6C22.3,22.5,22.1,22.6,22,22.6z"/>
	<path class="st0" d="M17.9,18.2c-0.5,0-1.1-0.7-1.1-1.1c0-0.2,0.1-0.4,0.3-0.5c0.2-0.1,0.4-0.1,0.6,0.1c0.2,0.2,0.4,0.4,0.6,0.6
		c0.1,0.2,0.1,0.4,0,0.6C18.2,18.1,18.1,18.2,17.9,18.2z"/>
	<path class="st0" d="M23.7,24.7c-0.6,0-1-0.7-0.7-1.2c0.2-0.3,0.6-0.4,0.9-0.2c0.2,0.1,0.3,0.3,0.4,0.4c0.2,0.2,0.1,0.4,0,0.6
		C24.2,24.6,24,24.7,23.7,24.7z"/>
	<path class="st1" d="M9,23.1C8.2,22,7.4,21,6.7,20c-0.4-0.6-0.9-1.1-1.2-1.8c-0.6-1.5-0.4-2.9,0.6-4.1c1.1-1.2,2.4-1.6,4-1.1
		c1.5,0.5,2.4,1.5,2.6,3.1c0.2,1.1-0.1,2-0.8,2.9c-1,1.3-1.9,2.6-2.9,4C9,23,9,23,9,23.1z M9,14.7c-1.1,0-2,0.9-2,2c0,1.1,0.9,2,2,2
		c1.1,0,2-0.9,2-2C11,15.6,10.1,14.7,9,14.7z"/>
	<path class="st2" d="M21,9.7c-0.4-0.6-0.8-1.1-1.2-1.6c-0.2-0.3-0.5-0.7-0.6-1.1c-0.1-0.7,0.1-1.3,0.7-1.7c0.5-0.4,1.2-0.5,1.8-0.2
		c1,0.4,1.4,1.7,0.8,2.6C22.1,8.3,21.5,9,21,9.7z"/>
	<path class="st3" d="M9,14.7c1.1,0,2,0.9,2,2c0,1.1-0.9,2-2,2c-1.1,0-2-0.9-2-2C7,15.6,7.9,14.7,9,14.7z"/>
</g>
</svg>
