<?xml version="1.0" encoding="utf-8"?>
<!-- Generator: Adobe Illustrator 21.0.0, SVG Export Plug-In . SVG Version: 6.00 Build 0)  -->
<svg version="1.1" id="Layer_1" xmlns="http://www.w3.org/2000/svg" xmlns:xlink="http://www.w3.org/1999/xlink" x="0px" y="0px"
	 viewBox="0 0 28.4 28.4" style="enable-background:new 0 0 28.4 28.4;" xml:space="preserve">
<style type="text/css">
	.st0{fill:#272B30;}
	.st1{fill:#FDFDFD;}
	.st2{fill:#F4D046;}
	.st3{fill:#B5D5DC;}
</style>
<g>
	<path class="st0" d="M10,12.1c1.6,0.1,2.8,0.7,3.4,2.1c0.7,1.4,0.5,2.7-0.4,3.9c-0.8,1.1-1.7,2.3-2.5,3.4c0,0-0.1,0.1-0.1,0.1
		c-0.2,0.3-0.5,0.3-0.8,0c-0.4-0.6-0.9-1.2-1.3-1.8c-0.5-0.6-0.9-1.2-1.4-1.8c-1.5-2.1-0.4-5.2,2.2-5.8C9.5,12.2,9.8,12.2,10,12.1z
		 M10.1,20.7C10.1,20.7,10.2,20.6,10.1,20.7c0.8-1.1,1.5-2.1,2.3-3.1c0.5-0.6,0.7-1.4,0.6-2.2c-0.2-1.2-0.9-2-2-2.3
		c-1.1-0.4-2.2-0.1-3,0.8c-0.8,0.9-1,1.9-0.5,3c0.2,0.5,0.6,0.9,0.9,1.3C8.9,19.1,9.5,19.9,10.1,20.7z"/>
	<path class="st0" d="M16.9,8.4c0-1.2,0.9-2.1,2.1-2.2C20.1,6,21.2,6.9,21.3,8c0.1,0.6-0.1,1.2-0.4,1.7c-0.5,0.6-0.9,1.2-1.4,1.9
		c-0.3,0.4-0.6,0.4-0.8,0c-0.5-0.6-0.9-1.2-1.4-1.9C17,9.3,16.9,8.9,16.9,8.4z M19.1,10.7c0.4-0.5,0.8-1,1.1-1.6
		c0.5-0.7,0.2-1.6-0.6-2c-0.5-0.2-0.9-0.1-1.3,0.2c-0.4,0.3-0.6,0.8-0.5,1.3c0.1,0.3,0.2,0.6,0.4,0.8C18.5,9.8,18.8,10.2,19.1,10.7z
		"/>
	<path class="st0" d="M12.3,21c0.1,0,0.2,0,0.2,0c0.2,0,0.4,0.2,0.4,0.4c0,0.2-0.2,0.4-0.4,0.5c-0.2,0-0.4,0-0.5,0
		c-0.2,0-0.4-0.2-0.4-0.5c0-0.2,0.2-0.4,0.4-0.4C12.1,21,12.2,21,12.3,21C12.3,21,12.3,21,12.3,21z"/>
	<path class="st0" d="M14.5,21.9c-0.1,0-0.2,0-0.3,0c-0.2,0-0.4-0.2-0.4-0.5c0-0.2,0.2-0.4,0.4-0.4c0.2,0,0.4,0,0.5,0
		c0.2,0,0.4,0.2,0.4,0.4c0,0.2-0.2,0.4-0.4,0.5C14.7,21.9,14.6,21.9,14.5,21.9z"/>
	<path class="st0" d="M16.8,21.9c-0.1,0-0.2,0-0.3,0c-0.2,0-0.4-0.2-0.4-0.4c0-0.2,0.2-0.4,0.4-0.4c0.2,0,0.3,0,0.5,0
		c0.3,0,0.4,0.2,0.4,0.4c0,0.2-0.2,0.4-0.4,0.4C17,21.9,16.9,21.9,16.8,21.9C16.8,21.9,16.8,21.9,16.8,21.9z"/>
	<path class="st0" d="M19,21.9c-0.1,0-0.2,0-0.3,0c-0.2,0-0.4-0.2-0.4-0.5c0-0.2,0.2-0.4,0.4-0.4c0.2,0,0.3,0,0.5,0
		c0.3,0,0.4,0.2,0.4,0.5c0,0.2-0.2,0.4-0.4,0.4C19.2,21.9,19.1,21.9,19,21.9C19,21.9,19,21.9,19,21.9z"/>
	<path class="st0" d="M18.7,12.7c0,0,0,0.1-0.1,0.2c-0.1,0.2-0.2,0.3-0.3,0.4c-0.1,0.2-0.4,0.2-0.6,0.1c-0.2-0.1-0.2-0.4-0.1-0.6
		c0.1-0.1,0.2-0.3,0.3-0.4c0.1-0.1,0.3-0.2,0.5-0.1C18.6,12.3,18.7,12.5,18.7,12.7z"/>
	<path class="st0" d="M17.4,14.6c0,0,0,0.1-0.1,0.2c-0.1,0.1-0.2,0.3-0.3,0.4c-0.2,0.2-0.4,0.2-0.6,0.1c-0.2-0.1-0.2-0.4-0.1-0.6
		c0.1-0.1,0.2-0.3,0.3-0.4c0.1-0.1,0.3-0.2,0.5-0.1C17.3,14.2,17.4,14.3,17.4,14.6z"/>
	<path class="st0" d="M18.7,18.2c0,0.2-0.1,0.3-0.3,0.4c-0.2,0.1-0.3,0.1-0.5-0.1c-0.1-0.1-0.3-0.3-0.4-0.4c-0.1-0.2-0.1-0.4,0-0.6
		c0.1-0.1,0.4-0.2,0.5-0.1c0.2,0.2,0.4,0.4,0.5,0.6C18.7,18.1,18.7,18.2,18.7,18.2z"/>
	<path class="st0" d="M19.9,20.4c-0.4,0-0.9-0.5-0.8-0.8c0-0.2,0.1-0.3,0.3-0.4c0.2-0.1,0.3,0,0.4,0.1c0.1,0.1,0.3,0.3,0.4,0.4
		c0.1,0.1,0.1,0.3,0,0.5C20.1,20.2,19.9,20.3,19.9,20.4z"/>
	<path class="st0" d="M16.8,17c-0.3,0-0.8-0.5-0.8-0.8c0-0.2,0.1-0.3,0.3-0.4c0.2-0.1,0.3-0.1,0.4,0c0.2,0.1,0.3,0.3,0.4,0.5
		c0.1,0.1,0.1,0.3,0,0.4C17.1,17,16.9,17,16.8,17z"/>
	<path class="st0" d="M21.1,21.9c-0.4,0-0.7-0.5-0.5-0.9c0.1-0.2,0.4-0.3,0.7-0.1c0.1,0.1,0.2,0.2,0.3,0.3c0.1,0.1,0.1,0.3,0,0.5
		C21.5,21.9,21.3,21.9,21.1,21.9z"/>
	<path class="st1" d="M10.1,20.7c-0.6-0.8-1.2-1.6-1.7-2.3c-0.3-0.4-0.7-0.8-0.9-1.3C7,16,7.2,14.9,8,14c0.8-0.9,1.8-1.2,3-0.8
		c1.1,0.3,1.8,1.1,2,2.3c0.1,0.8-0.1,1.5-0.6,2.2C11.6,18.6,10.9,19.6,10.1,20.7C10.2,20.6,10.1,20.7,10.1,20.7z M10.1,14.4
		c-0.8,0-1.5,0.7-1.5,1.5c0,0.8,0.7,1.5,1.5,1.5c0.8,0,1.5-0.7,1.5-1.5C11.6,15.1,10.9,14.4,10.1,14.4z"/>
	<path class="st2" d="M19.1,10.7c-0.3-0.4-0.6-0.8-0.9-1.2c-0.2-0.3-0.4-0.5-0.4-0.8c-0.1-0.5,0.1-1,0.5-1.3
		c0.4-0.3,0.9-0.4,1.3-0.2c0.8,0.3,1.1,1.2,0.6,2C19.9,9.6,19.5,10.1,19.1,10.7z"/>
	<path class="st3" d="M10.1,14.4c0.8,0,1.5,0.7,1.5,1.5c0,0.8-0.7,1.5-1.5,1.5c-0.8,0-1.5-0.7-1.5-1.5C8.6,15.1,9.3,14.4,10.1,14.4z
		"/>
</g>
</svg>
