<?xml version="1.0" encoding="utf-8"?>
<!-- Generator: Adobe Illustrator 21.0.0, SVG Export Plug-In . SVG Version: 6.00 Build 0)  -->
<svg version="1.1" id="Layer_1" xmlns="http://www.w3.org/2000/svg" xmlns:xlink="http://www.w3.org/1999/xlink" x="0px" y="0px"
	 viewBox="0 0 28.4 28.4" style="enable-background:new 0 0 28.4 28.4;" xml:space="preserve">
<style type="text/css">
	.st0{fill:#9AA0A8;}
	.st1{fill:#FFFFFF;stroke:#344549;stroke-width:0.25;stroke-miterlimit:10;}
	.st2{fill:#D2D3D5;}
	.st3{fill:#F4D046;}
</style>
<g>
	<path class="st0" d="M10.6,8.3c0.2-1,0.4-1.2,1.3-1.2c3.2,0,6.5,0,9.7,0c0.9,0,1.3,0.3,1.3,1.3c0,3.3,0,6.7,0,10
		c0,0.9-0.4,1.3-1.3,1.3c-3.3,0-6.6,0-9.8,0c-0.9,0-1.1-0.2-1.3-1.2c0-0.6,0-1.1,0-1.7c0-2.3,0-4.6,0-6.8
		C10.6,9.4,10.6,8.9,10.6,8.3z M16.8,7.9c-2.9-0.1-5.4,2.4-5.4,5.4c0,3.1,2.4,5.5,5.4,5.5c3,0,5.3-2.4,5.4-5.4
		C22.2,10.4,19.7,7.9,16.8,7.9z"/>
	<path class="st1" d="M22.3,18.3c0,0.9-0.4,1.3-1.3,1.3c-3.3,0-6.6,0-9.9,0c-0.9,0-1.1-0.2-1.3-1.2V10c0-0.5,0-1.1,0-1.6
		c0.2-1,0.4-1.2,1.3-1.2c3.3,0,6.5,0,9.8,0c0.9,0,1.3,0.3,1.3,1.2C22.3,11.7,22.3,15,22.3,18.3z"/>
	<path class="st0" d="M10,8.4c0,0.5,0,1.1,0,1.6c-0.4,0-0.8,0-1.1,0c0,2.3,0,4.5,0,6.8c0.4,0,0.8,0,1.1,0c0,0.6,0,1.1,0,1.7
		c-0.4,0-0.7,0-1.1,0c0,1.3,0,2.6,0,3.9c-0.4,0-0.7,0-1,0c0-1.1,0-2.2,0-3.4c-0.6,0-1,0-1.4,0c0-0.2,0-0.4,0-0.6c0.5,0,1,0,1.5,0
		c0.1-0.6-0.2-1.3,0.9-1.5C8.2,16.8,8,16.6,8,16.2c0-1.8,0-3.7,0-5.5c-0.5-0.5-1.1-0.3-1.6-0.4c0-0.1,0-0.3,0-0.4c0.6,0,1.2,0,1.8,0
		c0-0.4,0-0.6,0-0.9c0.1-0.2,0.2-0.4,0.4-0.7C8.2,8.4,8,8.2,8,7.8C8.1,7.2,8,6.6,8,6c0.2,0,0.5,0,0.8,0c0,0.8,0,1.5,0,2.4
		C9.3,8.4,9.6,8.4,10,8.4z"/>
	<path class="st2" d="M6.4,10.4c0.5,0,1.1-0.1,1.6,0.4c0,1.8,0,3.6,0,5.5c0,0.4,0.2,0.6,0.8,0.6c-1,0.2-0.7,0.9-0.9,1.5
		c-0.5,0-1,0-1.5,0c-0.4-0.5-0.2-1-0.2-1.5c0-0.4,0.1-0.7,0.1-1.1C6.4,14,6.4,12.2,6.4,10.4z"/>
	<path class="st2" d="M8,6c0,0.6,0,1.2,0,1.8C8,8.2,8.2,8.4,8.6,8.4C8.5,8.7,8.3,8.9,8.2,9.1c-0.1,0.2,0,0.5,0,0.9
		c-0.6,0-1.2,0-1.8,0C6,9.6,6.2,9.1,6.3,8.7C6.5,8,6.4,7.3,6.4,6.5c0-0.2,0-0.3,0-0.6C7,6,7.5,6,8,6z"/>
	<path class="st2" d="M6.4,19c0.4,0,0.9,0,1.4,0c0,1.2,0,2.3,0,3.4c-0.4,0-0.9,0-1.3,0c-0.2-0.6-0.1-1.2-0.1-1.7
		C6.4,20.1,6.4,19.5,6.4,19z"/>
	<circle class="st3" cx="16.1" cy="13.4" r="5.4"/>
	<path d="M20,14.3c-0.3-0.4-0.5-0.9-0.8-1.3c-0.3-0.3-0.7-0.4-1.1-0.4c-0.3,0-0.5,0-0.8,0V12c0-0.1,0-0.2,0.1-0.3
		c0.2-0.2,0.4-0.3,0.6-0.5c0.1-0.1,0.1-0.2,0.2-0.3v-0.6h-0.7c-0.1,0-0.1,0-0.2,0V11h-0.9v-0.5c0-0.1,0-0.1,0-0.2h-0.8
		c0,0.3,0,0.5-0.1,0.8c-0.3,0-0.5,0-0.8,0.1v-0.8c-0.1,0-0.1,0-0.2-0.1c-0.2,0-0.4,0-0.6,0.1c0,0.3-0.1,0.5,0,0.8
		c0.2,0.2,0.5,0.4,0.7,0.6c0.1,0.1,0.1,0.1,0.1,0.2c0,0.2,0,0.5,0,0.8c-0.3,0-0.6,0-0.9,0c-0.5,0-0.9,0.2-1.1,0.6
		c-0.2,0.3-0.3,0.5-0.5,0.8c-0.1,0.1-0.1,0.2-0.2,0.3c-0.4,0.7,0,1.5,0.8,1.5c0.7,0,1.5,0,2.2,0c0.3,0,0.5-0.2,0.5-0.5
		c0-0.5,0-1.1,0-1.6c0-0.1,0-0.2,0-0.3h0.8c0,0.6,0,1.3,0,1.9c0,0.4,0.2,0.5,0.5,0.5c0.7,0,1.5,0,2.2,0C20,15.9,20.4,15,20,14.3z
		 M14.7,15.1c-0.1,0-0.1,0-0.2,0c-0.5,0-1,0-1.6,0c-0.2,0-0.3-0.1-0.2-0.3c0.2-0.4,0.5-0.7,0.7-1.1c0.1-0.1,0.2-0.2,0.3-0.2h0.9
		V15.1z M16.4,12.6h-0.8c-0.1-0.6,0-0.9,0.4-1.1C16.4,11.7,16.5,12.1,16.4,12.6z M19.1,15c-0.5,0-1.1,0-1.6,0c0,0-0.1,0-0.1,0v-1.6
		c0.3,0,0.7,0,1,0c0.1,0,0.1,0.1,0.2,0.1c0.2,0.4,0.5,0.7,0.7,1.1C19.3,14.9,19.3,15,19.1,15z"/>
</g>
</svg>
