<?xml version="1.0" encoding="utf-8"?>
<!-- Generator: Adobe Illustrator 21.0.0, SVG Export Plug-In . SVG Version: 6.00 Build 0)  -->
<svg version="1.1" id="Layer_1" xmlns="http://www.w3.org/2000/svg" xmlns:xlink="http://www.w3.org/1999/xlink" x="0px" y="0px"
	 viewBox="0 0 28.4 28.4" style="enable-background:new 0 0 28.4 28.4;" xml:space="preserve">
<style type="text/css">
	.st0{fill:#9AA0A8;}
	.st1{fill:#FFFFFF;stroke:#344549;stroke-width:0.25;stroke-miterlimit:10;}
	.st2{fill:#D2D3D5;}
	.st3{fill:#F4D046;}
</style>
<g>
	<path class="st0" d="M9.1,6.7c0.2-1.3,0.5-1.5,1.7-1.5c4.1,0,8.2,0,12.3,0c1.2,0,1.6,0.4,1.6,1.6c0,4.2,0,8.5,0,12.7
		c0,1.2-0.5,1.6-1.6,1.6c-4.2,0-8.3,0-12.5,0c-1.1,0-1.4-0.3-1.6-1.5c0-0.7,0-1.4,0-2.1c0-2.9,0-5.8,0-8.7C9.1,8.1,9.1,7.4,9.1,6.7z
		 M17,6.2c-3.7-0.1-6.9,3.1-6.9,6.9c0,3.9,3,7,6.8,7c3.8,0,6.7-3,6.8-6.8C23.9,9.4,20.7,6.2,17,6.2z"/>
	<path class="st1" d="M24,19.4c0,1.2-0.5,1.6-1.6,1.6c-4.2,0-8.4,0-12.6,0c-1.1,0-1.4-0.3-1.6-1.5V8.9c0-0.7,0-1.4,0-2.1
		c0.2-1.3,0.5-1.5,1.7-1.5c4.1,0,8.3,0,12.4,0c1.2,0,1.6,0.4,1.6,1.6C24,11.1,24,15.3,24,19.4z"/>
	<path class="st0" d="M8.4,6.8c0,0.7,0,1.4,0,2.1c-0.5,0-1,0-1.4,0c0,2.9,0,5.7,0,8.6c0.5,0,1,0,1.4,0c0,0.7,0,1.4,0,2.1
		c-0.5,0-0.9,0-1.4,0c0,1.6,0,3.3,0,5c-0.5,0-0.9,0-1.3,0c0-1.4,0-2.8,0-4.3c-0.7,0-1.2,0-1.8,0c0-0.2,0-0.5,0-0.7c0.7,0,1.3,0,2,0
		c0.2-0.8-0.2-1.6,1.1-1.9c-0.8-0.1-1-0.3-1-0.8c0-2.3,0-4.6,0-6.9c-0.6-0.6-1.3-0.4-2-0.5c0-0.2,0-0.3,0-0.5c0.7,0,1.5,0,2.3,0
		c0-0.5-0.1-0.8,0-1.1c0.1-0.3,0.3-0.5,0.5-0.8C6.1,6.9,5.8,6.6,5.9,6c0.1-0.7,0-1.5,0-2.3c0.3,0,0.6,0,1,0c0,1,0,1.9,0,3
		C7.5,6.8,8,6.8,8.4,6.8z"/>
	<path class="st2" d="M3.9,9.4c0.7,0.1,1.4-0.2,2,0.5c0,2.3,0,4.6,0,6.9c0,0.5,0.2,0.7,1,0.8c-1.3,0.3-0.9,1.2-1.1,1.9
		c-0.6,0-1.3,0-2,0c-0.5-0.6-0.2-1.3-0.2-1.9c0-0.4,0.2-0.9,0.2-1.3C3.9,14,3.9,11.7,3.9,9.4z"/>
	<path class="st2" d="M5.9,3.8c0,0.8,0,1.5,0,2.3C5.8,6.6,6.1,6.9,6.7,6.9C6.5,7.2,6.3,7.5,6.2,7.7c-0.1,0.3,0,0.6,0,1.1
		c-0.8,0-1.5,0-2.3,0C3.3,8.4,3.6,7.7,3.7,7.2c0.3-0.9,0.2-1.8,0.2-2.7c0-0.2,0-0.4,0-0.7C4.6,3.8,5.3,3.8,5.9,3.8z"/>
	<path class="st2" d="M3.9,20.3c0.5,0,1.1,0,1.8,0c0,1.5,0,2.9,0,4.3c-0.5,0-1.1,0-1.7,0c-0.3-0.7-0.1-1.5-0.1-2.2
		C3.9,21.7,3.9,21,3.9,20.3z"/>
	<circle class="st3" cx="16.1" cy="13.2" r="6.9"/>
	<path d="M21,14.4c-0.3-0.6-0.7-1.1-1-1.7c-0.4-0.4-0.8-0.5-1.4-0.5c-0.3,0-0.7,0-1,0v-0.8c0-0.2,0-0.3,0.2-0.4
		c0.3-0.2,0.5-0.4,0.7-0.7c0.1-0.1,0.1-0.2,0.2-0.3V9.2h-0.9c-0.1,0-0.1,0-0.2,0v0.9h-1.1V9.5c0-0.1,0-0.2,0-0.3h-1
		c0,0.3,0,0.6-0.1,1c-0.3,0-0.7,0-1.1,0.1v-1c-0.1,0-0.2,0-0.3-0.1c-0.2,0-0.5,0-0.8,0.1c0,0.4-0.1,0.7,0,1c0.3,0.2,0.6,0.5,0.9,0.8
		c0.1,0.1,0.1,0.1,0.1,0.2c0,0.3,0,0.6,0,1c-0.4,0-0.8,0-1.1,0c-0.6,0-1.1,0.3-1.4,0.8c-0.2,0.4-0.4,0.7-0.7,1
		c-0.1,0.1-0.1,0.2-0.2,0.4c-0.5,0.9,0,1.9,1,1.9c0.9,0,1.9,0,2.8,0c0.4,0,0.6-0.2,0.6-0.6c0-0.7,0-1.4,0-2.1c0-0.1,0-0.2,0-0.4h1.1
		c0,0.8,0,1.6,0,2.4c0,0.5,0.2,0.6,0.6,0.6c0.9,0,1.9,0,2.8,0C21.1,16.3,21.6,15.3,21,14.4z M14.4,15.3c-0.1,0-0.1,0-0.2,0
		c-0.7,0-1.3,0-2,0c-0.3,0-0.4-0.2-0.2-0.4c0.3-0.5,0.6-0.9,0.9-1.4c0.1-0.2,0.2-0.2,0.4-0.2h1.1V15.3z M16.5,12.2h-1
		c-0.1-0.7,0-1.1,0.5-1.4C16.5,11,16.7,11.5,16.5,12.2z M19.9,15.3c-0.7,0-1.4,0-2.1,0c0,0-0.1,0-0.1,0v-2c0.4,0,0.9,0,1.3,0
		c0.1,0,0.2,0.1,0.2,0.2c0.3,0.5,0.6,0.9,0.9,1.4C20.2,15.1,20.2,15.3,19.9,15.3z"/>
</g>
</svg>
