<?xml version="1.0" encoding="utf-8"?>
<!-- Generator: Adobe Illustrator 21.0.0, SVG Export Plug-In . SVG Version: 6.00 Build 0)  -->
<svg version="1.1" id="Layer_1" xmlns="http://www.w3.org/2000/svg" xmlns:xlink="http://www.w3.org/1999/xlink" x="0px" y="0px"
	 viewBox="0 0 28.4 28.4" style="enable-background:new 0 0 28.4 28.4;" xml:space="preserve">
<style type="text/css">
	.st0{fill:#229F6B;}
	.st1{fill:#239F6E;}
	.st2{fill:#24A06E;}
	.st3{fill:#27A270;}
	.st4{fill:#26A170;}
	.st5{fill:#2BA473;}
	.st6{fill:#25A170;}
	.st7{fill:#28A271;}
	.st8{fill:#1E9D69;}
	.st9{fill:#4CB286;}
	.st10{fill:#29A371;}
	.st11{fill:#26A16F;}
	.st12{fill:#1F9D68;}
	.st13{fill:#2FA676;}
	.st14{fill:#2DA575;}
	.st15{fill:#30A776;}
	.st16{fill:#199A65;}
</style>
<g>
	<path class="st0" d="M19.5,17.3C19.5,17.3,19.5,17.3,19.5,17.3c-0.1,0.2-0.3,0.4-0.4,0.6c0-0.1,0-0.1,0-0.2
		c0.2-0.8,0.1-1.6-0.3-2.3c-0.1-0.2-0.3-0.3-0.4-0.5c-1.1-1.4-2.8-1.9-4.4-2.3c-0.5-0.1-1-0.2-1.5-0.3c-0.1,0-0.2,0-0.3-0.1
		c-0.2,0-0.4,0-0.5,0c-0.2,0-0.4,0-0.6-0.1c-1.5,0-3,0-4.5,0c0,0-0.1,0-0.1,0c0,0-0.1,0-0.1,0c-0.2,0-0.5,0-0.7,0
		c-0.1,0-0.2,0-0.2,0c0-0.1,0-0.1,0-0.2c0,0,0.1,0,0.1,0c0,0,0.1,0,0.1,0c0.6-0.1,1.1-0.2,1.7-0.3c0.9-0.1,1.7-0.2,2.6-0.3
		c0.3,0.3,0.7,0.1,1,0c-0.1,0-0.2,0-0.3,0c1.1,0,2.3,0,3.4,0c0.4,0,0.8,0.1,1.1,0.1c0.1,0,0.3,0,0.3-0.1c0.6-1.2,1.6-2,2.7-2.6
		c0.3-0.2,0.6-0.3,0.9-0.5c0.3,0,0.3,0,0.1-0.2c-0.1-0.2-0.3-0.4-0.3-0.5c0-0.4,0.4-0.9,0.8-1.1c-0.2,0.3-0.3,0.6-0.5,0.9
		c-0.2,0.3,0.1,0.5,0.2,0.7c0,0.1,0.2,0.1,0.3,0.1c0.3-0.1,0.5-0.2,0.8-0.3c0.1,0,0.1-0.1,0.2-0.2c0,0,0,0,0,0
		c0.1,0,0.2-0.1,0.2-0.1C21.3,7,21.8,7,22.2,7.5c0.1,0.1,0.2,0.1,0.3,0.2c0.3,0.1,0.6,0.2,0.9,0.2c0.1,0,0.2,0,0.3,0
		c0.1,0.1,0.2,0.2,0.2,0.2c0,0.4,0.1,0.8,0.1,1.1c-0.2,0.6-0.7,1.1-1.2,1.6c-0.1,0.1-0.2,0.3-0.2,0.3c0.1,0.1,0.3,0.3,0.4,0.3
		c0.3,0,0.6-0.1,0.9-0.2c0.1,0.2,0.5-0.1,0.4,0.3c-0.1,0.1-0.3,0.2-0.4,0.3c-0.6,0.4-1.1,0.4-1.7-0.1c-0.1-0.1-0.2-0.1-0.2-0.2
		c-1.1,0.5-2.1,1-3.2,1.5c0.1,0.1,0.2,0.3,0.3,0.5c0,0.1-0.1,0.1,0,0.2c0.1,0.3,0.2,0.5,0.3,0.8c0.1,0.1,0.2,0.2,0.2,0.3
		c0,0,0,0,0,0.1c0,0.1-0.1,0.1-0.1,0.2c-0.1,0.5-0.1,1-0.2,1.5C19.5,16.9,19.5,17.1,19.5,17.3z"/>
	<path class="st1" d="M18.4,14.9c0.2,0.2,0.4,0.3,0.4,0.5c0.3,0.7,0.5,1.5,0.3,2.3c0,0,0,0.1,0,0.2c0.1-0.2,0.3-0.3,0.4-0.5
		c-0.2,0.5-0.4,1-0.6,1.6c-0.1,0.3-0.2,0.6-0.3,0.9c-0.1,0.6,0.1,1,0.6,1.3c0.6,0.4,0.9,0.8,0.8,1.6c-0.2-0.6-0.6-1.1-1.2-1.4
		c-0.2-0.1-0.4-0.2-0.6-0.2c-0.4-0.1-0.5-0.4-0.4-0.7c0.2-0.4,0.3-0.8,0.5-1.2c0.6-1.2,0.8-2.4,0.3-3.7
		C18.6,15.3,18.5,15.1,18.4,14.9z"/>
	<path class="st2" d="M20.8,7.7c-0.1,0.1-0.1,0.2-0.2,0.2c-0.3,0.1-0.5,0.2-0.8,0.3c-0.1,0-0.3,0-0.3-0.1c-0.1-0.2-0.4-0.3-0.2-0.7
		c0.2-0.3,0.3-0.6,0.5-0.9c-0.4,0.1-0.9,0.7-0.8,1.1c0,0.2,0.2,0.4,0.3,0.5c0.1,0.2,0.1,0.2-0.1,0.2c0,0,0-0.1,0-0.1
		c-0.4-0.6-0.4-1,0.1-1.5c0.6-0.5,1-1.1,1.2-1.9c0,0,0.1-0.1,0.2-0.1c0,0.1,0,0.2,0,0.3c-0.2,0.6-0.5,1.1-0.7,1.7
		c-0.1,0.3-0.3,0.5-0.3,0.7c-0.1,0.4,0.1,0.6,0.5,0.4C20.2,7.9,20.5,7.8,20.8,7.7z"/>
	<path class="st3" d="M19,21.9c0.5,0.3,0.8,0.9,0.6,1.4c-0.2,0.4-0.4,0.8-0.6,1.2c-0.1,0.2-0.2,0.4-0.3,0.6
		c-0.1,0.1-0.2,0.3-0.4,0.3c-0.1,0-0.3-0.1-0.3-0.2c0-0.1,0.1-0.3,0.2-0.4c0-0.1,0.1-0.1,0.2-0.2C19.4,23.9,19.6,23.1,19,21.9z"/>
	<path class="st4" d="M4.8,12.6c-0.2,0.1-0.5,0.2-0.6,0.3c-0.3,0.2-0.5,0.4-0.4,0.8c0,0.1-0.1,0.3-0.1,0.4c0,0-0.3,0-0.3-0.1
		c-0.1-0.1-0.1-0.3,0-0.4C3.6,12.8,4,12.5,4.8,12.6z"/>
	<path class="st5" d="M19.9,23.6c0.1,0.5,0.3,1,0.4,1.5c0,0.1-0.1,0.3-0.2,0.4c-0.1,0.1-0.2,0-0.3,0c-0.1-0.1-0.2-0.2-0.2-0.3
		C19.8,24.6,19.8,24.1,19.9,23.6z"/>
	<path class="st6" d="M24.3,11.6c0.1-0.4-0.3-0.1-0.4-0.3c0.7-0.3,1.3-0.5,2.1-0.3C25.4,11.3,24.9,11.4,24.3,11.6z"/>
	<path class="st2" d="M23.6,7.9c-0.1,0-0.2,0-0.3,0c-0.3-0.1-0.6-0.1-0.9-0.2c-0.1,0-0.2-0.1-0.3-0.2C21.8,7,21.3,7,21,7.6
		c0,0.1-0.1,0.1-0.2,0.1C20.9,7.3,21,7,21.4,7c0.4-0.1,0.7,0.1,0.9,0.4c0.1,0.1,0.2,0.1,0.3,0.2C23,7.7,23.3,7.8,23.6,7.9z"/>
	<path class="st7" d="M2.2,12.7c-0.4,0.2-0.8,0.4-1.2,0.5c-0.2,0.1-0.4,0-0.5-0.2c0-0.1,0.1-0.4,0.3-0.4C1.3,12.6,1.8,12.6,2.2,12.7
		C2.2,12.7,2.2,12.7,2.2,12.7z"/>
	<path class="st8" d="M2.2,12.2C1.9,12,1.9,11.8,2,11.6c0.2-0.2,0.4-0.2,0.6,0c0.2,0.2,0.5,0.3,0.7,0.4c0,0.1,0,0.1,0,0.2
		c-0.3,0-0.6,0-1,0C2.4,12.2,2.3,12.2,2.2,12.2z"/>
	<path class="st5" d="M2.9,13.1c-0.1,0.2-0.1,0.5-0.2,0.7c0,0.1-0.2,0.2-0.3,0.2c-0.1,0-0.3-0.1-0.3-0.2c0-0.1,0.1-0.3,0.2-0.3
		C2.5,13.3,2.7,13.2,2.9,13.1z"/>
	<path class="st1" d="M19.5,17.3c0-0.2,0-0.4,0-0.6c0-0.5,0.1-1,0.2-1.5c0-0.1,0.1-0.1,0.1-0.2C19.9,15.7,19.8,16.5,19.5,17.3z"/>
	<path class="st9" d="M3.4,12.1c0-0.1,0-0.1,0-0.2c0.6,0,1.2,0,1.8,0c0,0.1,0,0.1,0,0.2C4.6,12.2,4,12.2,3.4,12.1z"/>
	<path class="st10" d="M20.1,4.2c-0.3-0.1-0.6-0.3-0.9-0.4c-0.1,0-0.1-0.2-0.1-0.3c0-0.1,0.1-0.2,0.2-0.2c0.1,0,0.3,0,0.3,0.1
		c0.1,0.2,0.2,0.4,0.3,0.6C19.9,4.1,20,4.1,20.1,4.2C20.1,4.2,20.1,4.2,20.1,4.2z"/>
	<path class="st11" d="M26.5,11.6c0.3,0.2,0.5,0.4,0.7,0.5c0.1,0.1,0,0.2,0,0.4c-0.1,0-0.3,0-0.4-0.1C26.7,12.2,26.6,11.9,26.5,11.6
		z"/>
	<path class="st12" d="M20.6,23.4c0.3,0,0.6-0.1,0.6,0.3c0,0.1-0.2,0.3-0.3,0.3C20.6,24,20.6,23.7,20.6,23.4z"/>
	<path class="st13" d="M20.2,22.1c0.2,0,0.4,0.1,0.5,0.1c0.1,0,0.2,0.2,0.2,0.2c0,0.1-0.1,0.3-0.2,0.3c-0.1,0-0.2-0.1-0.3-0.1
		C20.3,22.5,20.3,22.3,20.2,22.1z"/>
	<path class="st10" d="M20.5,4c-0.1-0.2-0.2-0.5-0.3-0.7c0-0.1,0-0.2,0.1-0.3c0,0,0.2-0.1,0.2,0c0.1,0.1,0.1,0.2,0.1,0.3
		C20.6,3.5,20.5,3.7,20.5,4z"/>
	<path class="st14" d="M20.8,4.5c0.1-0.2,0.1-0.4,0.2-0.6c0-0.1,0.1-0.1,0.2-0.2c0,0,0.2,0.1,0.2,0.1c0,0.1,0,0.2-0.1,0.3
		C21.2,4.3,21,4.4,20.8,4.5z"/>
	<path class="st2" d="M26.9,11.2c0.2-0.1,0.4-0.1,0.5-0.1c0.1,0,0.2,0,0.3,0.1c0,0,0,0.2,0,0.3c-0.1,0.1-0.2,0.1-0.3,0
		C27.2,11.4,27.1,11.3,26.9,11.2z"/>
	<path class="st13" d="M26.3,10.6c0.1-0.1,0.2-0.2,0.3-0.3c0.1-0.1,0.2-0.1,0.3-0.1c0.1,0,0.1,0.2,0.1,0.2c0,0.1-0.2,0.2-0.3,0.2
		C26.6,10.7,26.5,10.6,26.3,10.6z"/>
	<path class="st1" d="M19.7,14.9c-0.1-0.1-0.2-0.2-0.2-0.3c-0.1-0.3-0.2-0.5-0.3-0.8c0-0.1,0-0.1,0-0.2C19.4,14,19.6,14.4,19.7,14.9
		z"/>
	<path class="st14" d="M24,9.3c0-0.4-0.1-0.8-0.1-1.1C24.2,8.5,24.1,8.9,24,9.3z"/>
	<path class="st15" d="M20.8,5c0.2-0.1,0.3-0.2,0.5-0.4c0,0.1,0.1,0.1,0.1,0.2C21.2,5,21,5.1,20.8,5.2C20.8,5.1,20.8,5.1,20.8,5z"/>
	<path class="st16" d="M10.5,11.4c0.1,0,0.2,0,0.3,0c-0.3,0.1-0.7,0.3-1,0C10,11.4,10.2,11.4,10.5,11.4z"/>
	<path class="st9" d="M5.5,12.2c0.2,0,0.5,0,0.7,0C6,12.2,5.7,12.2,5.5,12.2z"/>
	<path class="st9" d="M11,12.2c0.2,0,0.4,0,0.6,0.1C11.4,12.2,11.2,12.2,11,12.2z"/>
	<path class="st9" d="M12.1,12.3c0.1,0,0.2,0,0.3,0.1C12.3,12.3,12.2,12.3,12.1,12.3z"/>
	<path class="st9" d="M2.2,12.2c0.1,0,0.2,0,0.2,0C2.4,12.2,2.3,12.2,2.2,12.2z"/>
	<polygon class="st13" points="26.1,10.7 26.1,10.7 26.1,10.7 	"/>
	<path class="st9" d="M6.4,12.2C6.4,12.2,6.4,12.2,6.4,12.2C6.4,12.2,6.4,12.2,6.4,12.2z"/>
	<path class="st9" d="M5.5,12c0,0-0.1,0-0.1,0C5.4,12,5.5,12,5.5,12z"/>
</g>
</svg>
