<?xml version="1.0" encoding="utf-8"?>
<!-- Generator: Adobe Illustrator 21.0.0, SVG Export Plug-In . SVG Version: 6.00 Build 0)  -->
<svg version="1.1" id="Layer_1" xmlns="http://www.w3.org/2000/svg" xmlns:xlink="http://www.w3.org/1999/xlink" x="0px" y="0px"
	 viewBox="0 0 28.4 28.4" style="enable-background:new 0 0 28.4 28.4;" xml:space="preserve">
<style type="text/css">
	.st0{fill:#325C67;stroke:#325C67;stroke-miterlimit:10;}
	.st1{fill:#FFFFFF;}
</style>
<circle class="st0" cx="14.2" cy="14.1" r="12.9"/>
<g>
	<polygon class="st1" points="10.6,21.1 12.7,21.1 11.6,22.9 9.3,22.9 	"/>
	<path class="st1" d="M18,6.4h-1.7l-0.1-0.2c-0.2-0.4-0.6-0.7-1-0.7h-1.1h-1.1c-0.4,0-0.8,0.3-1,0.7L12,6.4h-1.7
		c-1.1,0-1.9,0.9-1.9,1.9v10.4c0,1.1,0.9,1.9,1.9,1.9h3.9H18c1.1,0,1.9-0.9,1.9-1.9V8.3C20,7.3,19.1,6.4,18,6.4z M13.3,6.3h0.9h0.9
		c0.2,0,0.4,0.2,0.4,0.4c0,0.2-0.2,0.4-0.4,0.4h-0.9h-0.9c-0.2,0-0.4-0.2-0.4-0.4C12.9,6.5,13.1,6.3,13.3,6.3z M11.3,18.1
		c-0.6,0-1.1-0.5-1.1-1.1c0-0.6,0.5-1.1,1.1-1.1c0.6,0,1.1,0.5,1.1,1.1C12.4,17.6,11.9,18.1,11.3,18.1z M17.1,18.1
		c-0.6,0-1.1-0.5-1.1-1.1c0-0.6,0.5-1.1,1.1-1.1c0.6,0,1.1,0.5,1.1,1.1C18.2,17.6,17.7,18.1,17.1,18.1z M17.1,14.1
		c-0.4,0.1-2,0.1-2.9,0c-0.9,0-2.5,0.1-2.9,0C10.7,14,9.3,9.6,9.9,9.3c1.1-0.5,3.2-0.6,4.3-0.6c1.1,0,3.2,0.1,4.3,0.6
		C19,9.6,17.6,14,17.1,14.1z"/>
	<polygon class="st1" points="17.8,21.1 15.7,21.1 16.7,22.9 19.1,22.9 	"/>
</g>
</svg>
