<?xml version="1.0" encoding="utf-8"?>
<!-- Generator: Adobe Illustrator 21.0.0, SVG Export Plug-In . SVG Version: 6.00 Build 0)  -->
<svg version="1.1" id="Layer_1" xmlns="http://www.w3.org/2000/svg" xmlns:xlink="http://www.w3.org/1999/xlink" x="0px" y="0px"
	 viewBox="0 0 28.4 28.4" style="enable-background:new 0 0 28.4 28.4;" xml:space="preserve">
<style type="text/css">
	.st0{fill:#9299A0;stroke:#9299A0;stroke-miterlimit:10;}
	.st1{fill:#FFFFFF;}
</style>
<circle class="st0" cx="14.2" cy="14.1" r="12.9"/>
<g>
	<path class="st1" d="M15.6,4.5c0.7,0.1,1.4,0.2,2.1,0.4c0.6,0.2,1.2,0.6,1.7,1c0.2,0.1,0.1,0.6,0.1,0.9c-0.3,0-0.6,0.1-0.9,0
		c-0.4-0.2-0.8-0.5-1.3-0.8c-0.3,0.7-0.6,1.2-0.8,1.8c0.9,0.3,1.8,0.6,2.6,1c1.1,0.6,1.7,1.5,1.6,2.8c0,2.6,0,5.2,0,7.8
		c0,1.5-0.3,1.9-1.9,2.3c0.3,0.4,0.6,0.8,0.7,1.2c0.1,0.2-0.1,0.6-0.1,0.9c-0.3-0.1-0.6-0.1-0.9-0.3c-0.1,0-0.2-0.2-0.2-0.3
		c-0.6-1.4-1.6-1.8-3.1-1.6c-1.1,0.1-2.2,0.1-3.3,0c-0.6,0-1,0.1-1.2,0.7c-0.2,0.4-0.5,0.9-0.9,1.3c-0.2,0.2-0.6,0.2-0.9,0.3
		c0-0.3-0.2-0.6-0.1-0.9C9,22.4,9.3,22,9.5,21.7c-0.5-0.3-1.2-0.5-1.4-1c-0.3-0.5-0.3-1.1-0.3-1.7c0-2.4,0-4.8,0-7.2
		C7.7,10,8.3,9,10,8.4c0.6-0.2,1.2-0.4,1.8-0.6c-0.2-0.6-0.5-1.1-0.8-1.8c-0.5,0.3-0.9,0.6-1.3,0.8c-0.3,0.1-0.6,0-0.9,0
		c0-0.3-0.1-0.7,0.1-0.9c0.7-0.8,1.7-1,2.7-1.2c0.4-0.1,0.7-0.1,1.1-0.2C13.7,4.5,14.6,4.5,15.6,4.5z M14.1,16.6c1.3,0,2.6,0,3.9,0
		c0.7,0,1-0.3,1-1c0-1.2,0-2.5,0-3.7c0-0.7-0.3-1-1-1c-2.6,0-5.1,0-7.7,0c-0.7,0-1.1,0.3-1.1,1c0,1.2,0,2.4,0,3.6c0,0.7,0.3,1,1,1
		C11.6,16.6,12.8,16.6,14.1,16.6z M12.4,5.8c0.3,0.7,0.6,1.3,0.8,1.9c0.7,0,1.3,0,2,0c0.2-0.6,0.5-1.1,0.8-1.9
		C14.7,5.8,13.6,5.8,12.4,5.8z M9.3,18.7c0,0.7,0.6,1.2,1.3,1.2c0.6,0,1.1-0.6,1.2-1.2c0-0.7-0.5-1.2-1.2-1.2
		C9.8,17.4,9.3,18,9.3,18.7z M19,18.7c0-0.7-0.6-1.2-1.2-1.2c-0.6,0-1.2,0.5-1.2,1.1c0,0.7,0.5,1.2,1.2,1.3
		C18.4,19.9,19,19.3,19,18.7z M14.2,10.1C14.2,10.1,14.2,10.1,14.2,10.1c0.4,0,0.7,0,1.1,0c0.2,0,0.3-0.3,0.5-0.4
		c-0.1-0.1-0.3-0.3-0.4-0.3c-0.8,0-1.5,0-2.3,0c-0.2,0-0.3,0.3-0.4,0.4c0.2,0.1,0.3,0.3,0.5,0.3C13.4,10.2,13.8,10.1,14.2,10.1z"/>
</g>
</svg>
