<?xml version="1.0" encoding="utf-8"?>
<!-- Generator: Adobe Illustrator 21.0.0, SVG Export Plug-In . SVG Version: 6.00 Build 0)  -->
<svg version="1.1" id="Layer_1" xmlns="http://www.w3.org/2000/svg" xmlns:xlink="http://www.w3.org/1999/xlink" x="0px" y="0px"
	 viewBox="0 0 28.4 28.4" style="enable-background:new 0 0 28.4 28.4;" xml:space="preserve">
<style type="text/css">
	.st0{fill:#B5D5DC;stroke:#B5D5DC;stroke-miterlimit:10;}
	.st1{fill:#FFFFFF;}
</style>
<circle class="st0" cx="14.2" cy="14.1" r="12.9"/>
<g>
	<path class="st1" d="M10.2,19.2c-0.7,0-1.4,0.1-2,0.2c0,1.1-0.1,2.8,0.5,3.4c0.8,0.9,2.5,0.9,3.1-0.1c0.7-1,0.2-2.5,0-3.4
		C11.3,19.2,10.7,19.2,10.2,19.2z"/>
	<path class="st1" d="M10.6,8.9c-1.7,0.1-3.5,4.2-3,6.3c0.2,0.8,0.6,2.3,0.6,3.2c0,0.1,0,0.3,0,0.5c0.7-0.1,1.3-0.2,2-0.2
		c0.5,0,1,0,1.5,0.1c-0.1-0.5-0.1-1.2,0.1-2c0.2-1,0.7-2.1,0.9-2.7C13.1,12.9,12.3,8.8,10.6,8.9z"/>
	<path class="st1" d="M18.2,15.4c-0.6,0-1.1,0.1-1.7,0.1c-0.2,0.9-0.6,2.2,0.1,3.2c0.7,1,2.4,1,3.1,0.1c0.5-0.6,0.5-2.1,0.5-3.3
		C19.5,15.4,18.9,15.4,18.2,15.4z"/>
	<path class="st1" d="M17.7,4.9c-1.7-0.1-2.6,4-2.1,5.2c0.2,0.6,0.7,1.6,0.9,2.7c0.2,0.9,0.2,1.7,0.1,2.2c0.5-0.1,1-0.1,1.6-0.1
		c0.7,0,1.4,0.1,2,0.2c0-0.3,0-0.5,0-0.7c0-0.9,0.4-2.5,0.6-3.2C21.2,9.1,19.5,5,17.7,4.9z"/>
</g>
</svg>
